<?xml version="1.0" encoding="UTF-8" standalone="no"?>
<!DOCTYPE svg PUBLIC "-//W3C//DTD SVG 1.1//EN"
 "http://www.w3.org/Graphics/SVG/1.1/DTD/svg11.dtd">
<!-- Generated by graphviz version 2.43.0 (0)
 -->
<!-- Title: com.teragrep.cfe_16.TokenManager.isTokenInBasic Pages: 1 -->
<svg width="350pt" height="86pt"
 viewBox="0.00 0.00 350.00 86.00" xmlns="http://www.w3.org/2000/svg" xmlns:xlink="http://www.w3.org/1999/xlink">
<g id="graph0" class="graph" transform="scale(1 1) rotate(0) translate(4 82)">
<title>com.teragrep.cfe_16.TokenManager.isTokenInBasic</title>
<!-- Node1 -->
<g id="Node000001" class="node">
<title>Node1</title>
<g id="a_Node000001"><a xlink:title=" ">
<polygon fill="#999999" stroke="#666666" points="342,-54 194,-54 194,-24 342,-24 342,-54"/>
<text text-anchor="start" x="202" y="-42" font-family="Helvetica,sans-Serif" font-size="10.00">com.teragrep.cfe_16.Token</text>
<text text-anchor="middle" x="268" y="-31" font-family="Helvetica,sans-Serif" font-size="10.00">Manager.isTokenInBasic</text>
</a>
</g>
</g>
<!-- Node2 -->
<g id="Node000002" class="node">
<title>Node2</title>
<g id="a_Node000002"><a xlink:href="classcom_1_1teragrep_1_1cfe__16_1_1service_1_1HECServiceImpl.html#ae25ae6381bbd75d4c499e4541962d2ff" target="_top" xlink:title=" ">
<polygon fill="white" stroke="#666666" points="158,-78 0,-78 0,-48 158,-48 158,-78"/>
<text text-anchor="start" x="8" y="-66" font-family="Helvetica,sans-Serif" font-size="10.00">com.teragrep.cfe_16.service.</text>
<text text-anchor="middle" x="79" y="-55" font-family="Helvetica,sans-Serif" font-size="10.00">HECServiceImpl.getAcks</text>
</a>
</g>
</g>
<!-- Node1&#45;&gt;Node2 -->
<g id="edge1_Node000001_Node000002" class="edge">
<title>Node1&#45;&gt;Node2</title>
<g id="a_edge1_Node000001_Node000002"><a xlink:title=" ">
<path fill="none" stroke="#63b8ff" d="M183.96,-49.66C175.43,-50.75 166.78,-51.86 158.3,-52.95"/>
<polygon fill="#63b8ff" stroke="#63b8ff" points="184.42,-53.13 193.9,-48.38 183.53,-46.18 184.42,-53.13"/>
</a>
</g>
</g>
<!-- Node3 -->
<g id="Node000003" class="node">
<title>Node3</title>
<g id="a_Node000003"><a xlink:href="classcom_1_1teragrep_1_1cfe__16_1_1service_1_1HECServiceImpl.html#a9ed9a0d5772181625f00edce5a2c611d" target="_top" xlink:title="Returns the JSON object as a response of given HTTP event request.">
<polygon fill="white" stroke="#666666" points="158,-30 0,-30 0,0 158,0 158,-30"/>
<text text-anchor="start" x="8" y="-18" font-family="Helvetica,sans-Serif" font-size="10.00">com.teragrep.cfe_16.service.</text>
<text text-anchor="middle" x="79" y="-7" font-family="Helvetica,sans-Serif" font-size="10.00">HECServiceImpl.sendEvents</text>
</a>
</g>
</g>
<!-- Node1&#45;&gt;Node3 -->
<g id="edge2_Node000001_Node000003" class="edge">
<title>Node1&#45;&gt;Node3</title>
<g id="a_edge2_Node000001_Node000003"><a xlink:title=" ">
<path fill="none" stroke="#63b8ff" d="M183.96,-28.34C175.43,-27.25 166.78,-26.14 158.3,-25.05"/>
<polygon fill="#63b8ff" stroke="#63b8ff" points="183.53,-31.82 193.9,-29.62 184.42,-24.87 183.53,-31.82"/>
</a>
</g>
</g>
</g>
</svg>
