<?xml version="1.0" encoding="UTF-8" standalone="no"?>
<!DOCTYPE svg PUBLIC "-//W3C//DTD SVG 1.1//EN"
 "http://www.w3.org/Graphics/SVG/1.1/DTD/svg11.dtd">
<!-- Generated by graphviz version 2.43.0 (0)
 -->
<!-- Title: com.teragrep.cfe_16.Acknowledgements.State.getAckMap Pages: 1 -->
<svg width="1027pt" height="404pt"
 viewBox="0.00 0.00 1027.00 404.49" xmlns="http://www.w3.org/2000/svg" xmlns:xlink="http://www.w3.org/1999/xlink">
<g id="graph0" class="graph" transform="scale(1 1) rotate(0) translate(4 400.49)">
<title>com.teragrep.cfe_16.Acknowledgements.State.getAckMap</title>
<!-- Node1 -->
<g id="Node000001" class="node">
<title>Node1</title>
<g id="a_Node000001"><a xlink:title=" ">
<polygon fill="#999999" stroke="#666666" points="1019,-211.5 800,-211.5 800,-181.5 1019,-181.5 1019,-211.5"/>
<text text-anchor="start" x="808" y="-199.5" font-family="Helvetica,sans-Serif" font-size="10.00">com.teragrep.cfe_16.Acknowledgements.</text>
<text text-anchor="middle" x="909.5" y="-188.5" font-family="Helvetica,sans-Serif" font-size="10.00">State.getAckMap</text>
</a>
</g>
</g>
<!-- Node2 -->
<g id="Node000002" class="node">
<title>Node2</title>
<g id="a_Node000002"><a xlink:href="classcom_1_1teragrep_1_1cfe__16_1_1Acknowledgements.html#a8c6f0dff735fde04e0bc670136eb57d2" target="_top" xlink:title=" ">
<polygon fill="white" stroke="#666666" points="478,-383 194,-383 194,-364 478,-364 478,-383"/>
<text text-anchor="middle" x="336" y="-371" font-family="Helvetica,sans-Serif" font-size="10.00">com.teragrep.cfe_16.Acknowledgements.acknowledge</text>
</a>
</g>
</g>
<!-- Node1&#45;&gt;Node2 -->
<g id="edge1_Node000001_Node000002" class="edge">
<title>Node1&#45;&gt;Node2</title>
<g id="a_edge1_Node000001_Node000002"><a xlink:title=" ">
<path fill="none" stroke="#63b8ff" d="M895.03,-220.61C873.06,-257.23 825.67,-325.67 764,-354.5 638.63,-413.1 469.3,-396.4 386.6,-383.02"/>
<polygon fill="#63b8ff" stroke="#63b8ff" points="898.27,-222 900.31,-211.6 892.23,-218.46 898.27,-222"/>
</a>
</g>
</g>
<!-- Node4 -->
<g id="Node000004" class="node">
<title>Node4</title>
<g id="a_Node000004"><a xlink:href="classcom_1_1teragrep_1_1cfe__16_1_1Acknowledgements.html#a7a9570efce9732f5f674e9ea85017439" target="_top" xlink:title=" ">
<polygon fill="white" stroke="#666666" points="760,-345.5 518,-345.5 518,-315.5 760,-315.5 760,-345.5"/>
<text text-anchor="start" x="526" y="-333.5" font-family="Helvetica,sans-Serif" font-size="10.00">com.teragrep.cfe_16.Acknowledgements.acks</text>
<text text-anchor="middle" x="639" y="-322.5" font-family="Helvetica,sans-Serif" font-size="10.00">Available</text>
</a>
</g>
</g>
<!-- Node1&#45;&gt;Node4 -->
<g id="edge3_Node000001_Node000004" class="edge">
<title>Node1&#45;&gt;Node4</title>
<g id="a_edge3_Node000001_Node000004"><a xlink:title=" ">
<path fill="none" stroke="#63b8ff" d="M884.31,-218.83C857.07,-242.78 810.51,-280.22 764,-301.5 751.74,-307.11 738.28,-311.69 724.89,-315.42"/>
<polygon fill="#63b8ff" stroke="#63b8ff" points="886.99,-221.13 892.12,-211.86 882.33,-215.91 886.99,-221.13"/>
</a>
</g>
</g>
<!-- Node5 -->
<g id="Node000005" class="node">
<title>Node5</title>
<g id="a_Node000005"><a xlink:href="classcom_1_1teragrep_1_1cfe__16_1_1Acknowledgements.html#a5307dc12a64ca957ae24430d09b372e1" target="_top" xlink:title=" ">
<polygon fill="white" stroke="#666666" points="470.5,-345.5 201.5,-345.5 201.5,-315.5 470.5,-315.5 470.5,-345.5"/>
<text text-anchor="start" x="209.5" y="-333.5" font-family="Helvetica,sans-Serif" font-size="10.00">com.teragrep.cfe_16.Acknowledgements.increment</text>
<text text-anchor="middle" x="336" y="-322.5" font-family="Helvetica,sans-Serif" font-size="10.00">AckValue</text>
</a>
</g>
</g>
<!-- Node1&#45;&gt;Node5 -->
<g id="edge10_Node000001_Node000005" class="edge">
<title>Node1&#45;&gt;Node5</title>
<g id="a_edge10_Node000001_Node000005"><a xlink:title=" ">
<path fill="none" stroke="#63b8ff" d="M875.47,-216.77C846.98,-233.31 804.19,-255.93 764,-268.5 748.91,-273.22 567.91,-298.69 446.46,-315.49"/>
<polygon fill="#63b8ff" stroke="#63b8ff" points="877.35,-219.73 884.2,-211.64 873.8,-213.69 877.35,-219.73"/>
</a>
</g>
</g>
<!-- Node6 -->
<g id="Node000006" class="node">
<title>Node6</title>
<g id="a_Node000006"><a xlink:href="classcom_1_1teragrep_1_1cfe__16_1_1Acknowledgements.html#a225a9f18c21826dc1bbc4ce0a82550ed" target="_top" xlink:title=" ">
<polygon fill="white" stroke="#666666" points="764,-259.5 514,-259.5 514,-229.5 764,-229.5 764,-259.5"/>
<text text-anchor="start" x="522" y="-247.5" font-family="Helvetica,sans-Serif" font-size="10.00">com.teragrep.cfe_16.Acknowledgements.delete</text>
<text text-anchor="middle" x="639" y="-236.5" font-family="Helvetica,sans-Serif" font-size="10.00">AckFromList</text>
</a>
</g>
</g>
<!-- Node1&#45;&gt;Node6 -->
<g id="edge6_Node000001_Node000006" class="edge">
<title>Node1&#45;&gt;Node6</title>
<g id="a_edge6_Node000001_Node000006"><a xlink:title=" ">
<path fill="none" stroke="#63b8ff" d="M814.41,-213.32C784.94,-218.59 752.63,-224.36 723.92,-229.5"/>
<polygon fill="#63b8ff" stroke="#63b8ff" points="815.05,-216.76 824.28,-211.56 813.82,-209.87 815.05,-216.76"/>
</a>
</g>
</g>
<!-- Node7 -->
<g id="Node000007" class="node">
<title>Node7</title>
<g id="a_Node000007"><a xlink:href="classcom_1_1teragrep_1_1cfe__16_1_1Acknowledgements.html#a524b6158e1c70b00480d167b944f14ad" target="_top" xlink:title="Returns the unmodifiable set of Acks for a channel.">
<polygon fill="white" stroke="#666666" points="756.5,-211.5 521.5,-211.5 521.5,-181.5 756.5,-181.5 756.5,-211.5"/>
<text text-anchor="start" x="529.5" y="-199.5" font-family="Helvetica,sans-Serif" font-size="10.00">com.teragrep.cfe_16.Acknowledgements.get</text>
<text text-anchor="middle" x="639" y="-188.5" font-family="Helvetica,sans-Serif" font-size="10.00">AckList</text>
</a>
</g>
</g>
<!-- Node1&#45;&gt;Node7 -->
<g id="edge7_Node000001_Node000007" class="edge">
<title>Node1&#45;&gt;Node7</title>
<g id="a_edge7_Node000001_Node000007"><a xlink:title=" ">
<path fill="none" stroke="#63b8ff" d="M789.37,-196.5C778.57,-196.5 767.64,-196.5 756.86,-196.5"/>
<polygon fill="#63b8ff" stroke="#63b8ff" points="789.68,-200 799.68,-196.5 789.68,-193 789.68,-200"/>
</a>
</g>
</g>
<!-- Node8 -->
<g id="Node000008" class="node">
<title>Node8</title>
<g id="a_Node000008"><a xlink:href="classcom_1_1teragrep_1_1cfe__16_1_1Acknowledgements.html#a5287a2c95003a939f0314bc423d401cf" target="_top" xlink:title="Returns the size of the Ack set of given channel.">
<polygon fill="white" stroke="#666666" points="756.5,-163.5 521.5,-163.5 521.5,-133.5 756.5,-133.5 756.5,-163.5"/>
<text text-anchor="start" x="529.5" y="-151.5" font-family="Helvetica,sans-Serif" font-size="10.00">com.teragrep.cfe_16.Acknowledgements.get</text>
<text text-anchor="middle" x="639" y="-140.5" font-family="Helvetica,sans-Serif" font-size="10.00">AckListSize</text>
</a>
</g>
</g>
<!-- Node1&#45;&gt;Node8 -->
<g id="edge8_Node000001_Node000008" class="edge">
<title>Node1&#45;&gt;Node8</title>
<g id="a_edge8_Node000001_Node000008"><a xlink:title=" ">
<path fill="none" stroke="#63b8ff" d="M814.41,-179.68C784.94,-174.41 752.63,-168.64 723.92,-163.5"/>
<polygon fill="#63b8ff" stroke="#63b8ff" points="813.82,-183.13 824.28,-181.44 815.05,-176.24 813.82,-183.13"/>
</a>
</g>
</g>
<!-- Node9 -->
<g id="Node000009" class="node">
<title>Node9</title>
<g id="a_Node000009"><a xlink:href="classcom_1_1teragrep_1_1cfe__16_1_1Acknowledgements.html#a991efdd07c7cbf8d24b5da93e342b55c" target="_top" xlink:title="Returns the Ack statuses of requested Ack id:s as a JSON node.">
<polygon fill="white" stroke="#666666" points="756.5,-115.5 521.5,-115.5 521.5,-85.5 756.5,-85.5 756.5,-115.5"/>
<text text-anchor="start" x="529.5" y="-103.5" font-family="Helvetica,sans-Serif" font-size="10.00">com.teragrep.cfe_16.Acknowledgements.get</text>
<text text-anchor="middle" x="639" y="-92.5" font-family="Helvetica,sans-Serif" font-size="10.00">RequestedAckStatuses</text>
</a>
</g>
</g>
<!-- Node1&#45;&gt;Node9 -->
<g id="edge9_Node000001_Node000009" class="edge">
<title>Node1&#45;&gt;Node9</title>
<g id="a_edge9_Node000001_Node000009"><a xlink:title=" ">
<path fill="none" stroke="#63b8ff" d="M874.79,-176.41C846.21,-160.2 803.64,-137.93 764,-124.5 753.93,-121.09 743.22,-118.11 732.48,-115.51"/>
<polygon fill="#63b8ff" stroke="#63b8ff" points="873.15,-179.51 883.56,-181.45 876.63,-173.43 873.15,-179.51"/>
</a>
</g>
</g>
<!-- Node10 -->
<g id="Node000010" class="node">
<title>Node10</title>
<g id="a_Node000010"><a xlink:href="classcom_1_1teragrep_1_1cfe__16_1_1Acknowledgements.html#a9544ac800392336cc3fa19b72234d014" target="_top" xlink:title="Checks if the Ack with a given id is acknowledged.">
<polygon fill="white" stroke="#666666" points="752.5,-67.5 525.5,-67.5 525.5,-37.5 752.5,-37.5 752.5,-67.5"/>
<text text-anchor="start" x="533.5" y="-55.5" font-family="Helvetica,sans-Serif" font-size="10.00">com.teragrep.cfe_16.Acknowledgements.is</text>
<text text-anchor="middle" x="639" y="-44.5" font-family="Helvetica,sans-Serif" font-size="10.00">AckAcknowledged</text>
</a>
</g>
</g>
<!-- Node1&#45;&gt;Node10 -->
<g id="edge11_Node000001_Node000010" class="edge">
<title>Node1&#45;&gt;Node10</title>
<g id="a_edge11_Node000001_Node000010"><a xlink:title=" ">
<path fill="none" stroke="#63b8ff" d="M888.01,-173.54C862,-145.94 814.43,-100.37 764,-76.5 756.67,-73.03 748.86,-70.06 740.88,-67.52"/>
<polygon fill="#63b8ff" stroke="#63b8ff" points="885.69,-176.19 895.06,-181.15 890.83,-171.44 885.69,-176.19"/>
</a>
</g>
</g>
<!-- Node11 -->
<g id="Node000011" class="node">
<title>Node11</title>
<g id="a_Node000011"><a xlink:href="classcom_1_1teragrep_1_1cfe__16_1_1Acknowledgements.html#a2d2acb3e9942fdb720439eaad8fa1f5c" target="_top" xlink:title=" ">
<polygon fill="white" stroke="#666666" points="756.5,-19 521.5,-19 521.5,0 756.5,0 756.5,-19"/>
<text text-anchor="middle" x="639" y="-7" font-family="Helvetica,sans-Serif" font-size="10.00">com.teragrep.cfe_16.Acknowledgements.run</text>
</a>
</g>
</g>
<!-- Node1&#45;&gt;Node11 -->
<g id="edge12_Node000001_Node000011" class="edge">
<title>Node1&#45;&gt;Node11</title>
<g id="a_edge12_Node000001_Node000011"><a xlink:title=" ">
<path fill="none" stroke="#63b8ff" d="M895.46,-172.48C873.67,-134.89 826.03,-62.89 764,-28.5 757.14,-24.7 749.76,-21.59 742.14,-19.06"/>
<polygon fill="#63b8ff" stroke="#63b8ff" points="892.46,-174.29 900.44,-181.26 898.55,-170.83 892.46,-174.29"/>
</a>
</g>
</g>
<!-- Node3 -->
<g id="Node000003" class="node">
<title>Node3</title>
<g id="a_Node000003"><a xlink:href="classcom_1_1teragrep_1_1cfe__16_1_1service_1_1HECServiceImpl.html#a9ed9a0d5772181625f00edce5a2c611d" target="_top" xlink:title="Returns the JSON object as a response of given HTTP event request.">
<polygon fill="white" stroke="#666666" points="158,-366.5 0,-366.5 0,-336.5 158,-336.5 158,-366.5"/>
<text text-anchor="start" x="8" y="-354.5" font-family="Helvetica,sans-Serif" font-size="10.00">com.teragrep.cfe_16.service.</text>
<text text-anchor="middle" x="79" y="-343.5" font-family="Helvetica,sans-Serif" font-size="10.00">HECServiceImpl.sendEvents</text>
</a>
</g>
</g>
<!-- Node2&#45;&gt;Node3 -->
<g id="edge2_Node000002_Node000003" class="edge">
<title>Node2&#45;&gt;Node3</title>
<g id="a_edge2_Node000002_Node000003"><a xlink:title=" ">
<path fill="none" stroke="#63b8ff" d="M214.65,-363.12C195.49,-361.46 176.12,-359.79 158.27,-358.25"/>
<polygon fill="#63b8ff" stroke="#63b8ff" points="214.37,-366.61 224.64,-363.98 214.97,-359.63 214.37,-366.61"/>
</a>
</g>
</g>
<!-- Node4&#45;&gt;Node5 -->
<g id="edge4_Node000004_Node000005" class="edge">
<title>Node4&#45;&gt;Node5</title>
<g id="a_edge4_Node000004_Node000005"><a xlink:title=" ">
<path fill="none" stroke="#63b8ff" d="M507.58,-330.5C495.43,-330.5 483.1,-330.5 470.92,-330.5"/>
<polygon fill="#63b8ff" stroke="#63b8ff" points="507.74,-334 517.74,-330.5 507.74,-327 507.74,-334"/>
</a>
</g>
</g>
<!-- Node5&#45;&gt;Node3 -->
<g id="edge5_Node000005_Node000003" class="edge">
<title>Node5&#45;&gt;Node3</title>
<g id="a_edge5_Node000005_Node000003"><a xlink:title=" ">
<path fill="none" stroke="#63b8ff" d="M190.87,-342.37C179.71,-343.29 168.72,-344.19 158.26,-345.06"/>
<polygon fill="#63b8ff" stroke="#63b8ff" points="191.47,-345.83 201.15,-341.52 190.9,-338.86 191.47,-345.83"/>
</a>
</g>
</g>
</g>
</svg>
