<?xml version="1.0" encoding="UTF-8" standalone="no"?>
<!DOCTYPE svg PUBLIC "-//W3C//DTD SVG 1.1//EN"
 "http://www.w3.org/Graphics/SVG/1.1/DTD/svg11.dtd">
<!-- Generated by graphviz version 2.43.0 (0)
 -->
<!-- Title: Graphical Class Hierarchy Pages: 1 -->
<svg width="610pt" height="98pt"
 viewBox="0.00 0.00 610.00 97.50" xmlns="http://www.w3.org/2000/svg" xmlns:xlink="http://www.w3.org/1999/xlink">
<g id="graph0" class="graph" transform="scale(1 1) rotate(0) translate(4 93.5)">
<title>Graphical Class Hierarchy</title>
<!-- Node0 -->
<g id="Node000000" class="node">
<title>Node0</title>
<g id="a_Node000000"><a xlink:title=" ">
<polygon fill="#e0e0e0" stroke="#999999" points="167,-33.5 0,-33.5 0,-14.5 167,-14.5 167,-33.5"/>
<text text-anchor="middle" x="83.5" y="-21.5" font-family="Helvetica,sans-Serif" font-size="10.00">AbstractSyslogMessageSender</text>
</a>
</g>
</g>
<!-- Node1 -->
<g id="Node000001" class="node">
<title>Node1</title>
<g id="a_Node000001"><a xlink:href="classcom_1_1teragrep_1_1cfe__16_1_1ThirdParty_1_1SyslogMessageSender_1_1SyslogMessageSender.html" target="_top" xlink:title="See RFC 6587 &#45; Transmission of Syslog Messages over TCP">
<polygon fill="white" stroke="#666666" points="390,-89.5 203,-89.5 203,-48.5 390,-48.5 390,-89.5"/>
<text text-anchor="start" x="211" y="-77.5" font-family="Helvetica,sans-Serif" font-size="10.00">com.teragrep.cfe_16.Third</text>
<text text-anchor="start" x="211" y="-66.5" font-family="Helvetica,sans-Serif" font-size="10.00">Party.SyslogMessageSender.Syslog</text>
<text text-anchor="middle" x="296.5" y="-55.5" font-family="Helvetica,sans-Serif" font-size="10.00">MessageSender</text>
</a>
</g>
</g>
<!-- Node0&#45;&gt;Node1 -->
<g id="edge1_Node000000_Node000001" class="edge">
<title>Node0&#45;&gt;Node1</title>
<g id="a_edge1_Node000000_Node000001"><a xlink:title=" ">
<path fill="none" stroke="#63b8ff" d="M139.1,-35.64C158.5,-39.78 180.92,-44.56 202.62,-49.19"/>
<polygon fill="#63b8ff" stroke="#63b8ff" points="139.76,-32.21 129.25,-33.54 138.3,-39.05 139.76,-32.21"/>
</a>
</g>
</g>
<!-- Node3 -->
<g id="Node000003" class="node">
<title>Node3</title>
<g id="a_Node000003"><a xlink:href="classcom_1_1teragrep_1_1cfe__16_1_1connection_1_1AbstractConnection.html" target="_top" xlink:title="An abstract connection class for sending batch messages.">
<polygon fill="white" stroke="#666666" points="384.5,-30 208.5,-30 208.5,0 384.5,0 384.5,-30"/>
<text text-anchor="start" x="216.5" y="-18" font-family="Helvetica,sans-Serif" font-size="10.00">com.teragrep.cfe_16.connection.</text>
<text text-anchor="middle" x="296.5" y="-7" font-family="Helvetica,sans-Serif" font-size="10.00">AbstractConnection</text>
</a>
</g>
</g>
<!-- Node0&#45;&gt;Node3 -->
<g id="edge2_Node000000_Node000003" class="edge">
<title>Node0&#45;&gt;Node3</title>
<g id="a_edge2_Node000000_Node000003"><a xlink:title=" ">
<path fill="none" stroke="#63b8ff" d="M177.5,-20.03C187.78,-19.59 198.23,-19.15 208.43,-18.71"/>
<polygon fill="#63b8ff" stroke="#63b8ff" points="177.13,-16.55 167.29,-20.47 177.43,-23.54 177.13,-16.55"/>
</a>
</g>
</g>
<!-- Node4 -->
<g id="Node000004" class="node">
<title>Node4</title>
<g id="a_Node000004"><a xlink:href="classcom_1_1teragrep_1_1cfe__16_1_1connection_1_1RelpConnection.html" target="_top" xlink:title=" ">
<polygon fill="white" stroke="#666666" points="602,-30 426,-30 426,0 602,0 602,-30"/>
<text text-anchor="start" x="434" y="-18" font-family="Helvetica,sans-Serif" font-size="10.00">com.teragrep.cfe_16.connection.</text>
<text text-anchor="middle" x="514" y="-7" font-family="Helvetica,sans-Serif" font-size="10.00">RelpConnection</text>
</a>
</g>
</g>
<!-- Node3&#45;&gt;Node4 -->
<g id="edge3_Node000003_Node000004" class="edge">
<title>Node3&#45;&gt;Node4</title>
<g id="a_edge3_Node000003_Node000004"><a xlink:title=" ">
<path fill="none" stroke="#63b8ff" d="M394.85,-15C405.23,-15 415.74,-15 425.99,-15"/>
<polygon fill="#63b8ff" stroke="#63b8ff" points="394.53,-11.5 384.53,-15 394.53,-18.5 394.53,-11.5"/>
</a>
</g>
</g>
<!-- Node2 -->
<g id="Node000002" class="node">
<title>Node2</title>
<g id="a_Node000002"><a xlink:title=" ">
<polygon fill="#e0e0e0" stroke="#999999" points="116,-78.5 51,-78.5 51,-59.5 116,-59.5 116,-78.5"/>
<text text-anchor="middle" x="83.5" y="-66.5" font-family="Helvetica,sans-Serif" font-size="10.00">Closeable</text>
</a>
</g>
</g>
<!-- Node2&#45;&gt;Node1 -->
<g id="edge4_Node000002_Node000001" class="edge">
<title>Node2&#45;&gt;Node1</title>
<g id="a_edge4_Node000002_Node000001"><a xlink:title=" ">
<path fill="none" stroke="#63b8ff" d="M126.37,-69C148.34,-69 176.18,-69 202.91,-69"/>
<polygon fill="#63b8ff" stroke="#63b8ff" points="126.09,-65.5 116.09,-69 126.09,-72.5 126.09,-65.5"/>
</a>
</g>
</g>
</g>
</svg>
