<?xml version="1.0" encoding="UTF-8" standalone="no"?>
<!DOCTYPE svg PUBLIC "-//W3C//DTD SVG 1.1//EN"
 "http://www.w3.org/Graphics/SVG/1.1/DTD/svg11.dtd">
<!-- Generated by graphviz version 2.43.0 (0)
 -->
<!-- Title: Graphical Class Hierarchy Pages: 1 -->
<svg width="398pt" height="124pt"
 viewBox="0.00 0.00 398.00 124.00" xmlns="http://www.w3.org/2000/svg" xmlns:xlink="http://www.w3.org/1999/xlink">
<g id="graph0" class="graph" transform="scale(1 1) rotate(0) translate(4 120)">
<title>Graphical Class Hierarchy</title>
<!-- Node0 -->
<g id="Node000000" class="node">
<title>Node0</title>
<g id="a_Node000000"><a xlink:href="interfacecom_1_1teragrep_1_1cfe__16_1_1LifeCycle.html" target="_top" xlink:title="An interface that own resources like threads for doing graceful shutdown.">
<polygon fill="white" stroke="#666666" points="138,-116 0,-116 0,-86 138,-86 138,-116"/>
<text text-anchor="start" x="8" y="-104" font-family="Helvetica,sans-Serif" font-size="10.00">com.teragrep.cfe_16.Life</text>
<text text-anchor="middle" x="69" y="-93" font-family="Helvetica,sans-Serif" font-size="10.00">Cycle</text>
</a>
</g>
</g>
<!-- Node1 -->
<g id="Node000001" class="node">
<title>Node1</title>
<g id="a_Node000001"><a xlink:href="classcom_1_1teragrep_1_1cfe__16_1_1Acknowledgements.html" target="_top" xlink:title=" ">
<polygon fill="white" stroke="#666666" points="390,-67.5 174,-67.5 174,-48.5 390,-48.5 390,-67.5"/>
<text text-anchor="middle" x="282" y="-55.5" font-family="Helvetica,sans-Serif" font-size="10.00">com.teragrep.cfe_16.Acknowledgements</text>
</a>
</g>
</g>
<!-- Node0&#45;&gt;Node1 -->
<g id="edge6_Node000000_Node000001" class="edge">
<title>Node0&#45;&gt;Node1</title>
<g id="a_edge6_Node000000_Node000001"><a xlink:title=" ">
<path fill="none" stroke="#63b8ff" d="M142.8,-83.7C153.25,-81.36 163.89,-79.06 174,-77 190.27,-73.68 208,-70.4 224.26,-67.52"/>
<polygon fill="#63b8ff" stroke="#63b8ff" points="141.84,-80.33 132.86,-85.95 143.38,-87.16 141.84,-80.33"/>
</a>
</g>
</g>
<!-- Node3 -->
<g id="Node000003" class="node">
<title>Node3</title>
<g id="a_Node000003"><a xlink:href="classcom_1_1teragrep_1_1cfe__16_1_1SessionManager.html" target="_top" xlink:title=" ">
<polygon fill="white" stroke="#666666" points="361,-116 203,-116 203,-86 361,-86 361,-116"/>
<text text-anchor="start" x="211" y="-104" font-family="Helvetica,sans-Serif" font-size="10.00">com.teragrep.cfe_16.Session</text>
<text text-anchor="middle" x="282" y="-93" font-family="Helvetica,sans-Serif" font-size="10.00">Manager</text>
</a>
</g>
</g>
<!-- Node0&#45;&gt;Node3 -->
<g id="edge7_Node000000_Node000003" class="edge">
<title>Node0&#45;&gt;Node3</title>
<g id="a_edge7_Node000000_Node000003"><a xlink:title=" ">
<path fill="none" stroke="#63b8ff" d="M148.51,-101C166.23,-101 185.04,-101 202.76,-101"/>
<polygon fill="#63b8ff" stroke="#63b8ff" points="148.21,-97.5 138.21,-101 148.21,-104.5 148.21,-97.5"/>
</a>
</g>
</g>
<!-- Node2 -->
<g id="Node000002" class="node">
<title>Node2</title>
<g id="a_Node000002"><a xlink:title=" ">
<polygon fill="#e0e0e0" stroke="#999999" points="100,-67.5 38,-67.5 38,-48.5 100,-48.5 100,-67.5"/>
<text text-anchor="middle" x="69" y="-55.5" font-family="Helvetica,sans-Serif" font-size="10.00">Runnable</text>
</a>
</g>
</g>
<!-- Node2&#45;&gt;Node1 -->
<g id="edge8_Node000002_Node000001" class="edge">
<title>Node2&#45;&gt;Node1</title>
<g id="a_edge8_Node000002_Node000001"><a xlink:title=" ">
<path fill="none" stroke="#63b8ff" d="M110.43,-58C128.64,-58 151.09,-58 173.66,-58"/>
<polygon fill="#63b8ff" stroke="#63b8ff" points="110.23,-54.5 100.23,-58 110.23,-61.5 110.23,-54.5"/>
</a>
</g>
</g>
<!-- Node2&#45;&gt;Node3 -->
<g id="edge9_Node000002_Node000003" class="edge">
<title>Node2&#45;&gt;Node3</title>
<g id="a_edge9_Node000002_Node000003"><a xlink:title=" ">
<path fill="none" stroke="#63b8ff" d="M110.21,-66.19C137.56,-71.77 174.55,-79.31 207.12,-85.94"/>
<polygon fill="#63b8ff" stroke="#63b8ff" points="110.73,-62.73 100.23,-64.16 109.33,-69.59 110.73,-62.73"/>
</a>
</g>
</g>
<!-- Node4 -->
<g id="Node000004" class="node">
<title>Node4</title>
<g id="a_Node000004"><a xlink:href="classcom_1_1teragrep_1_1cfe__16_1_1TestClient.html" target="_top" xlink:title="A multithreaded load test client for the cfe_16 server.">
<polygon fill="white" stroke="#666666" points="352,-30 212,-30 212,0 352,0 352,-30"/>
<text text-anchor="start" x="220" y="-18" font-family="Helvetica,sans-Serif" font-size="10.00">com.teragrep.cfe_16.Test</text>
<text text-anchor="middle" x="282" y="-7" font-family="Helvetica,sans-Serif" font-size="10.00">Client</text>
</a>
</g>
</g>
<!-- Node2&#45;&gt;Node4 -->
<g id="edge10_Node000002_Node000004" class="edge">
<title>Node2&#45;&gt;Node4</title>
<g id="a_edge10_Node000002_Node000004"><a xlink:title=" ">
<path fill="none" stroke="#63b8ff" d="M110.26,-49.79C138.87,-43.96 178.01,-35.99 211.6,-29.14"/>
<polygon fill="#63b8ff" stroke="#63b8ff" points="109.33,-46.41 100.23,-51.84 110.73,-53.27 109.33,-46.41"/>
</a>
</g>
</g>
</g>
</svg>
