<?xml version="1.0" encoding="UTF-8" standalone="no"?>
<!DOCTYPE svg PUBLIC "-//W3C//DTD SVG 1.1//EN"
 "http://www.w3.org/Graphics/SVG/1.1/DTD/svg11.dtd">
<!-- Generated by graphviz version 2.43.0 (0)
 -->
<!-- Title: com.teragrep.cfe_16.connection.RelpConnection Pages: 1 -->
<svg width="768pt" height="80pt"
 viewBox="0.00 0.00 768.00 79.58" xmlns="http://www.w3.org/2000/svg" xmlns:xlink="http://www.w3.org/1999/xlink">
<g id="graph0" class="graph" transform="scale(1 1) rotate(0) translate(4 75.58)">
<title>com.teragrep.cfe_16.connection.RelpConnection</title>
<!-- Node1 -->
<g id="Node000001" class="node">
<title>Node1</title>
<g id="a_Node000001"><a xlink:title=" ">
<polygon fill="#999999" stroke="#666666" points="760,-66 584,-66 584,-36 760,-36 760,-66"/>
<text text-anchor="start" x="592" y="-54" font-family="Helvetica,sans-Serif" font-size="10.00">com.teragrep.cfe_16.connection.</text>
<text text-anchor="middle" x="672" y="-43" font-family="Helvetica,sans-Serif" font-size="10.00">RelpConnection</text>
</a>
</g>
</g>
<!-- Node2 -->
<g id="Node000002" class="node">
<title>Node2</title>
<g id="a_Node000002"><a xlink:href="classcom_1_1teragrep_1_1cfe__16_1_1connection_1_1AbstractConnection.html" target="_top" xlink:title="An abstract connection class for sending batch messages.">
<polygon fill="white" stroke="#666666" points="278,-66 102,-66 102,-36 278,-36 278,-66"/>
<text text-anchor="start" x="110" y="-54" font-family="Helvetica,sans-Serif" font-size="10.00">com.teragrep.cfe_16.connection.</text>
<text text-anchor="middle" x="190" y="-43" font-family="Helvetica,sans-Serif" font-size="10.00">AbstractConnection</text>
</a>
</g>
</g>
<!-- Node2&#45;&gt;Node1 -->
<g id="edge1_Node000001_Node000002" class="edge">
<title>Node2&#45;&gt;Node1</title>
<g id="a_edge1_Node000001_Node000002"><a xlink:title=" ">
<path fill="none" stroke="#63b8ff" d="M288.37,-65.62C297.36,-66.59 306.34,-67.41 315,-68 393.04,-73.32 412.86,-71.68 491,-68 521.26,-66.57 554.28,-63.81 583.68,-60.91"/>
<polygon fill="#63b8ff" stroke="#63b8ff" points="288.57,-62.12 278.24,-64.48 287.78,-69.08 288.57,-62.12"/>
</a>
</g>
</g>
<!-- Node4 -->
<g id="Node000004" class="node">
<title>Node4</title>
<g id="a_Node000004"><a xlink:href="classcom_1_1teragrep_1_1cfe__16_1_1connection_1_1RelpConnection.html" target="_top" xlink:title=" ">
<polygon fill="white" stroke="#666666" points="491,-30 315,-30 315,0 491,0 491,-30"/>
<text text-anchor="start" x="323" y="-18" font-family="Helvetica,sans-Serif" font-size="10.00">com.teragrep.cfe_16.connection.</text>
<text text-anchor="middle" x="403" y="-7" font-family="Helvetica,sans-Serif" font-size="10.00">RelpConnection</text>
</a>
</g>
</g>
<!-- Node2&#45;&gt;Node4 -->
<g id="edge4_Node000004_Node000002" class="edge">
<title>Node2&#45;&gt;Node4</title>
<g id="a_edge4_Node000004_Node000002"><a xlink:title=" ">
<path fill="none" stroke="#63b8ff" d="M288.07,-34.44C296.99,-32.92 305.99,-31.38 314.82,-29.87"/>
<polygon fill="#63b8ff" stroke="#63b8ff" points="287.31,-31.02 278.04,-36.15 288.49,-37.92 287.31,-31.02"/>
</a>
</g>
</g>
<!-- Node3 -->
<g id="Node000003" class="node">
<title>Node3</title>
<g id="a_Node000003"><a xlink:title=" ">
<polygon fill="white" stroke="#666666" points="65,-60.5 0,-60.5 0,-41.5 65,-41.5 65,-60.5"/>
<text text-anchor="middle" x="32.5" y="-48.5" font-family="Helvetica,sans-Serif" font-size="10.00">Closeable</text>
</a>
</g>
</g>
<!-- Node3&#45;&gt;Node2 -->
<g id="edge2_Node000002_Node000003" class="edge">
<title>Node3&#45;&gt;Node2</title>
<g id="a_edge2_Node000002_Node000003"><a xlink:title=" ">
<path fill="none" stroke="#63b8ff" d="M75.45,-51C83.75,-51 92.75,-51 101.93,-51"/>
<polygon fill="#63b8ff" stroke="#63b8ff" points="75.34,-47.5 65.34,-51 75.34,-54.5 75.34,-47.5"/>
</a>
</g>
</g>
<!-- Node4&#45;&gt;Node1 -->
<g id="edge3_Node000001_Node000004" class="edge">
<title>Node4&#45;&gt;Node1</title>
<g id="a_edge3_Node000001_Node000004"><a xlink:title=" ">
<path fill="none" stroke="#9a32cd" stroke-dasharray="5,2" d="M501.27,-28.11C528.2,-31.75 557.27,-35.67 583.61,-39.22"/>
<polygon fill="#9a32cd" stroke="#9a32cd" points="501.43,-24.61 491.06,-26.74 500.5,-31.54 501.43,-24.61"/>
</a>
</g>
<text text-anchor="middle" x="537.5" y="-40" font-family="Helvetica,sans-Serif" font-size="10.00" fill="grey"> connection</text>
</g>
<!-- Node4&#45;&gt;Node4 -->
<g id="edge5_Node000004_Node000004" class="edge">
<title>Node4&#45;&gt;Node4</title>
<g id="a_edge5_Node000004_Node000004"><a xlink:title=" ">
<path fill="none" stroke="#9a32cd" stroke-dasharray="5,2" d="M384.45,-40.6C386.98,-44.97 393.17,-48 403,-48 419.56,-48 425.77,-39.41 421.63,-30.28"/>
<polygon fill="#9a32cd" stroke="#9a32cd" points="387.94,-40.25 384.37,-30.28 380.94,-40.3 387.94,-40.25"/>
</a>
</g>
<text text-anchor="middle" x="403" y="-51" font-family="Helvetica,sans-Serif" font-size="10.00" fill="grey"> connection</text>
</g>
</g>
</svg>
