<?xml version="1.0" encoding="UTF-8" standalone="no"?>
<!DOCTYPE svg PUBLIC "-//W3C//DTD SVG 1.1//EN"
 "http://www.w3.org/Graphics/SVG/1.1/DTD/svg11.dtd">
<!-- Generated by graphviz version 2.43.0 (0)
 -->
<!-- Title: Graphical Class Hierarchy Pages: 1 -->
<svg width="497pt" height="134pt"
 viewBox="0.00 0.00 497.00 134.00" xmlns="http://www.w3.org/2000/svg" xmlns:xlink="http://www.w3.org/1999/xlink">
<g id="graph0" class="graph" transform="scale(1 1) rotate(0) translate(4 130)">
<title>Graphical Class Hierarchy</title>
<!-- Node0 -->
<g id="Node000000" class="node">
<title>Node0</title>
<g id="a_Node000000"><a xlink:title=" ">
<polygon fill="#e0e0e0" stroke="#999999" points="65,-72.5 0,-72.5 0,-53.5 65,-53.5 65,-72.5"/>
<text text-anchor="middle" x="32.5" y="-60.5" font-family="Helvetica,sans-Serif" font-size="10.00">Closeable</text>
</a>
</g>
</g>
<!-- Node1 -->
<g id="Node000001" class="node">
<title>Node1</title>
<g id="a_Node000001"><a xlink:href="classcom_1_1teragrep_1_1cfe__16_1_1connection_1_1AbstractConnection.html" target="_top" xlink:title="An abstract connection class for sending batch messages.">
<polygon fill="white" stroke="#666666" points="277,-78 101,-78 101,-48 277,-48 277,-78"/>
<text text-anchor="start" x="109" y="-66" font-family="Helvetica,sans-Serif" font-size="10.00">com.teragrep.cfe_16.connection.</text>
<text text-anchor="middle" x="189" y="-55" font-family="Helvetica,sans-Serif" font-size="10.00">AbstractConnection</text>
</a>
</g>
</g>
<!-- Node0&#45;&gt;Node1 -->
<g id="edge8_Node000000_Node000001" class="edge">
<title>Node0&#45;&gt;Node1</title>
<g id="a_edge8_Node000000_Node000001"><a xlink:title=" ">
<path fill="none" stroke="#63b8ff" d="M75.28,-63C83.31,-63 91.99,-63 100.85,-63"/>
<polygon fill="#63b8ff" stroke="#63b8ff" points="75.14,-59.5 65.14,-63 75.14,-66.5 75.14,-59.5"/>
</a>
</g>
</g>
<!-- Node2 -->
<g id="Node000002" class="node">
<title>Node2</title>
<g id="a_Node000002"><a xlink:href="classcom_1_1teragrep_1_1cfe__16_1_1connection_1_1RelpConnection.html" target="_top" xlink:title=" ">
<polygon fill="white" stroke="#666666" points="489,-126 313,-126 313,-96 489,-96 489,-126"/>
<text text-anchor="start" x="321" y="-114" font-family="Helvetica,sans-Serif" font-size="10.00">com.teragrep.cfe_16.connection.</text>
<text text-anchor="middle" x="401" y="-103" font-family="Helvetica,sans-Serif" font-size="10.00">RelpConnection</text>
</a>
</g>
</g>
<!-- Node1&#45;&gt;Node2 -->
<g id="edge9_Node000001_Node000002" class="edge">
<title>Node1&#45;&gt;Node2</title>
<g id="a_edge9_Node000001_Node000002"><a xlink:title=" ">
<path fill="none" stroke="#63b8ff" d="M265.7,-80.3C288.17,-85.44 312.59,-91.02 334.36,-96"/>
<polygon fill="#63b8ff" stroke="#63b8ff" points="266.4,-76.87 255.87,-78.06 264.84,-83.7 266.4,-76.87"/>
</a>
</g>
</g>
<!-- Node3 -->
<g id="Node000003" class="node">
<title>Node3</title>
<g id="a_Node000003"><a xlink:href="classcom_1_1teragrep_1_1cfe__16_1_1connection_1_1TcpConnection.html" target="_top" xlink:title=" ">
<polygon fill="white" stroke="#666666" points="489,-78 313,-78 313,-48 489,-48 489,-78"/>
<text text-anchor="start" x="321" y="-66" font-family="Helvetica,sans-Serif" font-size="10.00">com.teragrep.cfe_16.connection.</text>
<text text-anchor="middle" x="401" y="-55" font-family="Helvetica,sans-Serif" font-size="10.00">TcpConnection</text>
</a>
</g>
</g>
<!-- Node1&#45;&gt;Node3 -->
<g id="edge10_Node000001_Node000003" class="edge">
<title>Node1&#45;&gt;Node3</title>
<g id="a_edge10_Node000001_Node000003"><a xlink:title=" ">
<path fill="none" stroke="#63b8ff" d="M287.46,-63C295.88,-63 304.37,-63 312.7,-63"/>
<polygon fill="#63b8ff" stroke="#63b8ff" points="287.23,-59.5 277.23,-63 287.23,-66.5 287.23,-59.5"/>
</a>
</g>
</g>
<!-- Node4 -->
<g id="Node000004" class="node">
<title>Node4</title>
<g id="a_Node000004"><a xlink:href="classcom_1_1teragrep_1_1cfe__16_1_1connection_1_1UdpConnection.html" target="_top" xlink:title=" ">
<polygon fill="white" stroke="#666666" points="489,-30 313,-30 313,0 489,0 489,-30"/>
<text text-anchor="start" x="321" y="-18" font-family="Helvetica,sans-Serif" font-size="10.00">com.teragrep.cfe_16.connection.</text>
<text text-anchor="middle" x="401" y="-7" font-family="Helvetica,sans-Serif" font-size="10.00">UdpConnection</text>
</a>
</g>
</g>
<!-- Node1&#45;&gt;Node4 -->
<g id="edge11_Node000001_Node000004" class="edge">
<title>Node1&#45;&gt;Node4</title>
<g id="a_edge11_Node000001_Node000004"><a xlink:title=" ">
<path fill="none" stroke="#63b8ff" d="M265.7,-45.7C288.17,-40.56 312.59,-34.98 334.36,-30"/>
<polygon fill="#63b8ff" stroke="#63b8ff" points="264.84,-42.3 255.87,-47.94 266.4,-49.13 264.84,-42.3"/>
</a>
</g>
</g>
</g>
</svg>
