<?xml version="1.0" encoding="UTF-8" standalone="no"?>
<!DOCTYPE svg PUBLIC "-//W3C//DTD SVG 1.1//EN"
 "http://www.w3.org/Graphics/SVG/1.1/DTD/svg11.dtd">
<!-- Generated by graphviz version 2.43.0 (0)
 -->
<!-- Title: com.teragrep.cfe_16.record.HECRecordImpl.structuredDataParams Pages: 1 -->
<svg width="429pt" height="86pt"
 viewBox="0.00 0.00 429.00 86.00" xmlns="http://www.w3.org/2000/svg" xmlns:xlink="http://www.w3.org/1999/xlink">
<g id="graph0" class="graph" transform="scale(1 1) rotate(0) translate(4 82)">
<title>com.teragrep.cfe_16.record.HECRecordImpl.structuredDataParams</title>
<!-- Node1 -->
<g id="Node000001" class="node">
<title>Node1</title>
<g id="a_Node000001"><a xlink:title=" ">
<polygon fill="#999999" stroke="#666666" points="421,-54 217,-54 217,-24 421,-24 421,-54"/>
<text text-anchor="start" x="225" y="-42" font-family="Helvetica,sans-Serif" font-size="10.00">com.teragrep.cfe_16.record.</text>
<text text-anchor="middle" x="319" y="-31" font-family="Helvetica,sans-Serif" font-size="10.00">HECRecordImpl.structuredDataParams</text>
</a>
</g>
</g>
<!-- Node2 -->
<g id="Node000002" class="node">
<title>Node2</title>
<g id="a_Node000002"><a xlink:href="classcom_1_1teragrep_1_1cfe__16_1_1record_1_1HECRecordImpl.html#ae4c1fc58abcc4e786664a143a8baca9f" target="_top" xlink:title=" ">
<polygon fill="white" stroke="#666666" points="181,-78 0,-78 0,-48 181,-48 181,-78"/>
<text text-anchor="start" x="8" y="-66" font-family="Helvetica,sans-Serif" font-size="10.00">com.teragrep.cfe_16.record.</text>
<text text-anchor="middle" x="90.5" y="-55" font-family="Helvetica,sans-Serif" font-size="10.00">HECRecordImpl.toSyslogMessage</text>
</a>
</g>
</g>
<!-- Node1&#45;&gt;Node2 -->
<g id="edge1_Node000001_Node000002" class="edge">
<title>Node1&#45;&gt;Node2</title>
<g id="a_edge1_Node000001_Node000002"><a xlink:title=" ">
<path fill="none" stroke="#63b8ff" d="M206.71,-50.79C198.2,-51.69 189.68,-52.6 181.33,-53.48"/>
<polygon fill="#63b8ff" stroke="#63b8ff" points="207.1,-54.27 216.67,-49.74 206.36,-47.31 207.1,-54.27"/>
</a>
</g>
</g>
<!-- Node3 -->
<g id="Node000003" class="node">
<title>Node3</title>
<g id="a_Node000003"><a xlink:href="classcom_1_1teragrep_1_1cfe__16_1_1record_1_1HECRecordImpl.html#a0f19a846863bd0c3860b86914e98b7a0" target="_top" xlink:title=" ">
<polygon fill="white" stroke="#666666" points="181,-30 0,-30 0,0 181,0 181,-30"/>
<text text-anchor="start" x="8" y="-18" font-family="Helvetica,sans-Serif" font-size="10.00">com.teragrep.cfe_16.record.</text>
<text text-anchor="middle" x="90.5" y="-7" font-family="Helvetica,sans-Serif" font-size="10.00">HECRecordImpl.toSyslogMessage</text>
</a>
</g>
</g>
<!-- Node1&#45;&gt;Node3 -->
<g id="edge2_Node000001_Node000003" class="edge">
<title>Node1&#45;&gt;Node3</title>
<g id="a_edge2_Node000001_Node000003"><a xlink:title=" ">
<path fill="none" stroke="#63b8ff" d="M206.71,-27.21C198.2,-26.31 189.68,-25.4 181.33,-24.52"/>
<polygon fill="#63b8ff" stroke="#63b8ff" points="206.36,-30.69 216.67,-28.26 207.1,-23.73 206.36,-30.69"/>
</a>
</g>
</g>
</g>
</svg>
