<?xml version="1.0" encoding="UTF-8" standalone="no"?>
<!DOCTYPE svg PUBLIC "-//W3C//DTD SVG 1.1//EN"
 "http://www.w3.org/Graphics/SVG/1.1/DTD/svg11.dtd">
<!-- Generated by graphviz version 2.43.0 (0)
 -->
<!-- Title: com.teragrep.cfe_16.event.time.JsonHECTimeImplWithFallback.asInstant Pages: 1 -->
<svg width="454pt" height="76pt"
 viewBox="0.00 0.00 454.00 75.50" xmlns="http://www.w3.org/2000/svg" xmlns:xlink="http://www.w3.org/1999/xlink">
<g id="graph0" class="graph" transform="scale(1 1) rotate(0) translate(4 71.5)">
<title>com.teragrep.cfe_16.event.time.JsonHECTimeImplWithFallback.asInstant</title>
<!-- Node1 -->
<g id="Node000001" class="node">
<title>Node1</title>
<g id="a_Node000001"><a xlink:title=" ">
<polygon fill="#999999" stroke="#666666" points="214,-45.5 0,-45.5 0,-15.5 214,-15.5 214,-45.5"/>
<text text-anchor="start" x="8" y="-33.5" font-family="Helvetica,sans-Serif" font-size="10.00">com.teragrep.cfe_16.event.time.</text>
<text text-anchor="middle" x="107" y="-22.5" font-family="Helvetica,sans-Serif" font-size="10.00">JsonHECTimeImplWithFallback.asInstant</text>
</a>
</g>
</g>
<!-- Node2 -->
<g id="Node000002" class="node">
<title>Node2</title>
<g id="a_Node000002"><a xlink:href="interfacecom_1_1teragrep_1_1cfe__16_1_1event_1_1time_1_1JsonHECTime.html#a65e5e47d6c946a59edc22c1647c05097" target="_top" xlink:title=" ">
<polygon fill="white" stroke="#666666" points="436,-67.5 260,-67.5 260,-37.5 436,-37.5 436,-67.5"/>
<text text-anchor="start" x="268" y="-55.5" font-family="Helvetica,sans-Serif" font-size="10.00">com.teragrep.cfe_16.event.time.</text>
<text text-anchor="middle" x="348" y="-44.5" font-family="Helvetica,sans-Serif" font-size="10.00">JsonHECTime.asInstant</text>
</a>
</g>
</g>
<!-- Node1&#45;&gt;Node2 -->
<g id="edge1_Node000001_Node000002" class="edge">
<title>Node1&#45;&gt;Node2</title>
<g id="a_edge1_Node000001_Node000002"><a xlink:title=" ">
<path fill="none" stroke="#63b8ff" d="M214.22,-40.28C225.98,-41.36 237.92,-42.46 249.57,-43.53"/>
<polygon fill="#63b8ff" stroke="#63b8ff" points="249.44,-47.03 259.72,-44.47 250.08,-40.06 249.44,-47.03"/>
</a>
</g>
</g>
<!-- Node3 -->
<g id="Node000003" class="node">
<title>Node3</title>
<g id="a_Node000003"><a xlink:href="interfacecom_1_1teragrep_1_1cfe__16_1_1Stubable.html#a8e854db1814eeb807cd9049776c33923" target="_top" xlink:title=" ">
<polygon fill="white" stroke="#666666" points="446,-19 250,-19 250,0 446,0 446,-19"/>
<text text-anchor="middle" x="348" y="-7" font-family="Helvetica,sans-Serif" font-size="10.00">com.teragrep.cfe_16.Stubable.isStub</text>
</a>
</g>
</g>
<!-- Node1&#45;&gt;Node3 -->
<g id="edge2_Node000001_Node000003" class="edge">
<title>Node1&#45;&gt;Node3</title>
<g id="a_edge2_Node000001_Node000003"><a xlink:title=" ">
<path fill="none" stroke="#63b8ff" d="M214.22,-21.17C222.64,-20.43 231.15,-19.68 239.58,-18.94"/>
<polygon fill="#63b8ff" stroke="#63b8ff" points="240.15,-22.4 249.81,-18.04 239.54,-15.43 240.15,-22.4"/>
</a>
</g>
</g>
</g>
</svg>
