<?xml version="1.0" encoding="UTF-8" standalone="no"?>
<!DOCTYPE svg PUBLIC "-//W3C//DTD SVG 1.1//EN"
 "http://www.w3.org/Graphics/SVG/1.1/DTD/svg11.dtd">
<!-- Generated by graphviz version 2.43.0 (0)
 -->
<!-- Title: com.teragrep.cfe_16.event.time.JsonHECTimeImplWithFallback.source Pages: 1 -->
<svg width="441pt" height="77pt"
 viewBox="0.00 0.00 441.00 77.00" xmlns="http://www.w3.org/2000/svg" xmlns:xlink="http://www.w3.org/1999/xlink">
<g id="graph0" class="graph" transform="scale(1 1) rotate(0) translate(4 73)">
<title>com.teragrep.cfe_16.event.time.JsonHECTimeImplWithFallback.source</title>
<!-- Node1 -->
<g id="Node000001" class="node">
<title>Node1</title>
<g id="a_Node000001"><a xlink:title=" ">
<polygon fill="#999999" stroke="#666666" points="201,-51 0,-51 0,-21 201,-21 201,-51"/>
<text text-anchor="start" x="8" y="-39" font-family="Helvetica,sans-Serif" font-size="10.00">com.teragrep.cfe_16.event.time.</text>
<text text-anchor="middle" x="100.5" y="-28" font-family="Helvetica,sans-Serif" font-size="10.00">JsonHECTimeImplWithFallback.source</text>
</a>
</g>
</g>
<!-- Node1&#45;&gt;Node1 -->
<g id="edge3_Node000001_Node000001" class="edge">
<title>Node1&#45;&gt;Node1</title>
<g id="a_edge3_Node000001_Node000001"><a xlink:title=" ">
<path fill="none" stroke="#63b8ff" d="M59.37,-51.28C50.23,-60.41 63.94,-69 100.5,-69 122.21,-69 135.86,-65.97 141.46,-61.6"/>
<polygon fill="#63b8ff" stroke="#63b8ff" points="144.96,-61.33 141.63,-51.28 137.96,-61.21 144.96,-61.33"/>
</a>
</g>
</g>
<!-- Node2 -->
<g id="Node000002" class="node">
<title>Node2</title>
<g id="a_Node000002"><a xlink:href="interfacecom_1_1teragrep_1_1cfe__16_1_1Stubable.html#a8e854db1814eeb807cd9049776c33923" target="_top" xlink:title=" ">
<polygon fill="white" stroke="#666666" points="433,-67.5 237,-67.5 237,-48.5 433,-48.5 433,-67.5"/>
<text text-anchor="middle" x="335" y="-55.5" font-family="Helvetica,sans-Serif" font-size="10.00">com.teragrep.cfe_16.Stubable.isStub</text>
</a>
</g>
</g>
<!-- Node1&#45;&gt;Node2 -->
<g id="edge1_Node000001_Node000002" class="edge">
<title>Node1&#45;&gt;Node2</title>
<g id="a_edge1_Node000001_Node000002"><a xlink:title=" ">
<path fill="none" stroke="#63b8ff" d="M201.11,-45.43C209.62,-46.23 218.24,-47.05 226.8,-47.86"/>
<polygon fill="#63b8ff" stroke="#63b8ff" points="226.52,-51.35 236.81,-48.8 227.18,-44.38 226.52,-51.35"/>
</a>
</g>
</g>
<!-- Node3 -->
<g id="Node000003" class="node">
<title>Node3</title>
<g id="a_Node000003"><a xlink:href="interfacecom_1_1teragrep_1_1cfe__16_1_1event_1_1time_1_1JsonHECTime.html#a15e12bdc60f26271dfeae97dde10d877" target="_top" xlink:title=" ">
<polygon fill="white" stroke="#666666" points="423,-30 247,-30 247,0 423,0 423,-30"/>
<text text-anchor="start" x="255" y="-18" font-family="Helvetica,sans-Serif" font-size="10.00">com.teragrep.cfe_16.event.time.</text>
<text text-anchor="middle" x="335" y="-7" font-family="Helvetica,sans-Serif" font-size="10.00">JsonHECTime.source</text>
</a>
</g>
</g>
<!-- Node1&#45;&gt;Node3 -->
<g id="edge2_Node000001_Node000003" class="edge">
<title>Node1&#45;&gt;Node3</title>
<g id="a_edge2_Node000001_Node000003"><a xlink:title=" ">
<path fill="none" stroke="#63b8ff" d="M201.11,-27C212.84,-25.94 224.79,-24.86 236.49,-23.81"/>
<polygon fill="#63b8ff" stroke="#63b8ff" points="237.04,-27.27 246.69,-22.89 236.41,-20.3 237.04,-27.27"/>
</a>
</g>
</g>
</g>
</svg>
