<?xml version="1.0" encoding="UTF-8" standalone="no"?>
<!DOCTYPE svg PUBLIC "-//W3C//DTD SVG 1.1//EN"
 "http://www.w3.org/Graphics/SVG/1.1/DTD/svg11.dtd">
<!-- Generated by graphviz version 2.43.0 (0)
 -->
<!-- Title: com.teragrep.cfe_16.record.HECRecordImpl.time Pages: 1 -->
<svg width="619pt" height="95pt"
 viewBox="0.00 0.00 619.00 95.00" xmlns="http://www.w3.org/2000/svg" xmlns:xlink="http://www.w3.org/1999/xlink">
<g id="graph0" class="graph" transform="scale(1 1) rotate(0) translate(4 91)">
<title>com.teragrep.cfe_16.record.HECRecordImpl.time</title>
<!-- Node1 -->
<g id="Node000001" class="node">
<title>Node1</title>
<g id="a_Node000001"><a xlink:title=" ">
<polygon fill="#999999" stroke="#666666" points="611,-54 457,-54 457,-24 611,-24 611,-54"/>
<text text-anchor="start" x="465" y="-42" font-family="Helvetica,sans-Serif" font-size="10.00">com.teragrep.cfe_16.record.</text>
<text text-anchor="middle" x="534" y="-31" font-family="Helvetica,sans-Serif" font-size="10.00">HECRecordImpl.time</text>
</a>
</g>
</g>
<!-- Node2 -->
<g id="Node000002" class="node">
<title>Node2</title>
<g id="a_Node000002"><a xlink:href="classcom_1_1teragrep_1_1cfe__16_1_1record_1_1HECRecordImpl.html#a4596937b9a26de6021def807f5fa9101" target="_top" xlink:title=" ">
<polygon fill="white" stroke="#666666" points="421,-54 217,-54 217,-24 421,-24 421,-54"/>
<text text-anchor="start" x="225" y="-42" font-family="Helvetica,sans-Serif" font-size="10.00">com.teragrep.cfe_16.record.</text>
<text text-anchor="middle" x="319" y="-31" font-family="Helvetica,sans-Serif" font-size="10.00">HECRecordImpl.structuredDataParams</text>
</a>
</g>
</g>
<!-- Node1&#45;&gt;Node2 -->
<g id="edge1_Node000001_Node000002" class="edge">
<title>Node1&#45;&gt;Node2</title>
<g id="a_edge1_Node000001_Node000002"><a xlink:title=" ">
<path fill="none" stroke="#63b8ff" d="M446.55,-39C438.14,-39 429.56,-39 421.02,-39"/>
<polygon fill="#63b8ff" stroke="#63b8ff" points="446.7,-42.5 456.7,-39 446.7,-35.5 446.7,-42.5"/>
</a>
</g>
</g>
<!-- Node3 -->
<g id="Node000003" class="node">
<title>Node3</title>
<g id="a_Node000003"><a xlink:href="classcom_1_1teragrep_1_1cfe__16_1_1record_1_1HECRecordImpl.html#ae4c1fc58abcc4e786664a143a8baca9f" target="_top" xlink:title=" ">
<polygon fill="white" stroke="#666666" points="181,-87 0,-87 0,-57 181,-57 181,-87"/>
<text text-anchor="start" x="8" y="-75" font-family="Helvetica,sans-Serif" font-size="10.00">com.teragrep.cfe_16.record.</text>
<text text-anchor="middle" x="90.5" y="-64" font-family="Helvetica,sans-Serif" font-size="10.00">HECRecordImpl.toSyslogMessage</text>
</a>
</g>
</g>
<!-- Node1&#45;&gt;Node3 -->
<g id="edge4_Node000001_Node000003" class="edge">
<title>Node1&#45;&gt;Node3</title>
<g id="a_edge4_Node000001_Node000003"><a xlink:title=" ">
<path fill="none" stroke="#63b8ff" d="M462.95,-56.07C449.12,-58.86 434.66,-61.36 421,-63 340.32,-72.66 247.76,-74.38 181.33,-73.98"/>
<polygon fill="#63b8ff" stroke="#63b8ff" points="463.81,-59.47 472.89,-54 462.39,-52.62 463.81,-59.47"/>
</a>
</g>
</g>
<!-- Node4 -->
<g id="Node000004" class="node">
<title>Node4</title>
<g id="a_Node000004"><a xlink:href="classcom_1_1teragrep_1_1cfe__16_1_1record_1_1HECRecordImpl.html#a0f19a846863bd0c3860b86914e98b7a0" target="_top" xlink:title=" ">
<polygon fill="white" stroke="#666666" points="181,-30 0,-30 0,0 181,0 181,-30"/>
<text text-anchor="start" x="8" y="-18" font-family="Helvetica,sans-Serif" font-size="10.00">com.teragrep.cfe_16.record.</text>
<text text-anchor="middle" x="90.5" y="-7" font-family="Helvetica,sans-Serif" font-size="10.00">HECRecordImpl.toSyslogMessage</text>
</a>
</g>
</g>
<!-- Node1&#45;&gt;Node4 -->
<g id="edge5_Node000001_Node000004" class="edge">
<title>Node1&#45;&gt;Node4</title>
<g id="a_edge5_Node000001_Node000004"><a xlink:title=" ">
<path fill="none" stroke="#63b8ff" d="M463.95,-21.82C449.83,-18.98 435,-16.48 421,-15 340.22,-6.44 247.68,-7.38 181.27,-9.91"/>
<polygon fill="#63b8ff" stroke="#63b8ff" points="463.58,-25.32 474.09,-23.94 465.02,-18.47 463.58,-25.32"/>
</a>
</g>
</g>
<!-- Node2&#45;&gt;Node3 -->
<g id="edge2_Node000002_Node000003" class="edge">
<title>Node2&#45;&gt;Node3</title>
<g id="a_edge2_Node000002_Node000003"><a xlink:title=" ">
<path fill="none" stroke="#63b8ff" d="M206.71,-55.21C198.2,-56.45 189.68,-57.7 181.33,-58.91"/>
<polygon fill="#63b8ff" stroke="#63b8ff" points="207.28,-58.67 216.67,-53.76 206.27,-51.74 207.28,-58.67"/>
</a>
</g>
</g>
<!-- Node2&#45;&gt;Node4 -->
<g id="edge3_Node000002_Node000004" class="edge">
<title>Node2&#45;&gt;Node4</title>
<g id="a_edge3_Node000002_Node000004"><a xlink:title=" ">
<path fill="none" stroke="#63b8ff" d="M206.71,-27.21C198.2,-26.31 189.68,-25.4 181.33,-24.52"/>
<polygon fill="#63b8ff" stroke="#63b8ff" points="206.36,-30.69 216.67,-28.26 207.1,-23.73 206.36,-30.69"/>
</a>
</g>
</g>
</g>
</svg>
