<?xml version="1.0" encoding="UTF-8" standalone="no"?>
<!DOCTYPE svg PUBLIC "-//W3C//DTD SVG 1.1//EN"
 "http://www.w3.org/Graphics/SVG/1.1/DTD/svg11.dtd">
<!-- Generated by graphviz version 2.43.0 (0)
 -->
<!-- Title: com.teragrep.cfe_16.event.time.JsonHECTimeImplWithFallback.parsed Pages: 1 -->
<svg width="442pt" height="77pt"
 viewBox="0.00 0.00 442.00 77.00" xmlns="http://www.w3.org/2000/svg" xmlns:xlink="http://www.w3.org/1999/xlink">
<g id="graph0" class="graph" transform="scale(1 1) rotate(0) translate(4 73)">
<title>com.teragrep.cfe_16.event.time.JsonHECTimeImplWithFallback.parsed</title>
<!-- Node1 -->
<g id="Node000001" class="node">
<title>Node1</title>
<g id="a_Node000001"><a xlink:title=" ">
<polygon fill="#999999" stroke="#666666" points="202,-51 0,-51 0,-21 202,-21 202,-51"/>
<text text-anchor="start" x="8" y="-39" font-family="Helvetica,sans-Serif" font-size="10.00">com.teragrep.cfe_16.event.time.</text>
<text text-anchor="middle" x="101" y="-28" font-family="Helvetica,sans-Serif" font-size="10.00">JsonHECTimeImplWithFallback.parsed</text>
</a>
</g>
</g>
<!-- Node1&#45;&gt;Node1 -->
<g id="edge3_Node000001_Node000001" class="edge">
<title>Node1&#45;&gt;Node1</title>
<g id="a_edge3_Node000001_Node000001"><a xlink:title=" ">
<path fill="none" stroke="#63b8ff" d="M59.87,-51.28C50.73,-60.41 64.44,-69 101,-69 122.71,-69 136.36,-65.97 141.96,-61.6"/>
<polygon fill="#63b8ff" stroke="#63b8ff" points="145.46,-61.33 142.13,-51.28 138.46,-61.21 145.46,-61.33"/>
</a>
</g>
</g>
<!-- Node2 -->
<g id="Node000002" class="node">
<title>Node2</title>
<g id="a_Node000002"><a xlink:href="interfacecom_1_1teragrep_1_1cfe__16_1_1Stubable.html#a8e854db1814eeb807cd9049776c33923" target="_top" xlink:title=" ">
<polygon fill="white" stroke="#666666" points="434,-67.5 238,-67.5 238,-48.5 434,-48.5 434,-67.5"/>
<text text-anchor="middle" x="336" y="-55.5" font-family="Helvetica,sans-Serif" font-size="10.00">com.teragrep.cfe_16.Stubable.isStub</text>
</a>
</g>
</g>
<!-- Node1&#45;&gt;Node2 -->
<g id="edge1_Node000001_Node000002" class="edge">
<title>Node1&#45;&gt;Node2</title>
<g id="a_edge1_Node000001_Node000002"><a xlink:title=" ">
<path fill="none" stroke="#63b8ff" d="M202.17,-45.46C210.68,-46.26 219.3,-47.08 227.87,-47.88"/>
<polygon fill="#63b8ff" stroke="#63b8ff" points="227.59,-51.37 237.87,-48.83 228.25,-44.4 227.59,-51.37"/>
</a>
</g>
</g>
<!-- Node3 -->
<g id="Node000003" class="node">
<title>Node3</title>
<g id="a_Node000003"><a xlink:href="interfacecom_1_1teragrep_1_1cfe__16_1_1event_1_1time_1_1JsonHECTime.html#a446883e09e051b67d258dfa3bd9c94a2" target="_top" xlink:title=" ">
<polygon fill="white" stroke="#666666" points="424,-30 248,-30 248,0 424,0 424,-30"/>
<text text-anchor="start" x="256" y="-18" font-family="Helvetica,sans-Serif" font-size="10.00">com.teragrep.cfe_16.event.time.</text>
<text text-anchor="middle" x="336" y="-7" font-family="Helvetica,sans-Serif" font-size="10.00">JsonHECTime.parsed</text>
</a>
</g>
</g>
<!-- Node1&#45;&gt;Node3 -->
<g id="edge2_Node000001_Node000003" class="edge">
<title>Node1&#45;&gt;Node3</title>
<g id="a_edge2_Node000001_Node000003"><a xlink:title=" ">
<path fill="none" stroke="#63b8ff" d="M202.17,-26.97C213.9,-25.91 225.86,-24.84 237.55,-23.78"/>
<polygon fill="#63b8ff" stroke="#63b8ff" points="238.11,-27.25 247.75,-22.86 237.48,-20.28 238.11,-27.25"/>
</a>
</g>
</g>
</g>
</svg>
