<?xml version="1.0" encoding="UTF-8" standalone="no"?>
<!DOCTYPE svg PUBLIC "-//W3C//DTD SVG 1.1//EN"
 "http://www.w3.org/Graphics/SVG/1.1/DTD/svg11.dtd">
<!-- Generated by graphviz version 2.43.0 (0)
 -->
<!-- Title: com.teragrep.cfe_16.record.HECRecordImpl.toSyslogMessage Pages: 1 -->
<svg width="619pt" height="108pt"
 viewBox="0.00 0.00 619.00 108.00" xmlns="http://www.w3.org/2000/svg" xmlns:xlink="http://www.w3.org/1999/xlink">
<g id="graph0" class="graph" transform="scale(1 1) rotate(0) translate(4 104)">
<title>com.teragrep.cfe_16.record.HECRecordImpl.toSyslogMessage</title>
<!-- Node1 -->
<g id="Node000001" class="node">
<title>Node1</title>
<g id="a_Node000001"><a xlink:title=" ">
<polygon fill="#999999" stroke="#666666" points="181,-52 0,-52 0,-22 181,-22 181,-52"/>
<text text-anchor="start" x="8" y="-40" font-family="Helvetica,sans-Serif" font-size="10.00">com.teragrep.cfe_16.record.</text>
<text text-anchor="middle" x="90.5" y="-29" font-family="Helvetica,sans-Serif" font-size="10.00">HECRecordImpl.toSyslogMessage</text>
</a>
</g>
</g>
<!-- Node2 -->
<g id="Node000002" class="node">
<title>Node2</title>
<g id="a_Node000002"><a xlink:href="classcom_1_1teragrep_1_1cfe__16_1_1record_1_1HECRecordImpl.html#a4ad6f4f2bcc3094df9540b92857b2de7" target="_top" xlink:title=" ">
<polygon fill="white" stroke="#666666" points="396,-100 242,-100 242,-70 396,-70 396,-100"/>
<text text-anchor="start" x="250" y="-88" font-family="Helvetica,sans-Serif" font-size="10.00">com.teragrep.cfe_16.record.</text>
<text text-anchor="middle" x="319" y="-77" font-family="Helvetica,sans-Serif" font-size="10.00">HECRecordImpl.event</text>
</a>
</g>
</g>
<!-- Node1&#45;&gt;Node2 -->
<g id="edge1_Node000001_Node000002" class="edge">
<title>Node1&#45;&gt;Node2</title>
<g id="a_edge1_Node000001_Node000002"><a xlink:title=" ">
<path fill="none" stroke="#63b8ff" d="M162.54,-52.06C186.26,-57.08 212.86,-62.72 237.26,-67.89"/>
<polygon fill="#63b8ff" stroke="#63b8ff" points="236.7,-71.35 247.21,-70 238.15,-64.5 236.7,-71.35"/>
</a>
</g>
</g>
<!-- Node3 -->
<g id="Node000003" class="node">
<title>Node3</title>
<g id="a_Node000003"><a xlink:href="classcom_1_1teragrep_1_1cfe__16_1_1record_1_1HECRecordImpl.html#a4596937b9a26de6021def807f5fa9101" target="_top" xlink:title=" ">
<polygon fill="white" stroke="#666666" points="421,-52 217,-52 217,-22 421,-22 421,-52"/>
<text text-anchor="start" x="225" y="-40" font-family="Helvetica,sans-Serif" font-size="10.00">com.teragrep.cfe_16.record.</text>
<text text-anchor="middle" x="319" y="-29" font-family="Helvetica,sans-Serif" font-size="10.00">HECRecordImpl.structuredDataParams</text>
</a>
</g>
</g>
<!-- Node1&#45;&gt;Node3 -->
<g id="edge2_Node000001_Node000003" class="edge">
<title>Node1&#45;&gt;Node3</title>
<g id="a_edge2_Node000001_Node000003"><a xlink:title=" ">
<path fill="none" stroke="#63b8ff" d="M181.02,-37C189.46,-37 198.09,-37 206.7,-37"/>
<polygon fill="#63b8ff" stroke="#63b8ff" points="206.79,-40.5 216.79,-37 206.79,-33.5 206.79,-40.5"/>
</a>
</g>
</g>
<!-- Node4 -->
<g id="Node000004" class="node">
<title>Node4</title>
<g id="a_Node000004"><a xlink:href="classcom_1_1teragrep_1_1cfe__16_1_1record_1_1HECRecordImpl.html#abcff5ae8053dcbe49c57d07a6ec3cccd" target="_top" xlink:title=" ">
<polygon fill="white" stroke="#666666" points="611,-30 457,-30 457,0 611,0 611,-30"/>
<text text-anchor="start" x="465" y="-18" font-family="Helvetica,sans-Serif" font-size="10.00">com.teragrep.cfe_16.record.</text>
<text text-anchor="middle" x="534" y="-7" font-family="Helvetica,sans-Serif" font-size="10.00">HECRecordImpl.time</text>
</a>
</g>
</g>
<!-- Node1&#45;&gt;Node4 -->
<g id="edge4_Node000001_Node000004" class="edge">
<title>Node1&#45;&gt;Node4</title>
<g id="a_edge4_Node000001_Node000004"><a xlink:title=" ">
<path fill="none" stroke="#63b8ff" d="M157.6,-21.94C176.66,-18.25 197.57,-14.84 217,-13 307.26,-4.45 330.34,-12.19 421,-13 429.32,-13.07 437.98,-13.18 446.64,-13.3"/>
<polygon fill="#63b8ff" stroke="#63b8ff" points="446.74,-16.81 456.79,-13.46 446.84,-9.81 446.74,-16.81"/>
</a>
</g>
</g>
<!-- Node3&#45;&gt;Node4 -->
<g id="edge3_Node000003_Node000004" class="edge">
<title>Node3&#45;&gt;Node4</title>
<g id="a_edge3_Node000003_Node000004"><a xlink:title=" ">
<path fill="none" stroke="#63b8ff" d="M421.2,-26.55C429.74,-25.66 438.34,-24.78 446.75,-23.91"/>
<polygon fill="#63b8ff" stroke="#63b8ff" points="447.33,-27.37 456.92,-22.86 446.61,-20.4 447.33,-27.37"/>
</a>
</g>
</g>
</g>
</svg>
