<?xml version="1.0" encoding="UTF-8" standalone="no"?>
<!DOCTYPE svg PUBLIC "-//W3C//DTD SVG 1.1//EN"
 "http://www.w3.org/Graphics/SVG/1.1/DTD/svg11.dtd">
<!-- Generated by graphviz version 2.43.0 (0)
 -->
<!-- Title: Graphical Class Hierarchy Pages: 1 -->
<svg width="398pt" height="129pt"
 viewBox="0.00 0.00 398.00 129.00" xmlns="http://www.w3.org/2000/svg" xmlns:xlink="http://www.w3.org/1999/xlink">
<g id="graph0" class="graph" transform="scale(1 1) rotate(0) translate(4 125)">
<title>Graphical Class Hierarchy</title>
<!-- Node0 -->
<g id="Node000000" class="node">
<title>Node0</title>
<g id="a_Node000000"><a xlink:title=" ">
<polygon fill="#e0e0e0" stroke="#999999" points="112.5,-115.5 25.5,-115.5 25.5,-96.5 112.5,-96.5 112.5,-115.5"/>
<text text-anchor="middle" x="69" y="-103.5" font-family="Helvetica,sans-Serif" font-size="10.00">AutoCloseable</text>
</a>
</g>
</g>
<!-- Node1 -->
<g id="Node000001" class="node">
<title>Node1</title>
<g id="a_Node000001"><a xlink:href="classcom_1_1teragrep_1_1cfe__16_1_1server_1_1TestServer.html" target="_top" xlink:title=" ">
<polygon fill="white" stroke="#666666" points="358.5,-121 205.5,-121 205.5,-91 358.5,-91 358.5,-121"/>
<text text-anchor="start" x="213.5" y="-109" font-family="Helvetica,sans-Serif" font-size="10.00">com.teragrep.cfe_16.server.</text>
<text text-anchor="middle" x="282" y="-98" font-family="Helvetica,sans-Serif" font-size="10.00">TestServer</text>
</a>
</g>
</g>
<!-- Node0&#45;&gt;Node1 -->
<g id="edge7_Node000000_Node000001" class="edge">
<title>Node0&#45;&gt;Node1</title>
<g id="a_edge7_Node000000_Node000001"><a xlink:title=" ">
<path fill="none" stroke="#63b8ff" d="M122.71,-106C147.73,-106 178.08,-106 205.49,-106"/>
<polygon fill="#63b8ff" stroke="#63b8ff" points="122.7,-102.5 112.7,-106 122.7,-109.5 122.7,-102.5"/>
</a>
</g>
</g>
<!-- Node4 -->
<g id="Node000004" class="node">
<title>Node4</title>
<g id="a_Node000004"><a xlink:href="interfacecom_1_1teragrep_1_1cfe__16_1_1LifeCycle.html" target="_top" xlink:title="An interface that own resources like threads for doing graceful shutdown.">
<polygon fill="white" stroke="#666666" points="138,-30 0,-30 0,0 138,0 138,-30"/>
<text text-anchor="start" x="8" y="-18" font-family="Helvetica,sans-Serif" font-size="10.00">com.teragrep.cfe_16.Life</text>
<text text-anchor="middle" x="69" y="-7" font-family="Helvetica,sans-Serif" font-size="10.00">Cycle</text>
</a>
</g>
</g>
<!-- Node3 -->
<g id="Node000003" class="node">
<title>Node3</title>
<g id="a_Node000003"><a xlink:href="classcom_1_1teragrep_1_1cfe__16_1_1Acknowledgements.html" target="_top" xlink:title=" ">
<polygon fill="white" stroke="#666666" points="390,-24.5 174,-24.5 174,-5.5 390,-5.5 390,-24.5"/>
<text text-anchor="middle" x="282" y="-12.5" font-family="Helvetica,sans-Serif" font-size="10.00">com.teragrep.cfe_16.Acknowledgements</text>
</a>
</g>
</g>
<!-- Node4&#45;&gt;Node3 -->
<g id="edge8_Node000004_Node000003" class="edge">
<title>Node4&#45;&gt;Node3</title>
<g id="a_edge8_Node000004_Node000003"><a xlink:title=" ">
<path fill="none" stroke="#63b8ff" d="M148.29,-15C156.66,-15 165.27,-15 173.9,-15"/>
<polygon fill="#63b8ff" stroke="#63b8ff" points="148.21,-11.5 138.21,-15 148.21,-18.5 148.21,-11.5"/>
</a>
</g>
</g>
<!-- Node5 -->
<g id="Node000005" class="node">
<title>Node5</title>
<g id="a_Node000005"><a xlink:href="classcom_1_1teragrep_1_1cfe__16_1_1SessionManager.html" target="_top" xlink:title=" ">
<polygon fill="white" stroke="#666666" points="361,-73 203,-73 203,-43 361,-43 361,-73"/>
<text text-anchor="start" x="211" y="-61" font-family="Helvetica,sans-Serif" font-size="10.00">com.teragrep.cfe_16.Session</text>
<text text-anchor="middle" x="282" y="-50" font-family="Helvetica,sans-Serif" font-size="10.00">Manager</text>
</a>
</g>
</g>
<!-- Node4&#45;&gt;Node5 -->
<g id="edge9_Node000004_Node000005" class="edge">
<title>Node4&#45;&gt;Node5</title>
<g id="a_edge9_Node000004_Node000005"><a xlink:title=" ">
<path fill="none" stroke="#63b8ff" d="M148.18,-30.93C167.48,-34.87 188.1,-39.07 207.19,-42.96"/>
<polygon fill="#63b8ff" stroke="#63b8ff" points="148.71,-27.47 138.21,-28.9 147.31,-34.33 148.71,-27.47"/>
</a>
</g>
</g>
<!-- Node2 -->
<g id="Node000002" class="node">
<title>Node2</title>
<g id="a_Node000002"><a xlink:title=" ">
<polygon fill="#e0e0e0" stroke="#999999" points="100,-67.5 38,-67.5 38,-48.5 100,-48.5 100,-67.5"/>
<text text-anchor="middle" x="69" y="-55.5" font-family="Helvetica,sans-Serif" font-size="10.00">Runnable</text>
</a>
</g>
</g>
<!-- Node2&#45;&gt;Node1 -->
<g id="edge12_Node000002_Node000001" class="edge">
<title>Node2&#45;&gt;Node1</title>
<g id="a_edge12_Node000002_Node000001"><a xlink:title=" ">
<path fill="none" stroke="#63b8ff" d="M110,-67.29C129.33,-71.77 152.86,-77.19 174,-82 186.81,-84.91 200.49,-88 213.63,-90.96"/>
<polygon fill="#63b8ff" stroke="#63b8ff" points="110.56,-63.83 100.03,-64.98 108.98,-70.65 110.56,-63.83"/>
</a>
</g>
</g>
<!-- Node2&#45;&gt;Node3 -->
<g id="edge10_Node000002_Node000003" class="edge">
<title>Node2&#45;&gt;Node3</title>
<g id="a_edge10_Node000002_Node000003"><a xlink:title=" ">
<path fill="none" stroke="#63b8ff" d="M110.33,-48.19C129.56,-43.64 152.92,-38.3 174,-34 190.27,-30.68 208,-27.4 224.26,-24.52"/>
<polygon fill="#63b8ff" stroke="#63b8ff" points="109.32,-44.83 100.4,-50.55 110.94,-51.64 109.32,-44.83"/>
</a>
</g>
</g>
<!-- Node2&#45;&gt;Node5 -->
<g id="edge11_Node000002_Node000005" class="edge">
<title>Node2&#45;&gt;Node5</title>
<g id="a_edge11_Node000002_Node000005"><a xlink:title=" ">
<path fill="none" stroke="#63b8ff" d="M110.48,-58C136.53,-58 171.26,-58 202.58,-58"/>
<polygon fill="#63b8ff" stroke="#63b8ff" points="110.23,-54.5 100.23,-58 110.23,-61.5 110.23,-54.5"/>
</a>
</g>
</g>
</g>
</svg>
