<?xml version="1.0" encoding="UTF-8" standalone="no"?>
<!DOCTYPE svg PUBLIC "-//W3C//DTD SVG 1.1//EN"
 "http://www.w3.org/Graphics/SVG/1.1/DTD/svg11.dtd">
<!-- Generated by graphviz version 2.43.0 (0)
 -->
<!-- Title: com.teragrep.cfe_16.Stubable.isStub Pages: 1 -->
<svg width="454pt" height="218pt"
 viewBox="0.00 0.00 454.00 218.00" xmlns="http://www.w3.org/2000/svg" xmlns:xlink="http://www.w3.org/1999/xlink">
<g id="graph0" class="graph" transform="scale(1 1) rotate(0) translate(4 214)">
<title>com.teragrep.cfe_16.Stubable.isStub</title>
<!-- Node1 -->
<g id="Node000001" class="node">
<title>Node1</title>
<g id="a_Node000001"><a xlink:title=" ">
<polygon fill="#999999" stroke="#666666" points="446,-123.5 250,-123.5 250,-104.5 446,-104.5 446,-123.5"/>
<text text-anchor="middle" x="348" y="-111.5" font-family="Helvetica,sans-Serif" font-size="10.00">com.teragrep.cfe_16.Stubable.isStub</text>
</a>
</g>
</g>
<!-- Node2 -->
<g id="Node000002" class="node">
<title>Node2</title>
<g id="a_Node000002"><a xlink:href="classcom_1_1teragrep_1_1cfe__16_1_1event_1_1time_1_1JsonHECTimeImplWithFallback.html#aa7429e3354ea396b2ddc5b99f2dcd9a2" target="_top" xlink:title=" ">
<polygon fill="white" stroke="#666666" points="214,-210 0,-210 0,-180 214,-180 214,-210"/>
<text text-anchor="start" x="8" y="-198" font-family="Helvetica,sans-Serif" font-size="10.00">com.teragrep.cfe_16.event.time.</text>
<text text-anchor="middle" x="107" y="-187" font-family="Helvetica,sans-Serif" font-size="10.00">JsonHECTimeImplWithFallback.asInstant</text>
</a>
</g>
</g>
<!-- Node1&#45;&gt;Node2 -->
<g id="edge1_Node000001_Node000002" class="edge">
<title>Node1&#45;&gt;Node2</title>
<g id="a_edge1_Node000001_Node000002"><a xlink:title=" ">
<path fill="none" stroke="#63b8ff" d="M318.51,-128.01C291.96,-140.63 251.03,-158.98 214,-171 203.86,-174.29 193.03,-177.3 182.31,-179.99"/>
<polygon fill="#63b8ff" stroke="#63b8ff" points="320.1,-131.13 327.6,-123.65 317.07,-124.82 320.1,-131.13"/>
</a>
</g>
</g>
<!-- Node3 -->
<g id="Node000003" class="node">
<title>Node3</title>
<g id="a_Node000003"><a xlink:href="classcom_1_1teragrep_1_1cfe__16_1_1bo_1_1HeaderInfo.html#a75b003348c0432bd23b5d10615237da1" target="_top" xlink:title=" ">
<polygon fill="white" stroke="#666666" points="192,-162 22,-162 22,-132 192,-132 192,-162"/>
<text text-anchor="start" x="30" y="-150" font-family="Helvetica,sans-Serif" font-size="10.00">com.teragrep.cfe_16.bo.Header</text>
<text text-anchor="middle" x="107" y="-139" font-family="Helvetica,sans-Serif" font-size="10.00">Info.asSDElement</text>
</a>
</g>
</g>
<!-- Node1&#45;&gt;Node3 -->
<g id="edge2_Node000001_Node000003" class="edge">
<title>Node1&#45;&gt;Node3</title>
<g id="a_edge2_Node000001_Node000003"><a xlink:title=" ">
<path fill="none" stroke="#63b8ff" d="M268.25,-124.87C243.81,-128.25 216.79,-131.98 192.01,-135.4"/>
<polygon fill="#63b8ff" stroke="#63b8ff" points="268.76,-128.34 278.19,-123.5 267.81,-121.4 268.76,-128.34"/>
</a>
</g>
</g>
<!-- Node4 -->
<g id="Node000004" class="node">
<title>Node4</title>
<g id="a_Node000004"><a xlink:href="classcom_1_1teragrep_1_1cfe__16_1_1event_1_1time_1_1JsonHECTimeImplWithFallback.html#a7861e0f0b3bcb80e1dd9713f2042e66e" target="_top" xlink:title=" ">
<polygon fill="white" stroke="#666666" points="208,-96 6,-96 6,-66 208,-66 208,-96"/>
<text text-anchor="start" x="14" y="-84" font-family="Helvetica,sans-Serif" font-size="10.00">com.teragrep.cfe_16.event.time.</text>
<text text-anchor="middle" x="107" y="-73" font-family="Helvetica,sans-Serif" font-size="10.00">JsonHECTimeImplWithFallback.parsed</text>
</a>
</g>
</g>
<!-- Node1&#45;&gt;Node4 -->
<g id="edge3_Node000001_Node000004" class="edge">
<title>Node1&#45;&gt;Node4</title>
<g id="a_edge3_Node000001_Node000004"><a xlink:title=" ">
<path fill="none" stroke="#63b8ff" d="M268.06,-103.1C248.95,-100.46 228.27,-97.61 208.33,-94.85"/>
<polygon fill="#63b8ff" stroke="#63b8ff" points="267.81,-106.6 278.19,-104.5 268.76,-99.66 267.81,-106.6"/>
</a>
</g>
</g>
<!-- Node5 -->
<g id="Node000005" class="node">
<title>Node5</title>
<g id="a_Node000005"><a xlink:href="classcom_1_1teragrep_1_1cfe__16_1_1event_1_1time_1_1JsonHECTimeImplWithFallback.html#af1b5d5613255733524089bdf19fece81" target="_top" xlink:title=" ">
<polygon fill="white" stroke="#666666" points="207.5,-30 6.5,-30 6.5,0 207.5,0 207.5,-30"/>
<text text-anchor="start" x="14.5" y="-18" font-family="Helvetica,sans-Serif" font-size="10.00">com.teragrep.cfe_16.event.time.</text>
<text text-anchor="middle" x="107" y="-7" font-family="Helvetica,sans-Serif" font-size="10.00">JsonHECTimeImplWithFallback.source</text>
</a>
</g>
</g>
<!-- Node1&#45;&gt;Node5 -->
<g id="edge5_Node000001_Node000005" class="edge">
<title>Node1&#45;&gt;Node5</title>
<g id="a_edge5_Node000001_Node000005"><a xlink:title=" ">
<path fill="none" stroke="#63b8ff" d="M315.67,-100.28C288.78,-88.58 248.96,-71.41 214,-57 191.86,-47.87 166.96,-37.99 146.87,-30.1"/>
<polygon fill="#63b8ff" stroke="#63b8ff" points="314.39,-103.54 324.96,-104.33 317.19,-97.13 314.39,-103.54"/>
</a>
</g>
</g>
<!-- Node4&#45;&gt;Node4 -->
<g id="edge4_Node000004_Node000004" class="edge">
<title>Node4&#45;&gt;Node4</title>
<g id="a_edge4_Node000004_Node000004"><a xlink:title=" ">
<path fill="none" stroke="#63b8ff" d="M149.01,-106.6C143.27,-110.97 129.27,-114 107,-114 69.5,-114 55.44,-105.41 64.81,-96.28"/>
<polygon fill="#63b8ff" stroke="#63b8ff" points="152.51,-106.33 149.19,-96.28 145.51,-106.21 152.51,-106.33"/>
</a>
</g>
</g>
<!-- Node5&#45;&gt;Node5 -->
<g id="edge6_Node000005_Node000005" class="edge">
<title>Node5&#45;&gt;Node5</title>
<g id="a_edge6_Node000005_Node000005"><a xlink:title=" ">
<path fill="none" stroke="#63b8ff" d="M149.01,-40.6C143.27,-44.97 129.27,-48 107,-48 69.5,-48 55.44,-39.41 64.81,-30.28"/>
<polygon fill="#63b8ff" stroke="#63b8ff" points="152.51,-40.33 149.19,-30.28 145.51,-40.21 152.51,-40.33"/>
</a>
</g>
</g>
</g>
</svg>
