<?xml version="1.0" encoding="UTF-8" standalone="no"?>
<!DOCTYPE svg PUBLIC "-//W3C//DTD SVG 1.1//EN"
 "http://www.w3.org/Graphics/SVG/1.1/DTD/svg11.dtd">
<!-- Generated by graphviz version 2.43.0 (0)
 -->
<!-- Title: com.teragrep.cfe_16.event.time.JsonHECTime.parsed Pages: 1 -->
<svg width="422pt" height="56pt"
 viewBox="0.00 0.00 422.00 56.00" xmlns="http://www.w3.org/2000/svg" xmlns:xlink="http://www.w3.org/1999/xlink">
<g id="graph0" class="graph" transform="scale(1 1) rotate(0) translate(4 52)">
<title>com.teragrep.cfe_16.event.time.JsonHECTime.parsed</title>
<!-- Node1 -->
<g id="Node000001" class="node">
<title>Node1</title>
<g id="a_Node000001"><a xlink:title=" ">
<polygon fill="#999999" stroke="#666666" points="414,-30 238,-30 238,0 414,0 414,-30"/>
<text text-anchor="start" x="246" y="-18" font-family="Helvetica,sans-Serif" font-size="10.00">com.teragrep.cfe_16.event.time.</text>
<text text-anchor="middle" x="326" y="-7" font-family="Helvetica,sans-Serif" font-size="10.00">JsonHECTime.parsed</text>
</a>
</g>
</g>
<!-- Node2 -->
<g id="Node000002" class="node">
<title>Node2</title>
<g id="a_Node000002"><a xlink:href="classcom_1_1teragrep_1_1cfe__16_1_1event_1_1time_1_1JsonHECTimeImplWithFallback.html#a7861e0f0b3bcb80e1dd9713f2042e66e" target="_top" xlink:title=" ">
<polygon fill="white" stroke="#666666" points="202,-30 0,-30 0,0 202,0 202,-30"/>
<text text-anchor="start" x="8" y="-18" font-family="Helvetica,sans-Serif" font-size="10.00">com.teragrep.cfe_16.event.time.</text>
<text text-anchor="middle" x="101" y="-7" font-family="Helvetica,sans-Serif" font-size="10.00">JsonHECTimeImplWithFallback.parsed</text>
</a>
</g>
</g>
<!-- Node1&#45;&gt;Node2 -->
<g id="edge1_Node000001_Node000002" class="edge">
<title>Node1&#45;&gt;Node2</title>
<g id="a_edge1_Node000001_Node000002"><a xlink:title=" ">
<path fill="none" stroke="#63b8ff" d="M227.57,-15C219.11,-15 210.54,-15 202.06,-15"/>
<polygon fill="#63b8ff" stroke="#63b8ff" points="227.82,-18.5 237.82,-15 227.82,-11.5 227.82,-18.5"/>
</a>
</g>
</g>
<!-- Node2&#45;&gt;Node2 -->
<g id="edge2_Node000002_Node000002" class="edge">
<title>Node2&#45;&gt;Node2</title>
<g id="a_edge2_Node000002_Node000002"><a xlink:title=" ">
<path fill="none" stroke="#63b8ff" d="M140.21,-40.6C134.85,-44.97 121.78,-48 101,-48 66,-48 52.88,-39.41 61.62,-30.28"/>
<polygon fill="#63b8ff" stroke="#63b8ff" points="143.71,-40.33 140.38,-30.28 136.71,-40.22 143.71,-40.33"/>
</a>
</g>
</g>
</g>
</svg>
