<?xml version="1.0" encoding="UTF-8" standalone="no"?>
<!DOCTYPE svg PUBLIC "-//W3C//DTD SVG 1.1//EN"
 "http://www.w3.org/Graphics/SVG/1.1/DTD/svg11.dtd">
<!-- Generated by graphviz version 2.43.0 (0)
 -->
<!-- Title: com.teragrep.cfe_16.Stubable Pages: 1 -->
<svg width="651pt" height="566pt"
 viewBox="0.00 0.00 651.00 566.00" xmlns="http://www.w3.org/2000/svg" xmlns:xlink="http://www.w3.org/1999/xlink">
<g id="graph0" class="graph" transform="scale(1 1) rotate(0) translate(4 562)">
<title>com.teragrep.cfe_16.Stubable</title>
<!-- Node1 -->
<g id="Node000001" class="node">
<title>Node1</title>
<g id="a_Node000001"><a xlink:title=" ">
<polygon fill="#999999" stroke="#666666" points="163,-288.5 0,-288.5 0,-269.5 163,-269.5 163,-288.5"/>
<text text-anchor="middle" x="81.5" y="-276.5" font-family="Helvetica,sans-Serif" font-size="10.00">com.teragrep.cfe_16.Stubable</text>
</a>
</g>
</g>
<!-- Node2 -->
<g id="Node000002" class="node">
<title>Node2</title>
<g id="a_Node000002"><a xlink:href="interfacecom_1_1teragrep_1_1cfe__16_1_1bo_1_1XForwardedFor.html" target="_top" xlink:title=" ">
<polygon fill="white" stroke="#666666" points="410.5,-504.5 202.5,-504.5 202.5,-485.5 410.5,-485.5 410.5,-504.5"/>
<text text-anchor="middle" x="306.5" y="-492.5" font-family="Helvetica,sans-Serif" font-size="10.00">com.teragrep.cfe_16.bo.XForwardedFor</text>
</a>
</g>
</g>
<!-- Node1&#45;&gt;Node2 -->
<g id="edge1_Node000001_Node000002" class="edge">
<title>Node1&#45;&gt;Node2</title>
<g id="a_edge1_Node000001_Node000002"><a xlink:title=" ">
<path fill="none" stroke="#63b8ff" d="M95.43,-297.17C115.69,-324.95 156.97,-378.87 199,-418 228.56,-445.52 268.16,-471.79 289.78,-485.39"/>
<polygon fill="#63b8ff" stroke="#63b8ff" points="98.09,-294.86 89.4,-288.81 92.41,-298.96 98.09,-294.86"/>
</a>
</g>
</g>
<!-- Node5 -->
<g id="Node000005" class="node">
<title>Node5</title>
<g id="a_Node000005"><a xlink:href="interfacecom_1_1teragrep_1_1cfe__16_1_1bo_1_1XForwardedHost.html" target="_top" xlink:title=" ">
<polygon fill="white" stroke="#666666" points="414,-408.5 199,-408.5 199,-389.5 414,-389.5 414,-408.5"/>
<text text-anchor="middle" x="306.5" y="-396.5" font-family="Helvetica,sans-Serif" font-size="10.00">com.teragrep.cfe_16.bo.XForwardedHost</text>
</a>
</g>
</g>
<!-- Node1&#45;&gt;Node5 -->
<g id="edge4_Node000001_Node000005" class="edge">
<title>Node1&#45;&gt;Node5</title>
<g id="a_edge4_Node000001_Node000005"><a xlink:title=" ">
<path fill="none" stroke="#63b8ff" d="M109.18,-293.36C155.22,-318.13 248.4,-368.27 287.54,-389.34"/>
<polygon fill="#63b8ff" stroke="#63b8ff" points="110.84,-290.27 100.37,-288.62 107.52,-296.44 110.84,-290.27"/>
</a>
</g>
</g>
<!-- Node8 -->
<g id="Node000008" class="node">
<title>Node8</title>
<g id="a_Node000008"><a xlink:href="interfacecom_1_1teragrep_1_1cfe__16_1_1bo_1_1XForwardedProto.html" target="_top" xlink:title=" ">
<polygon fill="white" stroke="#666666" points="403,-318 210,-318 210,-288 403,-288 403,-318"/>
<text text-anchor="start" x="218" y="-306" font-family="Helvetica,sans-Serif" font-size="10.00">com.teragrep.cfe_16.bo.XForwarded</text>
<text text-anchor="middle" x="306.5" y="-295" font-family="Helvetica,sans-Serif" font-size="10.00">Proto</text>
</a>
</g>
</g>
<!-- Node1&#45;&gt;Node8 -->
<g id="edge7_Node000001_Node000008" class="edge">
<title>Node1&#45;&gt;Node8</title>
<g id="a_edge7_Node000001_Node000008"><a xlink:title=" ">
<path fill="none" stroke="#63b8ff" d="M173.1,-288.75C185.23,-290.06 197.71,-291.4 209.92,-292.71"/>
<polygon fill="#63b8ff" stroke="#63b8ff" points="173.33,-285.25 163.01,-287.66 172.58,-292.21 173.33,-285.25"/>
</a>
</g>
</g>
<!-- Node11 -->
<g id="Node000011" class="node">
<title>Node11</title>
<g id="a_Node000011"><a xlink:href="interfacecom_1_1teragrep_1_1cfe__16_1_1event_1_1EventMessage.html" target="_top" xlink:title="Interface for objects that work with the Event (message)">
<polygon fill="white" stroke="#666666" points="382,-270 231,-270 231,-240 382,-240 382,-270"/>
<text text-anchor="start" x="239" y="-258" font-family="Helvetica,sans-Serif" font-size="10.00">com.teragrep.cfe_16.event.</text>
<text text-anchor="middle" x="306.5" y="-247" font-family="Helvetica,sans-Serif" font-size="10.00">EventMessage</text>
</a>
</g>
</g>
<!-- Node1&#45;&gt;Node11 -->
<g id="edge10_Node000001_Node000011" class="edge">
<title>Node1&#45;&gt;Node11</title>
<g id="a_edge10_Node000001_Node000011"><a xlink:title=" ">
<path fill="none" stroke="#63b8ff" d="M173.21,-269.24C192.31,-267.18 212.25,-265.04 230.68,-263.05"/>
<polygon fill="#63b8ff" stroke="#63b8ff" points="172.58,-265.79 163.01,-270.34 173.33,-272.75 172.58,-265.79"/>
</a>
</g>
</g>
<!-- Node13 -->
<g id="Node000013" class="node">
<title>Node13</title>
<g id="a_Node000013"><a xlink:href="interfacecom_1_1teragrep_1_1cfe__16_1_1event_1_1time_1_1JsonHECTime.html" target="_top" xlink:title=" ">
<polygon fill="white" stroke="#666666" points="394.5,-198 218.5,-198 218.5,-168 394.5,-168 394.5,-198"/>
<text text-anchor="start" x="226.5" y="-186" font-family="Helvetica,sans-Serif" font-size="10.00">com.teragrep.cfe_16.event.time.</text>
<text text-anchor="middle" x="306.5" y="-175" font-family="Helvetica,sans-Serif" font-size="10.00">JsonHECTime</text>
</a>
</g>
</g>
<!-- Node1&#45;&gt;Node13 -->
<g id="edge12_Node000001_Node000013" class="edge">
<title>Node1&#45;&gt;Node13</title>
<g id="a_edge12_Node000001_Node000013"><a xlink:title=" ">
<path fill="none" stroke="#63b8ff" d="M113.99,-265.44C155.22,-247.7 227.29,-216.67 270.29,-198.16"/>
<polygon fill="#63b8ff" stroke="#63b8ff" points="112.5,-262.28 104.7,-269.44 115.27,-268.7 112.5,-262.28"/>
</a>
</g>
</g>
<!-- Node17 -->
<g id="Node000017" class="node">
<title>Node17</title>
<g id="a_Node000017"><a xlink:href="interfacecom_1_1teragrep_1_1cfe__16_1_1record_1_1HECRecord.html" target="_top" xlink:title=" ">
<polygon fill="white" stroke="#666666" points="383.5,-78 229.5,-78 229.5,-48 383.5,-48 383.5,-78"/>
<text text-anchor="start" x="237.5" y="-66" font-family="Helvetica,sans-Serif" font-size="10.00">com.teragrep.cfe_16.record.</text>
<text text-anchor="middle" x="306.5" y="-55" font-family="Helvetica,sans-Serif" font-size="10.00">HECRecord</text>
</a>
</g>
</g>
<!-- Node1&#45;&gt;Node17 -->
<g id="edge16_Node000001_Node000017" class="edge">
<title>Node1&#45;&gt;Node17</title>
<g id="a_edge16_Node000001_Node000017"><a xlink:title=" ">
<path fill="none" stroke="#63b8ff" d="M98.32,-262.01C120.41,-238.43 161.97,-194.69 199,-159 229.47,-129.64 266.44,-96.94 287.83,-78.28"/>
<polygon fill="#63b8ff" stroke="#63b8ff" points="95.63,-259.76 91.36,-269.46 100.74,-264.54 95.63,-259.76"/>
</a>
</g>
</g>
<!-- Node3 -->
<g id="Node000003" class="node">
<title>Node3</title>
<g id="a_Node000003"><a xlink:href="classcom_1_1teragrep_1_1cfe__16_1_1bo_1_1XForwardedForImpl.html" target="_top" xlink:title=" ">
<polygon fill="white" stroke="#666666" points="643,-558 450,-558 450,-528 643,-528 643,-558"/>
<text text-anchor="start" x="458" y="-546" font-family="Helvetica,sans-Serif" font-size="10.00">com.teragrep.cfe_16.bo.XForwarded</text>
<text text-anchor="middle" x="546.5" y="-535" font-family="Helvetica,sans-Serif" font-size="10.00">ForImpl</text>
</a>
</g>
</g>
<!-- Node2&#45;&gt;Node3 -->
<g id="edge2_Node000002_Node000003" class="edge">
<title>Node2&#45;&gt;Node3</title>
<g id="a_edge2_Node000002_Node000003"><a xlink:title=" ">
<path fill="none" stroke="#63b8ff" d="M364.86,-506.57C396.76,-513 436.82,-521.08 471.11,-528"/>
<polygon fill="#63b8ff" stroke="#63b8ff" points="365.3,-503.09 354.81,-504.54 363.92,-509.95 365.3,-503.09"/>
</a>
</g>
</g>
<!-- Node4 -->
<g id="Node000004" class="node">
<title>Node4</title>
<g id="a_Node000004"><a xlink:href="classcom_1_1teragrep_1_1cfe__16_1_1bo_1_1XForwardedForStub.html" target="_top" xlink:title=" ">
<polygon fill="white" stroke="#666666" points="643,-510 450,-510 450,-480 643,-480 643,-510"/>
<text text-anchor="start" x="458" y="-498" font-family="Helvetica,sans-Serif" font-size="10.00">com.teragrep.cfe_16.bo.XForwarded</text>
<text text-anchor="middle" x="546.5" y="-487" font-family="Helvetica,sans-Serif" font-size="10.00">ForStub</text>
</a>
</g>
</g>
<!-- Node2&#45;&gt;Node4 -->
<g id="edge3_Node000002_Node000004" class="edge">
<title>Node2&#45;&gt;Node4</title>
<g id="a_edge3_Node000002_Node000004"><a xlink:title=" ">
<path fill="none" stroke="#63b8ff" d="M420.65,-495C430.42,-495 440.24,-495 449.84,-495"/>
<polygon fill="#63b8ff" stroke="#63b8ff" points="420.51,-491.5 410.51,-495 420.51,-498.5 420.51,-491.5"/>
</a>
</g>
</g>
<!-- Node6 -->
<g id="Node000006" class="node">
<title>Node6</title>
<g id="a_Node000006"><a xlink:href="classcom_1_1teragrep_1_1cfe__16_1_1bo_1_1XForwardedHostImpl.html" target="_top" xlink:title=" ">
<polygon fill="white" stroke="#666666" points="643,-462 450,-462 450,-432 643,-432 643,-462"/>
<text text-anchor="start" x="458" y="-450" font-family="Helvetica,sans-Serif" font-size="10.00">com.teragrep.cfe_16.bo.XForwarded</text>
<text text-anchor="middle" x="546.5" y="-439" font-family="Helvetica,sans-Serif" font-size="10.00">HostImpl</text>
</a>
</g>
</g>
<!-- Node5&#45;&gt;Node6 -->
<g id="edge5_Node000005_Node000006" class="edge">
<title>Node5&#45;&gt;Node6</title>
<g id="a_edge5_Node000005_Node000006"><a xlink:title=" ">
<path fill="none" stroke="#63b8ff" d="M364.86,-410.57C396.76,-417 436.82,-425.08 471.11,-432"/>
<polygon fill="#63b8ff" stroke="#63b8ff" points="365.3,-407.09 354.81,-408.54 363.92,-413.95 365.3,-407.09"/>
</a>
</g>
</g>
<!-- Node7 -->
<g id="Node000007" class="node">
<title>Node7</title>
<g id="a_Node000007"><a xlink:href="classcom_1_1teragrep_1_1cfe__16_1_1bo_1_1XForwardedHostStub.html" target="_top" xlink:title=" ">
<polygon fill="white" stroke="#666666" points="643,-414 450,-414 450,-384 643,-384 643,-414"/>
<text text-anchor="start" x="458" y="-402" font-family="Helvetica,sans-Serif" font-size="10.00">com.teragrep.cfe_16.bo.XForwarded</text>
<text text-anchor="middle" x="546.5" y="-391" font-family="Helvetica,sans-Serif" font-size="10.00">HostStub</text>
</a>
</g>
</g>
<!-- Node5&#45;&gt;Node7 -->
<g id="edge6_Node000005_Node000007" class="edge">
<title>Node5&#45;&gt;Node7</title>
<g id="a_edge6_Node000005_Node000007"><a xlink:title=" ">
<path fill="none" stroke="#63b8ff" d="M424.35,-399C432.92,-399 441.5,-399 449.92,-399"/>
<polygon fill="#63b8ff" stroke="#63b8ff" points="424.32,-395.5 414.32,-399 424.32,-402.5 424.32,-395.5"/>
</a>
</g>
</g>
<!-- Node9 -->
<g id="Node000009" class="node">
<title>Node9</title>
<g id="a_Node000009"><a xlink:href="classcom_1_1teragrep_1_1cfe__16_1_1bo_1_1XForwardedProtoImpl.html" target="_top" xlink:title=" ">
<polygon fill="white" stroke="#666666" points="643,-366 450,-366 450,-336 643,-336 643,-366"/>
<text text-anchor="start" x="458" y="-354" font-family="Helvetica,sans-Serif" font-size="10.00">com.teragrep.cfe_16.bo.XForwarded</text>
<text text-anchor="middle" x="546.5" y="-343" font-family="Helvetica,sans-Serif" font-size="10.00">ProtoImpl</text>
</a>
</g>
</g>
<!-- Node8&#45;&gt;Node9 -->
<g id="edge8_Node000008_Node000009" class="edge">
<title>Node8&#45;&gt;Node9</title>
<g id="a_edge8_Node000008_Node000009"><a xlink:title=" ">
<path fill="none" stroke="#63b8ff" d="M392.27,-320.1C418.02,-325.29 446.1,-330.95 471.11,-336"/>
<polygon fill="#63b8ff" stroke="#63b8ff" points="392.65,-316.6 382.15,-318.06 391.26,-323.46 392.65,-316.6"/>
</a>
</g>
</g>
<!-- Node10 -->
<g id="Node000010" class="node">
<title>Node10</title>
<g id="a_Node000010"><a xlink:href="classcom_1_1teragrep_1_1cfe__16_1_1bo_1_1XForwardedProtoStub.html" target="_top" xlink:title=" ">
<polygon fill="white" stroke="#666666" points="643,-318 450,-318 450,-288 643,-288 643,-318"/>
<text text-anchor="start" x="458" y="-306" font-family="Helvetica,sans-Serif" font-size="10.00">com.teragrep.cfe_16.bo.XForwarded</text>
<text text-anchor="middle" x="546.5" y="-295" font-family="Helvetica,sans-Serif" font-size="10.00">ProtoStub</text>
</a>
</g>
</g>
<!-- Node8&#45;&gt;Node10 -->
<g id="edge9_Node000008_Node000010" class="edge">
<title>Node8&#45;&gt;Node10</title>
<g id="a_edge9_Node000008_Node000010"><a xlink:title=" ">
<path fill="none" stroke="#63b8ff" d="M413.43,-303C425.58,-303 437.92,-303 449.92,-303"/>
<polygon fill="#63b8ff" stroke="#63b8ff" points="413.27,-299.5 403.27,-303 413.27,-306.5 413.27,-299.5"/>
</a>
</g>
</g>
<!-- Node12 -->
<g id="Node000012" class="node">
<title>Node12</title>
<g id="a_Node000012"><a xlink:href="classcom_1_1teragrep_1_1cfe__16_1_1event_1_1EventMessageImpl.html" target="_top" xlink:title=" ">
<polygon fill="white" stroke="#666666" points="622,-270 471,-270 471,-240 622,-240 622,-270"/>
<text text-anchor="start" x="479" y="-258" font-family="Helvetica,sans-Serif" font-size="10.00">com.teragrep.cfe_16.event.</text>
<text text-anchor="middle" x="546.5" y="-247" font-family="Helvetica,sans-Serif" font-size="10.00">EventMessageImpl</text>
</a>
</g>
</g>
<!-- Node11&#45;&gt;Node12 -->
<g id="edge11_Node000011_Node000012" class="edge">
<title>Node11&#45;&gt;Node12</title>
<g id="a_edge11_Node000011_Node000012"><a xlink:title=" ">
<path fill="none" stroke="#63b8ff" d="M392.22,-255C417.84,-255 445.78,-255 470.7,-255"/>
<polygon fill="#63b8ff" stroke="#63b8ff" points="392.15,-251.5 382.15,-255 392.15,-258.5 392.15,-251.5"/>
</a>
</g>
</g>
<!-- Node14 -->
<g id="Node000014" class="node">
<title>Node14</title>
<g id="a_Node000014"><a xlink:href="classcom_1_1teragrep_1_1cfe__16_1_1event_1_1time_1_1JsonHECTimeImpl.html" target="_top" xlink:title=" ">
<polygon fill="white" stroke="#666666" points="634.5,-222 458.5,-222 458.5,-192 634.5,-192 634.5,-222"/>
<text text-anchor="start" x="466.5" y="-210" font-family="Helvetica,sans-Serif" font-size="10.00">com.teragrep.cfe_16.event.time.</text>
<text text-anchor="middle" x="546.5" y="-199" font-family="Helvetica,sans-Serif" font-size="10.00">JsonHECTimeImpl</text>
</a>
</g>
</g>
<!-- Node13&#45;&gt;Node14 -->
<g id="edge13_Node000013_Node000014" class="edge">
<title>Node13&#45;&gt;Node14</title>
<g id="a_edge13_Node000013_Node000014"><a xlink:title=" ">
<path fill="none" stroke="#63b8ff" d="M405.06,-192.84C422.67,-194.61 440.94,-196.46 458.24,-198.2"/>
<polygon fill="#63b8ff" stroke="#63b8ff" points="405.07,-189.32 394.77,-191.8 404.37,-196.29 405.07,-189.32"/>
</a>
</g>
</g>
<!-- Node15 -->
<g id="Node000015" class="node">
<title>Node15</title>
<g id="a_Node000015"><a xlink:href="classcom_1_1teragrep_1_1cfe__16_1_1event_1_1time_1_1JsonHECTimeImplWithFallback.html" target="_top" xlink:title=" ">
<polygon fill="white" stroke="#666666" points="634.5,-174 458.5,-174 458.5,-144 634.5,-144 634.5,-174"/>
<text text-anchor="start" x="466.5" y="-162" font-family="Helvetica,sans-Serif" font-size="10.00">com.teragrep.cfe_16.event.time.</text>
<text text-anchor="middle" x="546.5" y="-151" font-family="Helvetica,sans-Serif" font-size="10.00">JsonHECTimeImplWithFallback</text>
</a>
</g>
</g>
<!-- Node13&#45;&gt;Node15 -->
<g id="edge14_Node000013_Node000015" class="edge">
<title>Node13&#45;&gt;Node15</title>
<g id="a_edge14_Node000013_Node000015"><a xlink:title=" ">
<path fill="none" stroke="#63b8ff" d="M405.06,-173.16C422.67,-171.39 440.94,-169.54 458.24,-167.8"/>
<polygon fill="#63b8ff" stroke="#63b8ff" points="404.37,-169.71 394.77,-174.2 405.07,-176.68 404.37,-169.71"/>
</a>
</g>
</g>
<!-- Node16 -->
<g id="Node000016" class="node">
<title>Node16</title>
<g id="a_Node000016"><a xlink:href="classcom_1_1teragrep_1_1cfe__16_1_1event_1_1time_1_1JsonHECTimeStub.html" target="_top" xlink:title=" ">
<polygon fill="white" stroke="#666666" points="634.5,-126 458.5,-126 458.5,-96 634.5,-96 634.5,-126"/>
<text text-anchor="start" x="466.5" y="-114" font-family="Helvetica,sans-Serif" font-size="10.00">com.teragrep.cfe_16.event.time.</text>
<text text-anchor="middle" x="546.5" y="-103" font-family="Helvetica,sans-Serif" font-size="10.00">JsonHECTimeStub</text>
</a>
</g>
</g>
<!-- Node13&#45;&gt;Node16 -->
<g id="edge15_Node000013_Node000016" class="edge">
<title>Node13&#45;&gt;Node16</title>
<g id="a_edge15_Node000013_Node000016"><a xlink:title=" ">
<path fill="none" stroke="#63b8ff" d="M358.92,-164.59C385.88,-155.21 419.55,-143.94 450,-135 460.5,-131.92 471.72,-128.88 482.64,-126.05"/>
<polygon fill="#63b8ff" stroke="#63b8ff" points="357.6,-161.34 349.31,-167.95 359.91,-167.95 357.6,-161.34"/>
</a>
</g>
</g>
<!-- Node18 -->
<g id="Node000018" class="node">
<title>Node18</title>
<g id="a_Node000018"><a xlink:href="classcom_1_1teragrep_1_1cfe__16_1_1record_1_1HECRecordImpl.html" target="_top" xlink:title=" ">
<polygon fill="white" stroke="#666666" points="623.5,-78 469.5,-78 469.5,-48 623.5,-48 623.5,-78"/>
<text text-anchor="start" x="477.5" y="-66" font-family="Helvetica,sans-Serif" font-size="10.00">com.teragrep.cfe_16.record.</text>
<text text-anchor="middle" x="546.5" y="-55" font-family="Helvetica,sans-Serif" font-size="10.00">HECRecordImpl</text>
</a>
</g>
</g>
<!-- Node17&#45;&gt;Node18 -->
<g id="edge17_Node000017_Node000018" class="edge">
<title>Node17&#45;&gt;Node18</title>
<g id="a_edge17_Node000017_Node000018"><a xlink:title=" ">
<path fill="none" stroke="#63b8ff" d="M393.85,-63C418.52,-63 445.22,-63 469.24,-63"/>
<polygon fill="#63b8ff" stroke="#63b8ff" points="393.79,-59.5 383.79,-63 393.79,-66.5 393.79,-59.5"/>
</a>
</g>
</g>
<!-- Node19 -->
<g id="Node000019" class="node">
<title>Node19</title>
<g id="a_Node000019"><a xlink:href="classcom_1_1teragrep_1_1cfe__16_1_1record_1_1HECRecordStub.html" target="_top" xlink:title=" ">
<polygon fill="white" stroke="#666666" points="623.5,-30 469.5,-30 469.5,0 623.5,0 623.5,-30"/>
<text text-anchor="start" x="477.5" y="-18" font-family="Helvetica,sans-Serif" font-size="10.00">com.teragrep.cfe_16.record.</text>
<text text-anchor="middle" x="546.5" y="-7" font-family="Helvetica,sans-Serif" font-size="10.00">HECRecordStub</text>
</a>
</g>
</g>
<!-- Node17&#45;&gt;Node19 -->
<g id="edge18_Node000017_Node000019" class="edge">
<title>Node17&#45;&gt;Node19</title>
<g id="a_edge18_Node000017_Node000019"><a xlink:title=" ">
<path fill="none" stroke="#63b8ff" d="M392.27,-45.9C418.02,-40.71 446.1,-35.05 471.11,-30"/>
<polygon fill="#63b8ff" stroke="#63b8ff" points="391.26,-42.54 382.15,-47.94 392.65,-49.4 391.26,-42.54"/>
</a>
</g>
</g>
</g>
</svg>
