<?xml version="1.0" encoding="UTF-8" standalone="no"?>
<!DOCTYPE svg PUBLIC "-//W3C//DTD SVG 1.1//EN"
 "http://www.w3.org/Graphics/SVG/1.1/DTD/svg11.dtd">
<!-- Generated by graphviz version 2.43.0 (0)
 -->
<!-- Title: com.teragrep.cfe_16.event.time.JsonHECTime.source Pages: 1 -->
<svg width="421pt" height="56pt"
 viewBox="0.00 0.00 421.00 56.00" xmlns="http://www.w3.org/2000/svg" xmlns:xlink="http://www.w3.org/1999/xlink">
<g id="graph0" class="graph" transform="scale(1 1) rotate(0) translate(4 52)">
<title>com.teragrep.cfe_16.event.time.JsonHECTime.source</title>
<!-- Node1 -->
<g id="Node000001" class="node">
<title>Node1</title>
<g id="a_Node000001"><a xlink:title=" ">
<polygon fill="#999999" stroke="#666666" points="413,-30 237,-30 237,0 413,0 413,-30"/>
<text text-anchor="start" x="245" y="-18" font-family="Helvetica,sans-Serif" font-size="10.00">com.teragrep.cfe_16.event.time.</text>
<text text-anchor="middle" x="325" y="-7" font-family="Helvetica,sans-Serif" font-size="10.00">JsonHECTime.source</text>
</a>
</g>
</g>
<!-- Node2 -->
<g id="Node000002" class="node">
<title>Node2</title>
<g id="a_Node000002"><a xlink:href="classcom_1_1teragrep_1_1cfe__16_1_1event_1_1time_1_1JsonHECTimeImplWithFallback.html#af1b5d5613255733524089bdf19fece81" target="_top" xlink:title=" ">
<polygon fill="white" stroke="#666666" points="201,-30 0,-30 0,0 201,0 201,-30"/>
<text text-anchor="start" x="8" y="-18" font-family="Helvetica,sans-Serif" font-size="10.00">com.teragrep.cfe_16.event.time.</text>
<text text-anchor="middle" x="100.5" y="-7" font-family="Helvetica,sans-Serif" font-size="10.00">JsonHECTimeImplWithFallback.source</text>
</a>
</g>
</g>
<!-- Node1&#45;&gt;Node2 -->
<g id="edge1_Node000001_Node000002" class="edge">
<title>Node1&#45;&gt;Node2</title>
<g id="a_edge1_Node000001_Node000002"><a xlink:title=" ">
<path fill="none" stroke="#63b8ff" d="M226.49,-15C218.06,-15 209.52,-15 201.08,-15"/>
<polygon fill="#63b8ff" stroke="#63b8ff" points="226.7,-18.5 236.7,-15 226.7,-11.5 226.7,-18.5"/>
</a>
</g>
</g>
<!-- Node2&#45;&gt;Node2 -->
<g id="edge2_Node000002_Node000002" class="edge">
<title>Node2&#45;&gt;Node2</title>
<g id="a_edge2_Node000002_Node000002"><a xlink:title=" ">
<path fill="none" stroke="#63b8ff" d="M139.71,-40.6C134.35,-44.97 121.28,-48 100.5,-48 65.5,-48 52.38,-39.41 61.12,-30.28"/>
<polygon fill="#63b8ff" stroke="#63b8ff" points="143.21,-40.33 139.88,-30.28 136.21,-40.22 143.21,-40.33"/>
</a>
</g>
</g>
</g>
</svg>
