<?xml version="1.0" encoding="UTF-8" standalone="no"?>
<!DOCTYPE svg PUBLIC "-//W3C//DTD SVG 1.1//EN"
 "http://www.w3.org/Graphics/SVG/1.1/DTD/svg11.dtd">
<!-- Generated by graphviz version 2.43.0 (0)
 -->
<!-- Title: com.teragrep.cfe_16.service.HECServiceImpl.sendEvents Pages: 1 -->
<svg width="1046pt" height="464pt"
 viewBox="0.00 0.00 1046.00 463.93" xmlns="http://www.w3.org/2000/svg" xmlns:xlink="http://www.w3.org/1999/xlink">
<g id="graph0" class="graph" transform="scale(1 1) rotate(0) translate(4 459.93)">
<title>com.teragrep.cfe_16.service.HECServiceImpl.sendEvents</title>
<!-- Node1 -->
<g id="Node000001" class="node">
<title>Node1</title>
<g id="a_Node000001"><a xlink:title="Returns the JSON object as a response of given HTTP event request.">
<polygon fill="#999999" stroke="#666666" points="158,-246 0,-246 0,-216 158,-216 158,-246"/>
<text text-anchor="start" x="8" y="-234" font-family="Helvetica,sans-Serif" font-size="10.00">com.teragrep.cfe_16.service.</text>
<text text-anchor="middle" x="79" y="-223" font-family="Helvetica,sans-Serif" font-size="10.00">HECServiceImpl.sendEvents</text>
</a>
</g>
</g>
<!-- Node2 -->
<g id="Node000002" class="node">
<title>Node2</title>
<g id="a_Node000002"><a xlink:href="classcom_1_1teragrep_1_1cfe__16_1_1Acknowledgements.html#a8c6f0dff735fde04e0bc670136eb57d2" target="_top" xlink:title=" ">
<polygon fill="white" stroke="#666666" points="783,-422.5 499,-422.5 499,-403.5 783,-403.5 783,-422.5"/>
<text text-anchor="middle" x="641" y="-410.5" font-family="Helvetica,sans-Serif" font-size="10.00">com.teragrep.cfe_16.Acknowledgements.acknowledge</text>
</a>
</g>
</g>
<!-- Node1&#45;&gt;Node2 -->
<g id="edge1_Node000001_Node000002" class="edge">
<title>Node1&#45;&gt;Node2</title>
<g id="a_edge1_Node000001_Node000002"><a xlink:title=" ">
<path fill="none" stroke="#63b8ff" d="M84.04,-246.19C94.74,-282.92 127.62,-376.25 194,-413 326.5,-486.35 516.88,-447.62 599.35,-425.25"/>
<polygon fill="#63b8ff" stroke="#63b8ff" points="600.4,-428.6 609.1,-422.55 598.52,-421.85 600.4,-428.6"/>
</a>
</g>
</g>
<!-- Node4 -->
<g id="Node000004" class="node">
<title>Node4</title>
<g id="a_Node000004"><a xlink:href="classcom_1_1teragrep_1_1cfe__16_1_1Acknowledgements.html#a954c7b6f37e4bcd616879315307d85bb" target="_top" xlink:title="Adds a new Ack object for given channel.">
<polygon fill="white" stroke="#666666" points="456,-403.5 201,-403.5 201,-384.5 456,-384.5 456,-403.5"/>
<text text-anchor="middle" x="328.5" y="-391.5" font-family="Helvetica,sans-Serif" font-size="10.00">com.teragrep.cfe_16.Acknowledgements.addAck</text>
</a>
</g>
</g>
<!-- Node1&#45;&gt;Node4 -->
<g id="edge3_Node000001_Node000004" class="edge">
<title>Node1&#45;&gt;Node4</title>
<g id="a_edge3_Node000001_Node000004"><a xlink:title=" ">
<path fill="none" stroke="#63b8ff" d="M87.15,-246.36C102.16,-276.69 140.08,-344.04 194,-375 197.55,-377.04 201.24,-378.89 205.04,-380.57"/>
<polygon fill="#63b8ff" stroke="#63b8ff" points="204.07,-383.95 214.66,-384.39 206.65,-377.44 204.07,-383.95"/>
</a>
</g>
</g>
<!-- Node5 -->
<g id="Node000005" class="node">
<title>Node5</title>
<g id="a_Node000005"><a xlink:href="classcom_1_1teragrep_1_1cfe__16_1_1Acknowledgements.html#a0a81fc7b69c7638df2b4e6fff3744514" target="_top" xlink:title="Returns the current Ack value for given token and channel.">
<polygon fill="white" stroke="#666666" points="446,-366 211,-366 211,-336 446,-336 446,-366"/>
<text text-anchor="start" x="219" y="-354" font-family="Helvetica,sans-Serif" font-size="10.00">com.teragrep.cfe_16.Acknowledgements.get</text>
<text text-anchor="middle" x="328.5" y="-343" font-family="Helvetica,sans-Serif" font-size="10.00">CurrentAckValue</text>
</a>
</g>
</g>
<!-- Node1&#45;&gt;Node5 -->
<g id="edge4_Node000001_Node000005" class="edge">
<title>Node1&#45;&gt;Node5</title>
<g id="a_edge4_Node000001_Node000005"><a xlink:title=" ">
<path fill="none" stroke="#63b8ff" d="M93.03,-246.13C112.61,-267.79 151.84,-307.21 194,-327 198.37,-329.05 202.89,-330.93 207.51,-332.64"/>
<polygon fill="#63b8ff" stroke="#63b8ff" points="206.54,-336.01 217.14,-335.94 208.82,-329.39 206.54,-336.01"/>
</a>
</g>
</g>
<!-- Node8 -->
<g id="Node000008" class="node">
<title>Node8</title>
<g id="a_Node000008"><a xlink:href="classcom_1_1teragrep_1_1cfe__16_1_1SessionManager.html#a10eb9f8a23f0280db1b6662352fb5022" target="_top" xlink:title="Returns an existing Session object based on authentication token.">
<polygon fill="white" stroke="#666666" points="407.5,-318 249.5,-318 249.5,-288 407.5,-288 407.5,-318"/>
<text text-anchor="start" x="257.5" y="-306" font-family="Helvetica,sans-Serif" font-size="10.00">com.teragrep.cfe_16.Session</text>
<text text-anchor="middle" x="328.5" y="-295" font-family="Helvetica,sans-Serif" font-size="10.00">Manager.getOrCreateSession</text>
</a>
</g>
</g>
<!-- Node1&#45;&gt;Node8 -->
<g id="edge7_Node000001_Node000008" class="edge">
<title>Node1&#45;&gt;Node8</title>
<g id="a_edge7_Node000001_Node000008"><a xlink:title=" ">
<path fill="none" stroke="#63b8ff" d="M110.77,-246.15C133.34,-256.71 164.97,-270.39 194,-279 208.45,-283.28 224.01,-286.92 239.23,-289.98"/>
<polygon fill="#63b8ff" stroke="#63b8ff" points="238.69,-293.44 249.17,-291.9 240.02,-286.56 238.69,-293.44"/>
</a>
</g>
</g>
<!-- Node9 -->
<g id="Node000009" class="node">
<title>Node9</title>
<g id="a_Node000009"><a xlink:href="classcom_1_1teragrep_1_1cfe__16_1_1TokenManager.html#a7f77170018e53e2f570fec2880081c31" target="_top" xlink:title=" ">
<polygon fill="white" stroke="#666666" points="406.5,-270 250.5,-270 250.5,-240 406.5,-240 406.5,-270"/>
<text text-anchor="start" x="258.5" y="-258" font-family="Helvetica,sans-Serif" font-size="10.00">com.teragrep.cfe_16.Token</text>
<text text-anchor="middle" x="328.5" y="-247" font-family="Helvetica,sans-Serif" font-size="10.00">Manager.getTokenFromBasic</text>
</a>
</g>
</g>
<!-- Node1&#45;&gt;Node9 -->
<g id="edge8_Node000001_Node000009" class="edge">
<title>Node1&#45;&gt;Node9</title>
<g id="a_edge8_Node000001_Node000009"><a xlink:title=" ">
<path fill="none" stroke="#63b8ff" d="M158.31,-238.59C184.31,-241.11 213.41,-243.94 240.05,-246.52"/>
<polygon fill="#63b8ff" stroke="#63b8ff" points="239.83,-250.02 250.12,-247.5 240.51,-243.05 239.83,-250.02"/>
</a>
</g>
</g>
<!-- Node10 -->
<g id="Node000010" class="node">
<title>Node10</title>
<g id="a_Node000010"><a xlink:href="classcom_1_1teragrep_1_1cfe__16_1_1service_1_1HECServiceImpl.html#a0082aeecf4b6ed3626a41248be9d9481" target="_top" xlink:title=" ">
<polygon fill="white" stroke="#666666" points="407.5,-222 249.5,-222 249.5,-192 407.5,-192 407.5,-222"/>
<text text-anchor="start" x="257.5" y="-210" font-family="Helvetica,sans-Serif" font-size="10.00">com.teragrep.cfe_16.service.</text>
<text text-anchor="middle" x="328.5" y="-199" font-family="Helvetica,sans-Serif" font-size="10.00">HECServiceImpl.headerInfo</text>
</a>
</g>
</g>
<!-- Node1&#45;&gt;Node10 -->
<g id="edge9_Node000001_Node000010" class="edge">
<title>Node1&#45;&gt;Node10</title>
<g id="a_edge9_Node000001_Node000010"><a xlink:title=" ">
<path fill="none" stroke="#63b8ff" d="M158.31,-223.41C184.05,-220.91 212.84,-218.12 239.27,-215.56"/>
<polygon fill="#63b8ff" stroke="#63b8ff" points="239.66,-219.03 249.27,-214.59 238.98,-212.07 239.66,-219.03"/>
</a>
</g>
</g>
<!-- Node11 -->
<g id="Node000011" class="node">
<title>Node11</title>
<g id="a_Node000011"><a xlink:href="classcom_1_1teragrep_1_1cfe__16_1_1Acknowledgements.html#a5307dc12a64ca957ae24430d09b372e1" target="_top" xlink:title=" ">
<polygon fill="white" stroke="#666666" points="463,-174 194,-174 194,-144 463,-144 463,-174"/>
<text text-anchor="start" x="202" y="-162" font-family="Helvetica,sans-Serif" font-size="10.00">com.teragrep.cfe_16.Acknowledgements.increment</text>
<text text-anchor="middle" x="328.5" y="-151" font-family="Helvetica,sans-Serif" font-size="10.00">AckValue</text>
</a>
</g>
</g>
<!-- Node1&#45;&gt;Node11 -->
<g id="edge10_Node000001_Node000011" class="edge">
<title>Node1&#45;&gt;Node11</title>
<g id="a_edge10_Node000001_Node000011"><a xlink:title=" ">
<path fill="none" stroke="#63b8ff" d="M110.77,-215.85C133.34,-205.29 164.97,-191.61 194,-183 202.28,-180.54 210.94,-178.3 219.68,-176.26"/>
<polygon fill="#63b8ff" stroke="#63b8ff" points="220.59,-179.64 229.58,-174.03 219.05,-172.81 220.59,-179.64"/>
</a>
</g>
</g>
<!-- Node16 -->
<g id="Node000016" class="node">
<title>Node16</title>
<g id="a_Node000016"><a xlink:href="classcom_1_1teragrep_1_1cfe__16_1_1Acknowledgements.html#a06622ee4fcccb291cf0c97cb55189d83" target="_top" xlink:title="This method has to be called first before calling any other Ack related methods.">
<polygon fill="white" stroke="#666666" points="459,-126 198,-126 198,-96 459,-96 459,-126"/>
<text text-anchor="start" x="206" y="-114" font-family="Helvetica,sans-Serif" font-size="10.00">com.teragrep.cfe_16.Acknowledgements.initialize</text>
<text text-anchor="middle" x="328.5" y="-103" font-family="Helvetica,sans-Serif" font-size="10.00">Context</text>
</a>
</g>
</g>
<!-- Node1&#45;&gt;Node16 -->
<g id="edge18_Node000001_Node000016" class="edge">
<title>Node1&#45;&gt;Node16</title>
<g id="a_edge18_Node000001_Node000016"><a xlink:title=" ">
<path fill="none" stroke="#63b8ff" d="M93.03,-215.87C112.61,-194.21 151.84,-154.79 194,-135 198.37,-132.95 202.89,-131.07 207.51,-129.36"/>
<polygon fill="#63b8ff" stroke="#63b8ff" points="208.82,-132.61 217.14,-126.06 206.54,-125.99 208.82,-132.61"/>
</a>
</g>
</g>
<!-- Node17 -->
<g id="Node000017" class="node">
<title>Node17</title>
<g id="a_Node000017"><a xlink:href="classcom_1_1teragrep_1_1cfe__16_1_1TokenManager.html#a687bbb785ceb8eeb5b314e44d0136279" target="_top" xlink:title=" ">
<polygon fill="white" stroke="#666666" points="402.5,-78 254.5,-78 254.5,-48 402.5,-48 402.5,-78"/>
<text text-anchor="start" x="262.5" y="-66" font-family="Helvetica,sans-Serif" font-size="10.00">com.teragrep.cfe_16.Token</text>
<text text-anchor="middle" x="328.5" y="-55" font-family="Helvetica,sans-Serif" font-size="10.00">Manager.isTokenInBasic</text>
</a>
</g>
</g>
<!-- Node1&#45;&gt;Node17 -->
<g id="edge19_Node000001_Node000017" class="edge">
<title>Node1&#45;&gt;Node17</title>
<g id="a_edge19_Node000001_Node000017"><a xlink:title=" ">
<path fill="none" stroke="#63b8ff" d="M87.25,-215.81C102.43,-185.77 140.65,-118.94 194,-87 209.12,-77.95 226.8,-72.14 244.26,-68.45"/>
<polygon fill="#63b8ff" stroke="#63b8ff" points="245.31,-71.81 254.49,-66.51 244.01,-64.93 245.31,-71.81"/>
</a>
</g>
</g>
<!-- Node18 -->
<g id="Node000018" class="node">
<title>Node18</title>
<g id="a_Node000018"><a xlink:href="classcom_1_1teragrep_1_1cfe__16_1_1TokenManager.html#a5d298916fc03c198d49fbf53205f88e8" target="_top" xlink:title=" ">
<polygon fill="white" stroke="#666666" points="402.5,-30 254.5,-30 254.5,0 402.5,0 402.5,-30"/>
<text text-anchor="start" x="262.5" y="-18" font-family="Helvetica,sans-Serif" font-size="10.00">com.teragrep.cfe_16.Token</text>
<text text-anchor="middle" x="328.5" y="-7" font-family="Helvetica,sans-Serif" font-size="10.00">Manager.tokenIsMissing</text>
</a>
</g>
</g>
<!-- Node1&#45;&gt;Node18 -->
<g id="edge20_Node000001_Node000018" class="edge">
<title>Node1&#45;&gt;Node18</title>
<g id="a_edge20_Node000001_Node000018"><a xlink:title=" ">
<path fill="none" stroke="#63b8ff" d="M84.24,-215.76C95.38,-178.77 129.18,-83.96 194,-39 208.78,-28.75 226.61,-22.48 244.37,-18.73"/>
<polygon fill="#63b8ff" stroke="#63b8ff" points="245.02,-22.17 254.21,-16.89 243.74,-15.29 245.02,-22.17"/>
</a>
</g>
</g>
<!-- Node3 -->
<g id="Node000003" class="node">
<title>Node3</title>
<g id="a_Node000003"><a xlink:href="classcom_1_1teragrep_1_1cfe__16_1_1Acknowledgements_1_1State.html#ad9d95fec84a00a574b21981fc673f10a" target="_top" xlink:title=" ">
<polygon fill="white" stroke="#666666" points="1038,-268 819,-268 819,-238 1038,-238 1038,-268"/>
<text text-anchor="start" x="827" y="-256" font-family="Helvetica,sans-Serif" font-size="10.00">com.teragrep.cfe_16.Acknowledgements.</text>
<text text-anchor="middle" x="928.5" y="-245" font-family="Helvetica,sans-Serif" font-size="10.00">State.getAckMap</text>
</a>
</g>
</g>
<!-- Node2&#45;&gt;Node3 -->
<g id="edge2_Node000002_Node000003" class="edge">
<title>Node2&#45;&gt;Node3</title>
<g id="a_edge2_Node000002_Node000003"><a xlink:title=" ">
<path fill="none" stroke="#63b8ff" d="M699.35,-403.5C725.82,-397.64 757.06,-388.58 783,-375 832.77,-348.95 880.57,-303.22 906.79,-275.75"/>
<polygon fill="#63b8ff" stroke="#63b8ff" points="909.6,-277.87 913.91,-268.19 904.5,-273.08 909.6,-277.87"/>
</a>
</g>
</g>
<!-- Node6 -->
<g id="Node000006" class="node">
<title>Node6</title>
<g id="a_Node000006"><a xlink:href="classcom_1_1teragrep_1_1cfe__16_1_1Acknowledgements_1_1State.html#aa1809213ec400ce2fccaff6cab3e244b" target="_top" xlink:title=" ">
<polygon fill="white" stroke="#666666" points="750.5,-316 531.5,-316 531.5,-286 750.5,-286 750.5,-316"/>
<text text-anchor="start" x="539.5" y="-304" font-family="Helvetica,sans-Serif" font-size="10.00">com.teragrep.cfe_16.Acknowledgements.</text>
<text text-anchor="middle" x="641" y="-293" font-family="Helvetica,sans-Serif" font-size="10.00">State.getCurrentAckValue</text>
</a>
</g>
</g>
<!-- Node5&#45;&gt;Node6 -->
<g id="edge5_Node000005_Node000006" class="edge">
<title>Node5&#45;&gt;Node6</title>
<g id="a_edge5_Node000005_Node000006"><a xlink:title=" ">
<path fill="none" stroke="#63b8ff" d="M422.66,-336C458.5,-330.23 499.63,-323.6 536.39,-317.68"/>
<polygon fill="#63b8ff" stroke="#63b8ff" points="537.32,-321.08 546.64,-316.03 536.21,-314.17 537.32,-321.08"/>
</a>
</g>
</g>
<!-- Node7 -->
<g id="Node000007" class="node">
<title>Node7</title>
<g id="a_Node000007"><a xlink:href="classcom_1_1teragrep_1_1cfe__16_1_1Acknowledgements.html#a0287e001c86209cd70554675e6dbf9eb" target="_top" xlink:title="A private Accessor for the State object indexed by the given auth token and channel.">
<polygon fill="white" stroke="#666666" points="758.5,-366 523.5,-366 523.5,-336 758.5,-336 758.5,-366"/>
<text text-anchor="start" x="531.5" y="-354" font-family="Helvetica,sans-Serif" font-size="10.00">com.teragrep.cfe_16.Acknowledgements.get</text>
<text text-anchor="middle" x="641" y="-343" font-family="Helvetica,sans-Serif" font-size="10.00">OrCreateState</text>
</a>
</g>
</g>
<!-- Node5&#45;&gt;Node7 -->
<g id="edge6_Node000005_Node000007" class="edge">
<title>Node5&#45;&gt;Node7</title>
<g id="a_edge6_Node000005_Node000007"><a xlink:title=" ">
<path fill="none" stroke="#63b8ff" d="M446,-351C467.94,-351 490.98,-351 513.21,-351"/>
<polygon fill="#63b8ff" stroke="#63b8ff" points="513.36,-354.5 523.36,-351 513.36,-347.5 513.36,-354.5"/>
</a>
</g>
</g>
<!-- Node11&#45;&gt;Node3 -->
<g id="edge13_Node000011_Node000003" class="edge">
<title>Node11&#45;&gt;Node3</title>
<g id="a_edge13_Node000011_Node000003"><a xlink:title=" ">
<path fill="none" stroke="#63b8ff" d="M445.98,-174.06C451.92,-176.62 457.64,-179.58 463,-183 486.4,-197.9 474.65,-220.69 499,-234 550.39,-262.09 700.41,-262.83 808.45,-259.23"/>
<polygon fill="#63b8ff" stroke="#63b8ff" points="808.9,-262.72 818.77,-258.87 808.65,-255.72 808.9,-262.72"/>
</a>
</g>
</g>
<!-- Node11&#45;&gt;Node6 -->
<g id="edge15_Node000011_Node000006" class="edge">
<title>Node11&#45;&gt;Node6</title>
<g id="a_edge15_Node000011_Node000006"><a xlink:title=" ">
<path fill="none" stroke="#63b8ff" d="M449.43,-174.08C454.21,-176.67 458.76,-179.63 463,-183 494.79,-208.28 467.97,-240.79 499,-267 505.99,-272.91 513.84,-277.82 522.17,-281.9"/>
<polygon fill="#63b8ff" stroke="#63b8ff" points="520.81,-285.13 531.37,-286.02 523.67,-278.74 520.81,-285.13"/>
</a>
</g>
</g>
<!-- Node12 -->
<g id="Node000012" class="node">
<title>Node12</title>
<g id="a_Node000012"><a xlink:href="classcom_1_1teragrep_1_1cfe__16_1_1Acknowledgements.html#a7a9570efce9732f5f674e9ea85017439" target="_top" xlink:title=" ">
<polygon fill="white" stroke="#666666" points="762,-225 520,-225 520,-195 762,-195 762,-225"/>
<text text-anchor="start" x="528" y="-213" font-family="Helvetica,sans-Serif" font-size="10.00">com.teragrep.cfe_16.Acknowledgements.acks</text>
<text text-anchor="middle" x="641" y="-202" font-family="Helvetica,sans-Serif" font-size="10.00">Available</text>
</a>
</g>
</g>
<!-- Node11&#45;&gt;Node12 -->
<g id="edge11_Node000011_Node000012" class="edge">
<title>Node11&#45;&gt;Node12</title>
<g id="a_edge11_Node000011_Node000012"><a xlink:title=" ">
<path fill="none" stroke="#63b8ff" d="M420.98,-174.03C457.93,-180.09 500.71,-187.12 538.6,-193.35"/>
<polygon fill="#63b8ff" stroke="#63b8ff" points="538.2,-196.83 548.64,-194.99 539.34,-189.92 538.2,-196.83"/>
</a>
</g>
</g>
<!-- Node13 -->
<g id="Node000013" class="node">
<title>Node13</title>
<g id="a_Node000013"><a xlink:href="classcom_1_1teragrep_1_1cfe__16_1_1Acknowledgements_1_1State.html#a7d72966efb4505634712c4c64c96440c" target="_top" xlink:title=" ">
<polygon fill="white" stroke="#666666" points="750.5,-177 531.5,-177 531.5,-147 750.5,-147 750.5,-177"/>
<text text-anchor="start" x="539.5" y="-165" font-family="Helvetica,sans-Serif" font-size="10.00">com.teragrep.cfe_16.Acknowledgements.</text>
<text text-anchor="middle" x="641" y="-154" font-family="Helvetica,sans-Serif" font-size="10.00">State.getAckToCompare</text>
</a>
</g>
</g>
<!-- Node11&#45;&gt;Node13 -->
<g id="edge14_Node000011_Node000013" class="edge">
<title>Node11&#45;&gt;Node13</title>
<g id="a_edge14_Node000011_Node000013"><a xlink:title=" ">
<path fill="none" stroke="#63b8ff" d="M463.43,-160.29C482.63,-160.48 502.28,-160.67 521.16,-160.85"/>
<polygon fill="#63b8ff" stroke="#63b8ff" points="521.22,-164.35 531.26,-160.95 521.29,-157.35 521.22,-164.35"/>
</a>
</g>
</g>
<!-- Node14 -->
<g id="Node000014" class="node">
<title>Node14</title>
<g id="a_Node000014"><a xlink:href="classcom_1_1teragrep_1_1cfe__16_1_1Acknowledgements_1_1State.html#ab460c6226ddd97252506f01f11cf9f3d" target="_top" xlink:title=" ">
<polygon fill="white" stroke="#666666" points="750.5,-129 531.5,-129 531.5,-99 750.5,-99 750.5,-129"/>
<text text-anchor="start" x="539.5" y="-117" font-family="Helvetica,sans-Serif" font-size="10.00">com.teragrep.cfe_16.Acknowledgements.</text>
<text text-anchor="middle" x="641" y="-106" font-family="Helvetica,sans-Serif" font-size="10.00">State.setAckToCompare</text>
</a>
</g>
</g>
<!-- Node11&#45;&gt;Node14 -->
<g id="edge16_Node000011_Node000014" class="edge">
<title>Node11&#45;&gt;Node14</title>
<g id="a_edge16_Node000011_Node000014"><a xlink:title=" ">
<path fill="none" stroke="#63b8ff" d="M433.32,-143.95C463.1,-139.64 495.72,-134.91 526.08,-130.51"/>
<polygon fill="#63b8ff" stroke="#63b8ff" points="526.88,-133.93 536.27,-129.03 525.88,-127 526.88,-133.93"/>
</a>
</g>
</g>
<!-- Node15 -->
<g id="Node000015" class="node">
<title>Node15</title>
<g id="a_Node000015"><a xlink:href="classcom_1_1teragrep_1_1cfe__16_1_1Acknowledgements_1_1State.html#a2ce209b2faca53446cccd40bc4de2726" target="_top" xlink:title=" ">
<polygon fill="white" stroke="#666666" points="750.5,-81 531.5,-81 531.5,-51 750.5,-51 750.5,-81"/>
<text text-anchor="start" x="539.5" y="-69" font-family="Helvetica,sans-Serif" font-size="10.00">com.teragrep.cfe_16.Acknowledgements.</text>
<text text-anchor="middle" x="641" y="-58" font-family="Helvetica,sans-Serif" font-size="10.00">State.setCurrentAckValue</text>
</a>
</g>
</g>
<!-- Node11&#45;&gt;Node15 -->
<g id="edge17_Node000011_Node000015" class="edge">
<title>Node11&#45;&gt;Node15</title>
<g id="a_edge17_Node000011_Node000015"><a xlink:title=" ">
<path fill="none" stroke="#63b8ff" d="M444.74,-143.96C451.1,-141.4 457.23,-138.43 463,-135 485.01,-121.9 476.93,-103 499,-90 506.07,-85.83 513.67,-82.34 521.54,-79.42"/>
<polygon fill="#63b8ff" stroke="#63b8ff" points="522.9,-82.66 531.25,-76.14 520.66,-76.03 522.9,-82.66"/>
</a>
</g>
</g>
<!-- Node12&#45;&gt;Node3 -->
<g id="edge12_Node000012_Node000003" class="edge">
<title>Node12&#45;&gt;Node3</title>
<g id="a_edge12_Node000012_Node000003"><a xlink:title=" ">
<path fill="none" stroke="#63b8ff" d="M741.85,-225.04C766.3,-228.72 792.6,-232.68 817.5,-236.43"/>
<polygon fill="#63b8ff" stroke="#63b8ff" points="817.29,-239.94 827.7,-237.97 818.34,-233.02 817.29,-239.94"/>
</a>
</g>
</g>
</g>
</svg>
