<?xml version="1.0" encoding="UTF-8" standalone="no"?>
<!DOCTYPE svg PUBLIC "-//W3C//DTD SVG 1.1//EN"
 "http://www.w3.org/Graphics/SVG/1.1/DTD/svg11.dtd">
<!-- Generated by graphviz version 2.43.0 (0)
 -->
<!-- Title: com.teragrep.cfe_16.bo.HECRecordImpl Pages: 1 -->
<svg width="1140pt" height="145pt"
 viewBox="0.00 0.00 1140.00 144.50" xmlns="http://www.w3.org/2000/svg" xmlns:xlink="http://www.w3.org/1999/xlink">
<g id="graph0" class="graph" transform="scale(1 1) rotate(0) translate(4 140.5)">
<title>com.teragrep.cfe_16.bo.HECRecordImpl</title>
<!-- Node1 -->
<g id="Node000001" class="node">
<title>Node1</title>
<g id="a_Node000001"><a xlink:title=" ">
<polygon fill="#999999" stroke="#666666" points="1132,-103.5 921,-103.5 921,-84.5 1132,-84.5 1132,-103.5"/>
<text text-anchor="middle" x="1026.5" y="-91.5" font-family="Helvetica,sans-Serif" font-size="10.00">com.teragrep.cfe_16.bo.HECRecordImpl</text>
</a>
</g>
</g>
<!-- Node2 -->
<g id="Node000002" class="node">
<title>Node2</title>
<g id="a_Node000002"><a xlink:href="interfacecom_1_1teragrep_1_1cfe__16_1_1bo_1_1HECRecord.html" target="_top" xlink:title=" ">
<polygon fill="white" stroke="#666666" points="622,-136.5 433,-136.5 433,-117.5 622,-117.5 622,-136.5"/>
<text text-anchor="middle" x="527.5" y="-124.5" font-family="Helvetica,sans-Serif" font-size="10.00">com.teragrep.cfe_16.bo.HECRecord</text>
</a>
</g>
</g>
<!-- Node2&#45;&gt;Node1 -->
<g id="edge1_Node000001_Node000002" class="edge">
<title>Node2&#45;&gt;Node1</title>
<g id="a_edge1_Node000001_Node000002"><a xlink:title=" ">
<path fill="none" stroke="#63b8ff" d="M632.43,-120.1C717.1,-114.48 836.11,-106.57 920.96,-100.94"/>
<polygon fill="#63b8ff" stroke="#63b8ff" points="632.02,-116.62 622.27,-120.77 632.48,-123.6 632.02,-116.62"/>
</a>
</g>
</g>
<!-- Node3 -->
<g id="Node000003" class="node">
<title>Node3</title>
<g id="a_Node000003"><a xlink:href="interfacecom_1_1teragrep_1_1cfe__16_1_1Stubable.html" target="_top" xlink:title=" ">
<polygon fill="white" stroke="#666666" points="163,-88.5 0,-88.5 0,-69.5 163,-69.5 163,-88.5"/>
<text text-anchor="middle" x="81.5" y="-76.5" font-family="Helvetica,sans-Serif" font-size="10.00">com.teragrep.cfe_16.Stubable</text>
</a>
</g>
</g>
<!-- Node3&#45;&gt;Node2 -->
<g id="edge2_Node000002_Node000003" class="edge">
<title>Node3&#45;&gt;Node2</title>
<g id="a_edge2_Node000002_Node000003"><a xlink:title=" ">
<path fill="none" stroke="#63b8ff" d="M117.43,-91.91C140.52,-99.81 171.65,-109.29 200,-114 277.79,-126.92 367.36,-129.65 432.99,-129.43"/>
<polygon fill="#63b8ff" stroke="#63b8ff" points="118.33,-88.52 107.74,-88.52 116.02,-95.12 118.33,-88.52"/>
</a>
</g>
</g>
<!-- Node5 -->
<g id="Node000005" class="node">
<title>Node5</title>
<g id="a_Node000005"><a xlink:href="interfacecom_1_1teragrep_1_1cfe__16_1_1bo_1_1XForwardedFor.html" target="_top" xlink:title=" ">
<polygon fill="white" stroke="#666666" points="411.5,-104.5 203.5,-104.5 203.5,-85.5 411.5,-85.5 411.5,-104.5"/>
<text text-anchor="middle" x="307.5" y="-92.5" font-family="Helvetica,sans-Serif" font-size="10.00">com.teragrep.cfe_16.bo.XForwardedFor</text>
</a>
</g>
</g>
<!-- Node3&#45;&gt;Node5 -->
<g id="edge5_Node000005_Node000003" class="edge">
<title>Node3&#45;&gt;Node5</title>
<g id="a_edge5_Node000005_Node000003"><a xlink:title=" ">
<path fill="none" stroke="#63b8ff" d="M173.25,-85.48C183.13,-86.19 193.24,-86.91 203.25,-87.63"/>
<polygon fill="#63b8ff" stroke="#63b8ff" points="173.28,-81.98 163.05,-84.75 172.78,-88.96 173.28,-81.98"/>
</a>
</g>
</g>
<!-- Node6 -->
<g id="Node000006" class="node">
<title>Node6</title>
<g id="a_Node000006"><a xlink:href="interfacecom_1_1teragrep_1_1cfe__16_1_1bo_1_1XForwardedHost.html" target="_top" xlink:title=" ">
<polygon fill="white" stroke="#666666" points="415,-67.5 200,-67.5 200,-48.5 415,-48.5 415,-67.5"/>
<text text-anchor="middle" x="307.5" y="-55.5" font-family="Helvetica,sans-Serif" font-size="10.00">com.teragrep.cfe_16.bo.XForwardedHost</text>
</a>
</g>
</g>
<!-- Node3&#45;&gt;Node6 -->
<g id="edge7_Node000006_Node000003" class="edge">
<title>Node3&#45;&gt;Node6</title>
<g id="a_edge7_Node000006_Node000003"><a xlink:title=" ">
<path fill="none" stroke="#63b8ff" d="M173.32,-70.49C183.69,-69.51 194.31,-68.52 204.81,-67.53"/>
<polygon fill="#63b8ff" stroke="#63b8ff" points="172.68,-67.03 163.05,-71.45 173.34,-74 172.68,-67.03"/>
</a>
</g>
</g>
<!-- Node7 -->
<g id="Node000007" class="node">
<title>Node7</title>
<g id="a_Node000007"><a xlink:href="interfacecom_1_1teragrep_1_1cfe__16_1_1bo_1_1XForwardedProto.html" target="_top" xlink:title=" ">
<polygon fill="white" stroke="#666666" points="404,-30 211,-30 211,0 404,0 404,-30"/>
<text text-anchor="start" x="219" y="-18" font-family="Helvetica,sans-Serif" font-size="10.00">com.teragrep.cfe_16.bo.XForwarded</text>
<text text-anchor="middle" x="307.5" y="-7" font-family="Helvetica,sans-Serif" font-size="10.00">Proto</text>
</a>
</g>
</g>
<!-- Node3&#45;&gt;Node7 -->
<g id="edge9_Node000007_Node000003" class="edge">
<title>Node3&#45;&gt;Node7</title>
<g id="a_edge9_Node000007_Node000003"><a xlink:title=" ">
<path fill="none" stroke="#63b8ff" d="M118.61,-66.08C141.72,-58.04 172.43,-47.79 200,-40 212.34,-36.51 225.57,-33.13 238.37,-30.03"/>
<polygon fill="#63b8ff" stroke="#63b8ff" points="117.17,-62.88 108.89,-69.48 119.48,-69.48 117.17,-62.88"/>
</a>
</g>
</g>
<!-- Node4 -->
<g id="Node000004" class="node">
<title>Node4</title>
<g id="a_Node000004"><a xlink:href="classcom_1_1teragrep_1_1cfe__16_1_1bo_1_1HeaderInfo.html" target="_top" xlink:title=" ">
<polygon fill="white" stroke="#666666" points="829,-79.5 640,-79.5 640,-60.5 829,-60.5 829,-79.5"/>
<text text-anchor="middle" x="734.5" y="-67.5" font-family="Helvetica,sans-Serif" font-size="10.00">com.teragrep.cfe_16.bo.HeaderInfo</text>
</a>
</g>
</g>
<!-- Node4&#45;&gt;Node1 -->
<g id="edge3_Node000001_Node000004" class="edge">
<title>Node4&#45;&gt;Node1</title>
<g id="a_edge3_Node000001_Node000004"><a xlink:title=" ">
<path fill="none" stroke="#9a32cd" stroke-dasharray="5,2" d="M839.29,-78.59C865.77,-80.78 894.24,-83.14 920.76,-85.33"/>
<polygon fill="#9a32cd" stroke="#9a32cd" points="839.51,-75.1 829.25,-77.76 838.93,-82.07 839.51,-75.1"/>
</a>
</g>
<text text-anchor="middle" x="875" y="-86" font-family="Helvetica,sans-Serif" font-size="10.00" fill="grey"> headerInfo</text>
</g>
<!-- Node5&#45;&gt;Node4 -->
<g id="edge4_Node000004_Node000005" class="edge">
<title>Node5&#45;&gt;Node4</title>
<g id="a_edge4_Node000004_Node000005"><a xlink:title=" ">
<path fill="none" stroke="#9a32cd" stroke-dasharray="5,2" d="M421.99,-88.32C490.01,-84.32 575.47,-79.3 639.67,-75.52"/>
<polygon fill="#9a32cd" stroke="#9a32cd" points="421.43,-84.85 411.65,-88.93 421.84,-91.84 421.43,-84.85"/>
</a>
</g>
<text text-anchor="middle" x="527.5" y="-90" font-family="Helvetica,sans-Serif" font-size="10.00" fill="grey"> xForwardedFor</text>
</g>
<!-- Node6&#45;&gt;Node4 -->
<g id="edge6_Node000004_Node000006" class="edge">
<title>Node6&#45;&gt;Node4</title>
<g id="a_edge6_Node000004_Node000006"><a xlink:title=" ">
<path fill="none" stroke="#9a32cd" stroke-dasharray="5,2" d="M425.3,-57.15C484.3,-57.22 556.98,-58.07 622,-61 627.82,-61.26 633.81,-61.59 639.84,-61.96"/>
<polygon fill="#9a32cd" stroke="#9a32cd" points="425.2,-53.65 415.2,-57.15 425.2,-60.65 425.2,-53.65"/>
</a>
</g>
<text text-anchor="middle" x="527.5" y="-64" font-family="Helvetica,sans-Serif" font-size="10.00" fill="grey"> xForwardedHost</text>
</g>
<!-- Node7&#45;&gt;Node4 -->
<g id="edge8_Node000004_Node000007" class="edge">
<title>Node7&#45;&gt;Node4</title>
<g id="a_edge8_Node000004_Node000007"><a xlink:title=" ">
<path fill="none" stroke="#9a32cd" stroke-dasharray="5,2" d="M414.04,-19.87C475.1,-23.74 553.23,-30.48 622,-42 648.97,-46.52 679,-54.22 701.1,-60.4"/>
<polygon fill="#9a32cd" stroke="#9a32cd" points="414.2,-16.37 404,-19.25 413.77,-23.36 414.2,-16.37"/>
</a>
</g>
<text text-anchor="middle" x="527.5" y="-45" font-family="Helvetica,sans-Serif" font-size="10.00" fill="grey"> xForwardedProto</text>
</g>
</g>
</svg>
