<?xml version="1.0" encoding="UTF-8" standalone="no"?>
<!DOCTYPE svg PUBLIC "-//W3C//DTD SVG 1.1//EN"
 "http://www.w3.org/Graphics/SVG/1.1/DTD/svg11.dtd">
<!-- Generated by graphviz version 2.43.0 (0)
 -->
<!-- Title: com.teragrep.cfe_16.bo.HECRecordImpl.toSyslogMessage Pages: 1 -->
<svg width="654pt" height="231pt"
 viewBox="0.00 0.00 654.00 230.50" xmlns="http://www.w3.org/2000/svg" xmlns:xlink="http://www.w3.org/1999/xlink">
<g id="graph0" class="graph" transform="scale(1 1) rotate(0) translate(4 226.5)">
<title>com.teragrep.cfe_16.bo.HECRecordImpl.toSyslogMessage</title>
<!-- Node1 -->
<g id="Node000001" class="node">
<title>Node1</title>
<g id="a_Node000001"><a xlink:title=" ">
<polygon fill="#999999" stroke="#666666" points="189,-76 0,-76 0,-46 189,-46 189,-76"/>
<text text-anchor="start" x="8" y="-64" font-family="Helvetica,sans-Serif" font-size="10.00">com.teragrep.cfe_16.bo.HECRecord</text>
<text text-anchor="middle" x="94.5" y="-53" font-family="Helvetica,sans-Serif" font-size="10.00">Impl.toSyslogMessage</text>
</a>
</g>
</g>
<!-- Node2 -->
<g id="Node000002" class="node">
<title>Node2</title>
<g id="a_Node000002"><a xlink:href="classcom_1_1teragrep_1_1cfe__16_1_1bo_1_1HeaderInfo.html#a75b003348c0432bd23b5d10615237da1" target="_top" xlink:title=" ">
<polygon fill="white" stroke="#666666" points="404.5,-148 234.5,-148 234.5,-118 404.5,-118 404.5,-148"/>
<text text-anchor="start" x="242.5" y="-136" font-family="Helvetica,sans-Serif" font-size="10.00">com.teragrep.cfe_16.bo.Header</text>
<text text-anchor="middle" x="319.5" y="-125" font-family="Helvetica,sans-Serif" font-size="10.00">Info.asSDElement</text>
</a>
</g>
</g>
<!-- Node1&#45;&gt;Node2 -->
<g id="edge1_Node000001_Node000002" class="edge">
<title>Node1&#45;&gt;Node2</title>
<g id="a_edge1_Node000001_Node000002"><a xlink:title=" ">
<path fill="none" stroke="#63b8ff" d="M132.83,-76.01C158.51,-86.04 193.53,-99.16 225,-109 231.87,-111.15 239.07,-113.25 246.3,-115.27"/>
<polygon fill="#63b8ff" stroke="#63b8ff" points="245.56,-118.69 256.13,-117.95 247.41,-111.94 245.56,-118.69"/>
</a>
</g>
</g>
<!-- Node7 -->
<g id="Node000007" class="node">
<title>Node7</title>
<g id="a_Node000007"><a xlink:href="classcom_1_1teragrep_1_1cfe__16_1_1bo_1_1HECRecordImpl.html#a764bbd429e4904118592b16636ec3040" target="_top" xlink:title=" ">
<polygon fill="white" stroke="#666666" points="414,-100 225,-100 225,-70 414,-70 414,-100"/>
<text text-anchor="start" x="233" y="-88" font-family="Helvetica,sans-Serif" font-size="10.00">com.teragrep.cfe_16.bo.HECRecord</text>
<text text-anchor="middle" x="319.5" y="-77" font-family="Helvetica,sans-Serif" font-size="10.00">Impl.event</text>
</a>
</g>
</g>
<!-- Node1&#45;&gt;Node7 -->
<g id="edge6_Node000001_Node000007" class="edge">
<title>Node1&#45;&gt;Node7</title>
<g id="a_edge6_Node000001_Node000007"><a xlink:title=" ">
<path fill="none" stroke="#63b8ff" d="M189.1,-71.07C197.58,-71.99 206.21,-72.91 214.77,-73.84"/>
<polygon fill="#63b8ff" stroke="#63b8ff" points="214.46,-77.32 224.78,-74.91 215.21,-70.36 214.46,-77.32"/>
</a>
</g>
</g>
<!-- Node8 -->
<g id="Node000008" class="node">
<title>Node8</title>
<g id="a_Node000008"><a xlink:href="classcom_1_1teragrep_1_1cfe__16_1_1bo_1_1HECRecordImpl.html#a3b14a495b0bfbe1c588cfcdf7f26c351" target="_top" xlink:title=" ">
<polygon fill="white" stroke="#666666" points="414,-52 225,-52 225,-22 414,-22 414,-52"/>
<text text-anchor="start" x="233" y="-40" font-family="Helvetica,sans-Serif" font-size="10.00">com.teragrep.cfe_16.bo.HECRecord</text>
<text text-anchor="middle" x="319.5" y="-29" font-family="Helvetica,sans-Serif" font-size="10.00">Impl.structuredDataParams</text>
</a>
</g>
</g>
<!-- Node1&#45;&gt;Node8 -->
<g id="edge7_Node000001_Node000008" class="edge">
<title>Node1&#45;&gt;Node8</title>
<g id="a_edge7_Node000001_Node000008"><a xlink:title=" ">
<path fill="none" stroke="#63b8ff" d="M189.1,-50.93C197.58,-50.01 206.21,-49.09 214.77,-48.16"/>
<polygon fill="#63b8ff" stroke="#63b8ff" points="215.21,-51.64 224.78,-47.09 214.46,-44.68 215.21,-51.64"/>
</a>
</g>
</g>
<!-- Node9 -->
<g id="Node000009" class="node">
<title>Node9</title>
<g id="a_Node000009"><a xlink:href="classcom_1_1teragrep_1_1cfe__16_1_1bo_1_1HECRecordImpl.html#a0d836324399398560ad89b2125f38014" target="_top" xlink:title=" ">
<polygon fill="white" stroke="#666666" points="642.5,-30 453.5,-30 453.5,0 642.5,0 642.5,-30"/>
<text text-anchor="start" x="461.5" y="-18" font-family="Helvetica,sans-Serif" font-size="10.00">com.teragrep.cfe_16.bo.HECRecord</text>
<text text-anchor="middle" x="548" y="-7" font-family="Helvetica,sans-Serif" font-size="10.00">Impl.time</text>
</a>
</g>
</g>
<!-- Node1&#45;&gt;Node9 -->
<g id="edge9_Node000001_Node000009" class="edge">
<title>Node1&#45;&gt;Node9</title>
<g id="a_edge9_Node000001_Node000009"><a xlink:title=" ">
<path fill="none" stroke="#63b8ff" d="M126.55,-45.92C152.25,-34.33 190.07,-19.27 225,-13 297.08,-0.07 379.7,-0.9 443.21,-4.79"/>
<polygon fill="#63b8ff" stroke="#63b8ff" points="443.02,-8.28 453.23,-5.44 443.48,-1.3 443.02,-8.28"/>
</a>
</g>
</g>
<!-- Node3 -->
<g id="Node000003" class="node">
<title>Node3</title>
<g id="a_Node000003"><a xlink:href="interfacecom_1_1teragrep_1_1cfe__16_1_1Stubable.html#a8e854db1814eeb807cd9049776c33923" target="_top" xlink:title=" ">
<polygon fill="white" stroke="#666666" points="646,-222.5 450,-222.5 450,-203.5 646,-203.5 646,-222.5"/>
<text text-anchor="middle" x="548" y="-210.5" font-family="Helvetica,sans-Serif" font-size="10.00">com.teragrep.cfe_16.Stubable.isStub</text>
</a>
</g>
</g>
<!-- Node2&#45;&gt;Node3 -->
<g id="edge2_Node000002_Node000003" class="edge">
<title>Node2&#45;&gt;Node3</title>
<g id="a_edge2_Node000002_Node000003"><a xlink:title=" ">
<path fill="none" stroke="#63b8ff" d="M347.48,-148.12C373.13,-161.91 413.16,-181.92 450,-194 458.35,-196.74 467.25,-199.14 476.13,-201.23"/>
<polygon fill="#63b8ff" stroke="#63b8ff" points="475.6,-204.7 486.13,-203.47 477.13,-197.87 475.6,-204.7"/>
</a>
</g>
</g>
<!-- Node4 -->
<g id="Node000004" class="node">
<title>Node4</title>
<g id="a_Node000004"><a xlink:href="interfacecom_1_1teragrep_1_1cfe__16_1_1bo_1_1XForwardedFor.html#a113b5e3c48eba97ef47b0dbcb64ef592" target="_top" xlink:title=" ">
<polygon fill="white" stroke="#666666" points="644.5,-185 451.5,-185 451.5,-155 644.5,-155 644.5,-185"/>
<text text-anchor="start" x="459.5" y="-173" font-family="Helvetica,sans-Serif" font-size="10.00">com.teragrep.cfe_16.bo.XForwarded</text>
<text text-anchor="middle" x="548" y="-162" font-family="Helvetica,sans-Serif" font-size="10.00">For.value</text>
</a>
</g>
</g>
<!-- Node2&#45;&gt;Node4 -->
<g id="edge3_Node000002_Node000004" class="edge">
<title>Node2&#45;&gt;Node4</title>
<g id="a_edge3_Node000002_Node000004"><a xlink:title=" ">
<path fill="none" stroke="#63b8ff" d="M404.52,-146.72C417.66,-148.87 431.37,-151.11 444.86,-153.32"/>
<polygon fill="#63b8ff" stroke="#63b8ff" points="444.69,-156.83 455.13,-154.99 445.82,-149.93 444.69,-156.83"/>
</a>
</g>
</g>
<!-- Node5 -->
<g id="Node000005" class="node">
<title>Node5</title>
<g id="a_Node000005"><a xlink:href="interfacecom_1_1teragrep_1_1cfe__16_1_1bo_1_1XForwardedHost.html#af36e894a4b77acf609737e584479e182" target="_top" xlink:title=" ">
<polygon fill="white" stroke="#666666" points="644.5,-137 451.5,-137 451.5,-107 644.5,-107 644.5,-137"/>
<text text-anchor="start" x="459.5" y="-125" font-family="Helvetica,sans-Serif" font-size="10.00">com.teragrep.cfe_16.bo.XForwarded</text>
<text text-anchor="middle" x="548" y="-114" font-family="Helvetica,sans-Serif" font-size="10.00">Host.value</text>
</a>
</g>
</g>
<!-- Node2&#45;&gt;Node5 -->
<g id="edge4_Node000002_Node000005" class="edge">
<title>Node2&#45;&gt;Node5</title>
<g id="a_edge4_Node000002_Node000005"><a xlink:title=" ">
<path fill="none" stroke="#63b8ff" d="M404.52,-128.92C416.42,-128.34 428.78,-127.74 441.03,-127.15"/>
<polygon fill="#63b8ff" stroke="#63b8ff" points="441.46,-130.63 451.28,-126.65 441.12,-123.64 441.46,-130.63"/>
</a>
</g>
</g>
<!-- Node6 -->
<g id="Node000006" class="node">
<title>Node6</title>
<g id="a_Node000006"><a xlink:href="interfacecom_1_1teragrep_1_1cfe__16_1_1bo_1_1XForwardedProto.html#a43d7fb30c973c1c89906b9ac3b928e06" target="_top" xlink:title=" ">
<polygon fill="white" stroke="#666666" points="644.5,-89 451.5,-89 451.5,-59 644.5,-59 644.5,-89"/>
<text text-anchor="start" x="459.5" y="-77" font-family="Helvetica,sans-Serif" font-size="10.00">com.teragrep.cfe_16.bo.XForwarded</text>
<text text-anchor="middle" x="548" y="-66" font-family="Helvetica,sans-Serif" font-size="10.00">Proto.value</text>
</a>
</g>
</g>
<!-- Node2&#45;&gt;Node6 -->
<g id="edge5_Node000002_Node000006" class="edge">
<title>Node2&#45;&gt;Node6</title>
<g id="a_edge5_Node000002_Node000006"><a xlink:title=" ">
<path fill="none" stroke="#63b8ff" d="M380.71,-117.97C391.81,-115.08 403.27,-112.01 414,-109 430.11,-104.47 433.87,-102.46 450,-98 457.79,-95.85 465.95,-93.69 474.1,-91.59"/>
<polygon fill="#63b8ff" stroke="#63b8ff" points="475.17,-94.93 484,-89.06 473.44,-88.14 475.17,-94.93"/>
</a>
</g>
</g>
<!-- Node8&#45;&gt;Node9 -->
<g id="edge8_Node000008_Node000009" class="edge">
<title>Node8&#45;&gt;Node9</title>
<g id="a_edge8_Node000008_Node000009"><a xlink:title=" ">
<path fill="none" stroke="#63b8ff" d="M414.26,-27.89C423.84,-26.96 433.6,-26.01 443.27,-25.07"/>
<polygon fill="#63b8ff" stroke="#63b8ff" points="443.69,-28.55 453.31,-24.1 443.02,-21.58 443.69,-28.55"/>
</a>
</g>
</g>
</g>
</svg>
