<?xml version="1.0" encoding="UTF-8" standalone="no"?>
<!DOCTYPE svg PUBLIC "-//W3C//DTD SVG 1.1//EN"
 "http://www.w3.org/Graphics/SVG/1.1/DTD/svg11.dtd">
<!-- Generated by graphviz version 2.43.0 (0)
 -->
<!-- Title: com.teragrep.cfe_16.event.time.HECTimeImpl.instant Pages: 1 -->
<svg width="396pt" height="134pt"
 viewBox="0.00 0.00 396.00 134.00" xmlns="http://www.w3.org/2000/svg" xmlns:xlink="http://www.w3.org/1999/xlink">
<g id="graph0" class="graph" transform="scale(1 1) rotate(0) translate(4 130)">
<title>com.teragrep.cfe_16.event.time.HECTimeImpl.instant</title>
<!-- Node1 -->
<g id="Node000001" class="node">
<title>Node1</title>
<g id="a_Node000001"><a xlink:title=" ">
<polygon fill="#999999" stroke="#666666" points="176,-78 0,-78 0,-48 176,-48 176,-78"/>
<text text-anchor="start" x="8" y="-66" font-family="Helvetica,sans-Serif" font-size="10.00">com.teragrep.cfe_16.event.time.</text>
<text text-anchor="middle" x="88" y="-55" font-family="Helvetica,sans-Serif" font-size="10.00">HECTimeImpl.instant</text>
</a>
</g>
</g>
<!-- Node2 -->
<g id="Node000002" class="node">
<title>Node2</title>
<g id="a_Node000002"><a xlink:href="interfacecom_1_1teragrep_1_1cfe__16_1_1event_1_1JsonEvent.html#a288d2f741c18567688e748e97d63e702" target="_top" xlink:title=" ">
<polygon fill="white" stroke="#666666" points="375.5,-126 224.5,-126 224.5,-96 375.5,-96 375.5,-126"/>
<text text-anchor="start" x="232.5" y="-114" font-family="Helvetica,sans-Serif" font-size="10.00">com.teragrep.cfe_16.event.</text>
<text text-anchor="middle" x="300" y="-103" font-family="Helvetica,sans-Serif" font-size="10.00">JsonEvent.asTimeJsonNode</text>
</a>
</g>
</g>
<!-- Node1&#45;&gt;Node2 -->
<g id="edge1_Node000001_Node000002" class="edge">
<title>Node1&#45;&gt;Node2</title>
<g id="a_edge1_Node000001_Node000002"><a xlink:title=" ">
<path fill="none" stroke="#63b8ff" d="M154.87,-78.06C176.66,-83.04 201.08,-88.62 223.54,-93.75"/>
<polygon fill="#63b8ff" stroke="#63b8ff" points="222.84,-97.18 233.36,-96 224.4,-90.36 222.84,-97.18"/>
</a>
</g>
</g>
<!-- Node3 -->
<g id="Node000003" class="node">
<title>Node3</title>
<g id="a_Node000003"><a xlink:href="interfacecom_1_1teragrep_1_1cfe__16_1_1event_1_1JsonEvent.html#a439225059ec04496519dc5820e11428d" target="_top" xlink:title=" ">
<polygon fill="white" stroke="#666666" points="375.5,-78 224.5,-78 224.5,-48 375.5,-48 375.5,-78"/>
<text text-anchor="start" x="232.5" y="-66" font-family="Helvetica,sans-Serif" font-size="10.00">com.teragrep.cfe_16.event.</text>
<text text-anchor="middle" x="300" y="-55" font-family="Helvetica,sans-Serif" font-size="10.00">JsonEvent.hasTime</text>
</a>
</g>
</g>
<!-- Node1&#45;&gt;Node3 -->
<g id="edge2_Node000001_Node000003" class="edge">
<title>Node1&#45;&gt;Node3</title>
<g id="a_edge2_Node000001_Node000003"><a xlink:title=" ">
<path fill="none" stroke="#63b8ff" d="M176.23,-63C188.74,-63 201.58,-63 214.04,-63"/>
<polygon fill="#63b8ff" stroke="#63b8ff" points="214.4,-66.5 224.4,-63 214.4,-59.5 214.4,-66.5"/>
</a>
</g>
</g>
<!-- Node4 -->
<g id="Node000004" class="node">
<title>Node4</title>
<g id="a_Node000004"><a xlink:href="classcom_1_1teragrep_1_1cfe__16_1_1event_1_1time_1_1HECTimeImpl.html#afcddb1910a847eece8154b0acba3c7ee" target="_top" xlink:title="Takes a double value as a parameter, removes the decimal point from that value and returns the number...">
<polygon fill="white" stroke="#666666" points="388,-30 212,-30 212,0 388,0 388,-30"/>
<text text-anchor="start" x="220" y="-18" font-family="Helvetica,sans-Serif" font-size="10.00">com.teragrep.cfe_16.event.time.</text>
<text text-anchor="middle" x="300" y="-7" font-family="Helvetica,sans-Serif" font-size="10.00">HECTimeImpl.removeDecimal</text>
</a>
</g>
</g>
<!-- Node1&#45;&gt;Node4 -->
<g id="edge3_Node000001_Node000004" class="edge">
<title>Node1&#45;&gt;Node4</title>
<g id="a_edge3_Node000001_Node000004"><a xlink:title=" ">
<path fill="none" stroke="#63b8ff" d="M154.87,-47.94C176.66,-42.96 201.08,-37.38 223.54,-32.25"/>
<polygon fill="#63b8ff" stroke="#63b8ff" points="224.4,-35.64 233.36,-30 222.84,-28.82 224.4,-35.64"/>
</a>
</g>
</g>
</g>
</svg>
