<?xml version="1.0" encoding="UTF-8" standalone="no"?>
<!DOCTYPE svg PUBLIC "-//W3C//DTD SVG 1.1//EN"
 "http://www.w3.org/Graphics/SVG/1.1/DTD/svg11.dtd">
<!-- Generated by graphviz version 2.43.0 (0)
 -->
<!-- Title: com.teragrep.cfe_16.Stubable.isStub Pages: 1 -->
<svg width="647pt" height="206pt"
 viewBox="0.00 0.00 647.00 206.00" xmlns="http://www.w3.org/2000/svg" xmlns:xlink="http://www.w3.org/1999/xlink">
<g id="graph0" class="graph" transform="scale(1 1) rotate(0) translate(4 202)">
<title>com.teragrep.cfe_16.Stubable.isStub</title>
<!-- Node1 -->
<g id="Node000001" class="node">
<title>Node1</title>
<g id="a_Node000001"><a xlink:title=" ">
<polygon fill="#999999" stroke="#666666" points="639,-96.5 443,-96.5 443,-77.5 639,-77.5 639,-96.5"/>
<text text-anchor="middle" x="541" y="-84.5" font-family="Helvetica,sans-Serif" font-size="10.00">com.teragrep.cfe_16.Stubable.isStub</text>
</a>
</g>
</g>
<!-- Node2 -->
<g id="Node000002" class="node">
<title>Node2</title>
<g id="a_Node000002"><a xlink:href="classcom_1_1teragrep_1_1cfe__16_1_1bo_1_1HeaderInfo.html#a75b003348c0432bd23b5d10615237da1" target="_top" xlink:title=" ">
<polygon fill="white" stroke="#666666" points="401,-174 231,-174 231,-144 401,-144 401,-174"/>
<text text-anchor="start" x="239" y="-162" font-family="Helvetica,sans-Serif" font-size="10.00">com.teragrep.cfe_16.bo.Header</text>
<text text-anchor="middle" x="316" y="-151" font-family="Helvetica,sans-Serif" font-size="10.00">Info.asSDElement</text>
</a>
</g>
</g>
<!-- Node1&#45;&gt;Node2 -->
<g id="edge1_Node000001_Node000002" class="edge">
<title>Node1&#45;&gt;Node2</title>
<g id="a_edge1_Node000001_Node000002"><a xlink:title=" ">
<path fill="none" stroke="#63b8ff" d="M505.57,-100.34C478.88,-110.47 440.86,-124.4 407,-135 397.12,-138.09 386.56,-141.14 376.27,-143.97"/>
<polygon fill="#63b8ff" stroke="#63b8ff" points="507.12,-103.5 515.21,-96.67 504.62,-96.96 507.12,-103.5"/>
</a>
</g>
</g>
<!-- Node5 -->
<g id="Node000005" class="node">
<title>Node5</title>
<g id="a_Node000005"><a xlink:href="classcom_1_1teragrep_1_1cfe__16_1_1event_1_1time_1_1HECTimeImplWithFallback.html#a76ec7a4bc12c56f721599c59c4af4eb0" target="_top" xlink:title=" ">
<polygon fill="white" stroke="#666666" points="407,-126 225,-126 225,-96 407,-96 407,-126"/>
<text text-anchor="start" x="233" y="-114" font-family="Helvetica,sans-Serif" font-size="10.00">com.teragrep.cfe_16.event.time.</text>
<text text-anchor="middle" x="316" y="-103" font-family="Helvetica,sans-Serif" font-size="10.00">HECTimeImplWithFallback.instant</text>
</a>
</g>
</g>
<!-- Node1&#45;&gt;Node5 -->
<g id="edge4_Node000001_Node000005" class="edge">
<title>Node1&#45;&gt;Node5</title>
<g id="a_edge4_Node000001_Node000005"><a xlink:title=" ">
<path fill="none" stroke="#63b8ff" d="M441.55,-97.6C430.12,-98.83 418.49,-100.08 407.18,-101.3"/>
<polygon fill="#63b8ff" stroke="#63b8ff" points="441.98,-101.07 451.54,-96.52 441.23,-94.11 441.98,-101.07"/>
</a>
</g>
</g>
<!-- Node6 -->
<g id="Node000006" class="node">
<title>Node6</title>
<g id="a_Node000006"><a xlink:href="classcom_1_1teragrep_1_1cfe__16_1_1event_1_1time_1_1HECTimeImplWithFallback.html#ae2938615fa0ff314727aa837e0164e48" target="_top" xlink:title=" ">
<polygon fill="white" stroke="#666666" points="407,-78 225,-78 225,-48 407,-48 407,-78"/>
<text text-anchor="start" x="233" y="-66" font-family="Helvetica,sans-Serif" font-size="10.00">com.teragrep.cfe_16.event.time.</text>
<text text-anchor="middle" x="316" y="-55" font-family="Helvetica,sans-Serif" font-size="10.00">HECTimeImplWithFallback.parsed</text>
</a>
</g>
</g>
<!-- Node1&#45;&gt;Node6 -->
<g id="edge5_Node000001_Node000006" class="edge">
<title>Node1&#45;&gt;Node6</title>
<g id="a_edge5_Node000001_Node000006"><a xlink:title=" ">
<path fill="none" stroke="#63b8ff" d="M441.55,-76.4C430.12,-75.17 418.49,-73.92 407.18,-72.7"/>
<polygon fill="#63b8ff" stroke="#63b8ff" points="441.23,-79.89 451.54,-77.48 441.98,-72.93 441.23,-79.89"/>
</a>
</g>
</g>
<!-- Node7 -->
<g id="Node000007" class="node">
<title>Node7</title>
<g id="a_Node000007"><a xlink:href="classcom_1_1teragrep_1_1cfe__16_1_1event_1_1time_1_1HECTimeImplWithFallback.html#a03762cdc90d1fb05f74825b0c65cd358" target="_top" xlink:title=" ">
<polygon fill="white" stroke="#666666" points="406.5,-30 225.5,-30 225.5,0 406.5,0 406.5,-30"/>
<text text-anchor="start" x="233.5" y="-18" font-family="Helvetica,sans-Serif" font-size="10.00">com.teragrep.cfe_16.event.time.</text>
<text text-anchor="middle" x="316" y="-7" font-family="Helvetica,sans-Serif" font-size="10.00">HECTimeImplWithFallback.source</text>
</a>
</g>
</g>
<!-- Node1&#45;&gt;Node7 -->
<g id="edge6_Node000001_Node000007" class="edge">
<title>Node1&#45;&gt;Node7</title>
<g id="a_edge6_Node000001_Node000007"><a xlink:title=" ">
<path fill="none" stroke="#63b8ff" d="M505.57,-73.66C478.88,-63.53 440.86,-49.6 407,-39 397.12,-35.91 386.56,-32.86 376.27,-30.03"/>
<polygon fill="#63b8ff" stroke="#63b8ff" points="504.62,-77.04 515.21,-77.33 507.12,-70.5 504.62,-77.04"/>
</a>
</g>
</g>
<!-- Node3 -->
<g id="Node000003" class="node">
<title>Node3</title>
<g id="a_Node000003"><a xlink:href="classcom_1_1teragrep_1_1cfe__16_1_1bo_1_1HECRecordImpl.html#a2b20985bf3b6d50b0e4dfdc8fe82e494" target="_top" xlink:title=" ">
<polygon fill="white" stroke="#666666" points="189,-198 0,-198 0,-168 189,-168 189,-198"/>
<text text-anchor="start" x="8" y="-186" font-family="Helvetica,sans-Serif" font-size="10.00">com.teragrep.cfe_16.bo.HECRecord</text>
<text text-anchor="middle" x="94.5" y="-175" font-family="Helvetica,sans-Serif" font-size="10.00">Impl.toSyslogMessage</text>
</a>
</g>
</g>
<!-- Node2&#45;&gt;Node3 -->
<g id="edge2_Node000002_Node000003" class="edge">
<title>Node2&#45;&gt;Node3</title>
<g id="a_edge2_Node000002_Node000003"><a xlink:title=" ">
<path fill="none" stroke="#63b8ff" d="M220.75,-169.31C210.23,-170.45 199.52,-171.63 189.02,-172.78"/>
<polygon fill="#63b8ff" stroke="#63b8ff" points="221.2,-172.78 230.76,-168.21 220.44,-165.82 221.2,-172.78"/>
</a>
</g>
</g>
<!-- Node4 -->
<g id="Node000004" class="node">
<title>Node4</title>
<g id="a_Node000004"><a xlink:href="classcom_1_1teragrep_1_1cfe__16_1_1bo_1_1HECRecordImpl.html#a1fd269557595f8943fbc3eaf6ece40b0" target="_top" xlink:title=" ">
<polygon fill="white" stroke="#666666" points="189,-150 0,-150 0,-120 189,-120 189,-150"/>
<text text-anchor="start" x="8" y="-138" font-family="Helvetica,sans-Serif" font-size="10.00">com.teragrep.cfe_16.bo.HECRecord</text>
<text text-anchor="middle" x="94.5" y="-127" font-family="Helvetica,sans-Serif" font-size="10.00">Impl.toSyslogMessage</text>
</a>
</g>
</g>
<!-- Node2&#45;&gt;Node4 -->
<g id="edge3_Node000002_Node000004" class="edge">
<title>Node2&#45;&gt;Node4</title>
<g id="a_edge3_Node000002_Node000004"><a xlink:title=" ">
<path fill="none" stroke="#63b8ff" d="M220.75,-148.69C210.23,-147.55 199.52,-146.37 189.02,-145.22"/>
<polygon fill="#63b8ff" stroke="#63b8ff" points="220.44,-152.18 230.76,-149.79 221.2,-145.22 220.44,-152.18"/>
</a>
</g>
</g>
</g>
</svg>
