<?xml version="1.0" encoding="UTF-8" standalone="no"?>
<!DOCTYPE svg PUBLIC "-//W3C//DTD SVG 1.1//EN"
 "http://www.w3.org/Graphics/SVG/1.1/DTD/svg11.dtd">
<!-- Generated by graphviz version 2.43.0 (0)
 -->
<!-- Title: com.teragrep.cfe_16.service.HECServiceImpl.sendEvents Pages: 1 -->
<svg width="811pt" height="278pt"
 viewBox="0.00 0.00 811.00 278.00" xmlns="http://www.w3.org/2000/svg" xmlns:xlink="http://www.w3.org/1999/xlink">
<g id="graph0" class="graph" transform="scale(1 1) rotate(0) translate(4 274)">
<title>com.teragrep.cfe_16.service.HECServiceImpl.sendEvents</title>
<!-- Node1 -->
<g id="Node000001" class="node">
<title>Node1</title>
<g id="a_Node000001"><a xlink:title="Returns the JSON object as a response of given HTTP event request.">
<polygon fill="#999999" stroke="#666666" points="158,-126 0,-126 0,-96 158,-96 158,-126"/>
<text text-anchor="start" x="8" y="-114" font-family="Helvetica,sans-Serif" font-size="10.00">com.teragrep.cfe_16.service.</text>
<text text-anchor="middle" x="79" y="-103" font-family="Helvetica,sans-Serif" font-size="10.00">HECServiceImpl.sendEvents</text>
</a>
</g>
</g>
<!-- Node2 -->
<g id="Node000002" class="node">
<title>Node2</title>
<g id="a_Node000002"><a xlink:href="classcom_1_1teragrep_1_1cfe__16_1_1EventManager.html#aa8573fed5af5faf4deeffe7dd8369851" target="_top" xlink:title=" ">
<polygon fill="white" stroke="#666666" points="347,-222 199,-222 199,-192 347,-192 347,-222"/>
<text text-anchor="start" x="207" y="-210" font-family="Helvetica,sans-Serif" font-size="10.00">com.teragrep.cfe_16.Event</text>
<text text-anchor="middle" x="273" y="-199" font-family="Helvetica,sans-Serif" font-size="10.00">Manager.convertData</text>
</a>
</g>
</g>
<!-- Node1&#45;&gt;Node2 -->
<g id="edge1_Node000001_Node000002" class="edge">
<title>Node1&#45;&gt;Node2</title>
<g id="a_edge1_Node000001_Node000002"><a xlink:title=" ">
<path fill="none" stroke="#63b8ff" d="M100.07,-126C122.14,-141.93 159.12,-166.96 194,-183 198.09,-184.88 202.37,-186.67 206.73,-188.35"/>
<polygon fill="#63b8ff" stroke="#63b8ff" points="205.75,-191.72 216.35,-191.87 208.16,-185.14 205.75,-191.72"/>
</a>
</g>
</g>
<!-- Node11 -->
<g id="Node000011" class="node">
<title>Node11</title>
<g id="a_Node000011"><a xlink:href="classcom_1_1teragrep_1_1cfe__16_1_1SessionManager.html#a10eb9f8a23f0280db1b6662352fb5022" target="_top" xlink:title="Returns an existing Session object based on authentication token.">
<polygon fill="white" stroke="#666666" points="352,-174 194,-174 194,-144 352,-144 352,-174"/>
<text text-anchor="start" x="202" y="-162" font-family="Helvetica,sans-Serif" font-size="10.00">com.teragrep.cfe_16.Session</text>
<text text-anchor="middle" x="273" y="-151" font-family="Helvetica,sans-Serif" font-size="10.00">Manager.getOrCreateSession</text>
</a>
</g>
</g>
<!-- Node1&#45;&gt;Node11 -->
<g id="edge10_Node000001_Node000011" class="edge">
<title>Node1&#45;&gt;Node11</title>
<g id="a_edge10_Node000001_Node000011"><a xlink:title=" ">
<path fill="none" stroke="#63b8ff" d="M140.22,-126.06C159.88,-130.97 181.87,-136.47 202.18,-141.54"/>
<polygon fill="#63b8ff" stroke="#63b8ff" points="201.44,-144.97 211.99,-144 203.14,-138.18 201.44,-144.97"/>
</a>
</g>
</g>
<!-- Node12 -->
<g id="Node000012" class="node">
<title>Node12</title>
<g id="a_Node000012"><a xlink:href="classcom_1_1teragrep_1_1cfe__16_1_1TokenManager.html#a7f77170018e53e2f570fec2880081c31" target="_top" xlink:title=" ">
<polygon fill="white" stroke="#666666" points="351,-126 195,-126 195,-96 351,-96 351,-126"/>
<text text-anchor="start" x="203" y="-114" font-family="Helvetica,sans-Serif" font-size="10.00">com.teragrep.cfe_16.Token</text>
<text text-anchor="middle" x="273" y="-103" font-family="Helvetica,sans-Serif" font-size="10.00">Manager.getTokenFromBasic</text>
</a>
</g>
</g>
<!-- Node1&#45;&gt;Node12 -->
<g id="edge11_Node000001_Node000012" class="edge">
<title>Node1&#45;&gt;Node12</title>
<g id="a_edge11_Node000001_Node000012"><a xlink:title=" ">
<path fill="none" stroke="#63b8ff" d="M158.09,-111C166.92,-111 175.95,-111 184.89,-111"/>
<polygon fill="#63b8ff" stroke="#63b8ff" points="184.91,-114.5 194.91,-111 184.91,-107.5 184.91,-114.5"/>
</a>
</g>
</g>
<!-- Node13 -->
<g id="Node000013" class="node">
<title>Node13</title>
<g id="a_Node000013"><a xlink:href="classcom_1_1teragrep_1_1cfe__16_1_1TokenManager.html#a687bbb785ceb8eeb5b314e44d0136279" target="_top" xlink:title=" ">
<polygon fill="white" stroke="#666666" points="347,-78 199,-78 199,-48 347,-48 347,-78"/>
<text text-anchor="start" x="207" y="-66" font-family="Helvetica,sans-Serif" font-size="10.00">com.teragrep.cfe_16.Token</text>
<text text-anchor="middle" x="273" y="-55" font-family="Helvetica,sans-Serif" font-size="10.00">Manager.isTokenInBasic</text>
</a>
</g>
</g>
<!-- Node1&#45;&gt;Node13 -->
<g id="edge12_Node000001_Node000013" class="edge">
<title>Node1&#45;&gt;Node13</title>
<g id="a_edge12_Node000001_Node000013"><a xlink:title=" ">
<path fill="none" stroke="#63b8ff" d="M140.22,-95.94C159.88,-91.03 181.87,-85.53 202.18,-80.46"/>
<polygon fill="#63b8ff" stroke="#63b8ff" points="203.14,-83.82 211.99,-78 201.44,-77.03 203.14,-83.82"/>
</a>
</g>
</g>
<!-- Node14 -->
<g id="Node000014" class="node">
<title>Node14</title>
<g id="a_Node000014"><a xlink:href="classcom_1_1teragrep_1_1cfe__16_1_1TokenManager.html#a5d298916fc03c198d49fbf53205f88e8" target="_top" xlink:title=" ">
<polygon fill="white" stroke="#666666" points="347,-30 199,-30 199,0 347,0 347,-30"/>
<text text-anchor="start" x="207" y="-18" font-family="Helvetica,sans-Serif" font-size="10.00">com.teragrep.cfe_16.Token</text>
<text text-anchor="middle" x="273" y="-7" font-family="Helvetica,sans-Serif" font-size="10.00">Manager.tokenIsMissing</text>
</a>
</g>
</g>
<!-- Node1&#45;&gt;Node14 -->
<g id="edge13_Node000001_Node000014" class="edge">
<title>Node1&#45;&gt;Node14</title>
<g id="a_edge13_Node000001_Node000014"><a xlink:title=" ">
<path fill="none" stroke="#63b8ff" d="M100.07,-96C122.14,-80.07 159.12,-55.04 194,-39 198.09,-37.12 202.37,-35.33 206.73,-33.65"/>
<polygon fill="#63b8ff" stroke="#63b8ff" points="208.16,-36.86 216.35,-30.13 205.75,-30.28 208.16,-36.86"/>
</a>
</g>
</g>
<!-- Node3 -->
<g id="Node000003" class="node">
<title>Node3</title>
<g id="a_Node000003"><a xlink:href="classcom_1_1teragrep_1_1cfe__16_1_1EventManager.html#a952ab8d08a4ca2207f87d1aa04abce7a" target="_top" xlink:title=" ">
<polygon fill="white" stroke="#666666" points="557,-270 409,-270 409,-240 557,-240 557,-270"/>
<text text-anchor="start" x="417" y="-258" font-family="Helvetica,sans-Serif" font-size="10.00">com.teragrep.cfe_16.Event</text>
<text text-anchor="middle" x="483" y="-247" font-family="Helvetica,sans-Serif" font-size="10.00">Manager.assignMetaData</text>
</a>
</g>
</g>
<!-- Node2&#45;&gt;Node3 -->
<g id="edge2_Node000002_Node000003" class="edge">
<title>Node2&#45;&gt;Node3</title>
<g id="a_edge2_Node000002_Node000003"><a xlink:title=" ">
<path fill="none" stroke="#63b8ff" d="M339.24,-222.06C360.73,-227.01 384.8,-232.57 406.96,-237.68"/>
<polygon fill="#63b8ff" stroke="#63b8ff" points="406.46,-241.16 416.99,-240 408.03,-234.34 406.46,-241.16"/>
</a>
</g>
</g>
<!-- Node4 -->
<g id="Node000004" class="node">
<title>Node4</title>
<g id="a_Node000004"><a xlink:href="classcom_1_1teragrep_1_1cfe__16_1_1EventManager.html#a499862d588b74185c5a5cafcdc0c407e" target="_top" xlink:title=" ">
<polygon fill="white" stroke="#666666" points="557,-222 409,-222 409,-192 557,-192 557,-222"/>
<text text-anchor="start" x="417" y="-210" font-family="Helvetica,sans-Serif" font-size="10.00">com.teragrep.cfe_16.Event</text>
<text text-anchor="middle" x="483" y="-199" font-family="Helvetica,sans-Serif" font-size="10.00">Manager.handleTime</text>
</a>
</g>
</g>
<!-- Node2&#45;&gt;Node4 -->
<g id="edge3_Node000002_Node000004" class="edge">
<title>Node2&#45;&gt;Node4</title>
<g id="a_edge3_Node000002_Node000004"><a xlink:title=" ">
<path fill="none" stroke="#63b8ff" d="M347.04,-207C363.62,-207 381.35,-207 398.33,-207"/>
<polygon fill="#63b8ff" stroke="#63b8ff" points="398.78,-210.5 408.78,-207 398.78,-203.5 398.78,-210.5"/>
</a>
</g>
</g>
<!-- Node7 -->
<g id="Node000007" class="node">
<title>Node7</title>
<g id="a_Node000007"><a xlink:href="classcom_1_1teragrep_1_1cfe__16_1_1Converter.html#a602a68046d2d394249793b6d74b62050" target="_top" xlink:title=" ">
<polygon fill="white" stroke="#666666" points="578,-150 388,-150 388,-120 578,-120 578,-150"/>
<text text-anchor="start" x="396" y="-138" font-family="Helvetica,sans-Serif" font-size="10.00">com.teragrep.cfe_16.Converter.http</text>
<text text-anchor="middle" x="483" y="-127" font-family="Helvetica,sans-Serif" font-size="10.00">ToSyslog</text>
</a>
</g>
</g>
<!-- Node2&#45;&gt;Node7 -->
<g id="edge6_Node000002_Node000007" class="edge">
<title>Node2&#45;&gt;Node7</title>
<g id="a_edge6_Node000002_Node000007"><a xlink:title=" ">
<path fill="none" stroke="#63b8ff" d="M324.48,-191.91C333.67,-189.04 343.14,-186 352,-183 379.16,-173.81 409.21,-162.78 433.57,-153.61"/>
<polygon fill="#63b8ff" stroke="#63b8ff" points="434.83,-156.87 442.95,-150.06 432.36,-150.32 434.83,-156.87"/>
</a>
</g>
</g>
<!-- Node5 -->
<g id="Node000005" class="node">
<title>Node5</title>
<g id="a_Node000005"><a xlink:href="classcom_1_1teragrep_1_1cfe__16_1_1EventManager.html#a74cf4d32251dd8b36aee7d8b3578f62b" target="_top" xlink:title=" ">
<polygon fill="white" stroke="#666666" points="803,-270 614,-270 614,-240 803,-240 803,-270"/>
<text text-anchor="start" x="622" y="-258" font-family="Helvetica,sans-Serif" font-size="10.00">com.teragrep.cfe_16.Event</text>
<text text-anchor="middle" x="708.5" y="-247" font-family="Helvetica,sans-Serif" font-size="10.00">Manager.convertTimeToEpochMillis</text>
</a>
</g>
</g>
<!-- Node4&#45;&gt;Node5 -->
<g id="edge4_Node000004_Node000005" class="edge">
<title>Node4&#45;&gt;Node5</title>
<g id="a_edge4_Node000004_Node000005"><a xlink:title=" ">
<path fill="none" stroke="#63b8ff" d="M554.1,-222.06C577.51,-227.08 603.75,-232.72 627.83,-237.89"/>
<polygon fill="#63b8ff" stroke="#63b8ff" points="627.13,-241.32 637.65,-240 628.6,-234.48 627.13,-241.32"/>
</a>
</g>
</g>
<!-- Node6 -->
<g id="Node000006" class="node">
<title>Node6</title>
<g id="a_Node000006"><a xlink:href="classcom_1_1teragrep_1_1cfe__16_1_1EventManager.html#a159ac4f3aa69ac663e34efa51c9147d6" target="_top" xlink:title=" ">
<polygon fill="white" stroke="#666666" points="782.5,-222 634.5,-222 634.5,-192 782.5,-192 782.5,-222"/>
<text text-anchor="start" x="642.5" y="-210" font-family="Helvetica,sans-Serif" font-size="10.00">com.teragrep.cfe_16.Event</text>
<text text-anchor="middle" x="708.5" y="-199" font-family="Helvetica,sans-Serif" font-size="10.00">Manager.removeDecimal</text>
</a>
</g>
</g>
<!-- Node4&#45;&gt;Node6 -->
<g id="edge5_Node000004_Node000006" class="edge">
<title>Node4&#45;&gt;Node6</title>
<g id="a_edge5_Node000004_Node000006"><a xlink:title=" ">
<path fill="none" stroke="#63b8ff" d="M557.18,-207C578.5,-207 601.96,-207 623.87,-207"/>
<polygon fill="#63b8ff" stroke="#63b8ff" points="624.15,-210.5 634.15,-207 624.15,-203.5 624.15,-210.5"/>
</a>
</g>
</g>
<!-- Node8 -->
<g id="Node000008" class="node">
<title>Node8</title>
<g id="a_Node000008"><a xlink:href="classcom_1_1teragrep_1_1cfe__16_1_1Converter.html#ad3945e06829eabba7dec42281559bffb" target="_top" xlink:title=" ">
<polygon fill="white" stroke="#666666" points="801,-174 616,-174 616,-144 801,-144 801,-174"/>
<text text-anchor="start" x="624" y="-162" font-family="Helvetica,sans-Serif" font-size="10.00">com.teragrep.cfe_16.Converter.set</text>
<text text-anchor="middle" x="708.5" y="-151" font-family="Helvetica,sans-Serif" font-size="10.00">EventFacility</text>
</a>
</g>
</g>
<!-- Node7&#45;&gt;Node8 -->
<g id="edge7_Node000007_Node000008" class="edge">
<title>Node7&#45;&gt;Node8</title>
<g id="a_edge7_Node000007_Node000008"><a xlink:title=" ">
<path fill="none" stroke="#63b8ff" d="M578.14,-145.11C587.34,-146.1 596.7,-147.1 605.97,-148.1"/>
<polygon fill="#63b8ff" stroke="#63b8ff" points="605.66,-151.58 615.97,-149.17 606.4,-144.62 605.66,-151.58"/>
</a>
</g>
</g>
<!-- Node9 -->
<g id="Node000009" class="node">
<title>Node9</title>
<g id="a_Node000009"><a xlink:href="classcom_1_1teragrep_1_1cfe__16_1_1Converter.html#a99439ed8fa2f982deedfa6168ecbeba8" target="_top" xlink:title=" ">
<polygon fill="white" stroke="#666666" points="801,-126 616,-126 616,-96 801,-96 801,-126"/>
<text text-anchor="start" x="624" y="-114" font-family="Helvetica,sans-Serif" font-size="10.00">com.teragrep.cfe_16.Converter.set</text>
<text text-anchor="middle" x="708.5" y="-103" font-family="Helvetica,sans-Serif" font-size="10.00">EventSeverity</text>
</a>
</g>
</g>
<!-- Node7&#45;&gt;Node9 -->
<g id="edge8_Node000007_Node000009" class="edge">
<title>Node7&#45;&gt;Node9</title>
<g id="a_edge8_Node000007_Node000009"><a xlink:title=" ">
<path fill="none" stroke="#63b8ff" d="M578.14,-124.89C587.34,-123.9 596.7,-122.9 605.97,-121.9"/>
<polygon fill="#63b8ff" stroke="#63b8ff" points="606.4,-125.38 615.97,-120.83 605.66,-118.42 606.4,-125.38"/>
</a>
</g>
</g>
<!-- Node10 -->
<g id="Node000010" class="node">
<title>Node10</title>
<g id="a_Node000010"><a xlink:href="classcom_1_1teragrep_1_1cfe__16_1_1Converter.html#a18a7c850c23a15fd3ab357f011ec5866" target="_top" xlink:title=" ">
<polygon fill="white" stroke="#666666" points="801,-78 616,-78 616,-48 801,-48 801,-78"/>
<text text-anchor="start" x="624" y="-66" font-family="Helvetica,sans-Serif" font-size="10.00">com.teragrep.cfe_16.Converter.set</text>
<text text-anchor="middle" x="708.5" y="-55" font-family="Helvetica,sans-Serif" font-size="10.00">StructuredDataParams</text>
</a>
</g>
</g>
<!-- Node7&#45;&gt;Node10 -->
<g id="edge9_Node000007_Node000010" class="edge">
<title>Node7&#45;&gt;Node10</title>
<g id="a_edge9_Node000007_Node000010"><a xlink:title=" ">
<path fill="none" stroke="#63b8ff" d="M521.76,-119.89C547.52,-109.88 582.54,-96.82 614,-87 620.87,-84.85 628.07,-82.75 635.3,-80.74"/>
<polygon fill="#63b8ff" stroke="#63b8ff" points="636.41,-84.07 645.14,-78.06 634.57,-77.31 636.41,-84.07"/>
</a>
</g>
</g>
</g>
</svg>
